<ttFont>
    <TTGlyph name=".notdef" xMin="115" yMin="176" xMax="254" yMax="312">
      <contour>
        <pt x="115" y="231" on="1"/>
        <pt x="115" y="246" on="0"/>
        <pt x="129" y="276" on="0"/>
        <pt x="153" y="298" on="0"/>
        <pt x="183" y="312" on="0"/>
        <pt x="199" y="312" on="1"/>
        <pt x="222" y="312" on="0"/>
        <pt x="254" y="277" on="0"/>
        <pt x="254" y="253" on="1"/>
        <pt x="254" y="237" on="0"/>
        <pt x="239" y="209" on="0"/>
        <pt x="215" y="188" on="0"/>
        <pt x="185" y="176" on="0"/>
        <pt x="170" y="176" on="1"/>
        <pt x="145" y="176" on="0"/>
        <pt x="115" y="208" on="0"/>
      </contour>
    </TTGlyph>
    <TTGlyph name="A" xMin="-50" yMin="0" xMax="595" yMax="660">
      <contour>
        <pt x="595" y="0" on="1"/>
        <pt x="510" y="0" on="1"/>
        <pt x="460" y="222" on="1"/>
        <pt x="165" y="222" on="1"/>
        <pt x="30" y="0" on="1"/>
        <pt x="-50" y="0" on="1"/>
        <pt x="354" y="660" on="1"/>
        <pt x="445" y="660" on="1"/>
      </contour>
      <contour>
        <pt x="207" y="292" on="1"/>
        <pt x="444" y="292" on="1"/>
        <pt x="381" y="576" on="1"/>
      </contour>
    </TTGlyph>
    <TTGlyph name="AE" xMin="-61" yMin="0" xMax="785" yMax="660">
      <contour>
        <pt x="665" y="0" on="1"/>
        <pt x="333" y="0" on="1"/>
        <pt x="380" y="222" on="1"/>
        <pt x="186" y="222" on="1"/>
        <pt x="21" y="0" on="1"/>
        <pt x="-61" y="0" on="1"/>
        <pt x="431" y="660" on="1"/>
        <pt x="785" y="660" on="1"/>
        <pt x="770" y="590" on="1"/>
        <pt x="533" y="590" on="1"/>
        <pt x="490" y="385" on="1"/>
        <pt x="660" y="385" on="1"/>
        <pt x="645" y="315" on="1"/>
        <pt x="475" y="315" on="1"/>
        <pt x="423" y="70" on="1"/>
        <pt x="680" y="70" on="1"/>
      </contour>
      <contour>
        <pt x="395" y="292" on="1"/>
        <pt x="458" y="588" on="1"/>
        <pt x="238" y="292" on="1"/>
      </contour>
    </TTGlyph>
    <TTGlyph name="Aacute" xMin="-50" yMin="0" xMax="595" yMax="848">
      <contour>
        <pt x="595" y="0" on="1"/>
        <pt x="510" y="0" on="1"/>
        <pt x="460" y="222" on="1"/>
        <pt x="165" y="222" on="1"/>
        <pt x="30" y="0" on="1"/>
        <pt x="-50" y="0" on="1"/>
        <pt x="354" y="660" on="1"/>
        <pt x="445" y="660" on="1"/>
      </contour>
      <contour>
        <pt x="207" y="292" on="1"/>
        <pt x="444" y="292" on="1"/>
        <pt x="381" y="576" on="1"/>
      </contour>
      <contour>
        <pt x="318" y="721" on="1"/>
        <pt x="317" y="741" on="1"/>
        <pt x="321" y="748" on="1"/>
        <pt x="522" y="848" on="1"/>
        <pt x="537" y="847" on="0"/>
        <pt x="551" y="832" on="0"/>
        <pt x="551" y="821" on="1"/>
        <pt x="551" y="807" on="0"/>
        <pt x="543" y="795" on="1"/>
        <pt x="325" y="718" on="1"/>
      </contour>
    </TTGlyph>
    <TTGlyph name="Acircumflex" xMin="-50" yMin="0" xMax="595" yMax="842">
      <contour>
        <pt x="595" y="0" on="1"/>
        <pt x="510" y="0" on="1"/>
        <pt x="460" y="222" on="1"/>
        <pt x="165" y="222" on="1"/>
        <pt x="30" y="0" on="1"/>
        <pt x="-50" y="0" on="1"/>
        <pt x="354" y="660" on="1"/>
        <pt x="445" y="660" on="1"/>
      </contour>
      <contour>
        <pt x="207" y="292" on="1"/>
        <pt x="444" y="292" on="1"/>
        <pt x="381" y="576" on="1"/>
      </contour>
      <contour>
        <pt x="454" y="842" on="1"/>
        <pt x="543" y="743" on="1"/>
        <pt x="544" y="736" on="1"/>
        <pt x="534" y="716" on="1"/>
        <pt x="527" y="713" on="1"/>
        <pt x="436" y="775" on="1"/>
        <pt x="319" y="713" on="1"/>
        <pt x="312" y="716" on="1"/>
        <pt x="310" y="736" on="1"/>
        <pt x="315" y="743" on="1"/>
        <pt x="446" y="842" on="1"/>
      </contour>
    </TTGlyph>
    <TTGlyph name="Adieresis" xMin="-50" yMin="0" xMax="595" yMax="839">
      <contour>
        <pt x="595" y="0" on="1"/>
        <pt x="510" y="0" on="1"/>
        <pt x="460" y="222" on="1"/>
        <pt x="165" y="222" on="1"/>
        <pt x="30" y="0" on="1"/>
        <pt x="-50" y="0" on="1"/>
        <pt x="354" y="660" on="1"/>
        <pt x="445" y="660" on="1"/>
      </contour>
      <contour>
        <pt x="207" y="292" on="1"/>
        <pt x="444" y="292" on="1"/>
        <pt x="381" y="576" on="1"/>
      </contour>
      <contour>
        <pt x="317" y="786" on="1"/>
        <pt x="317" y="806" on="0"/>
        <pt x="348" y="839" on="0"/>
        <pt x="368" y="839" on="1"/>
        <pt x="382" y="839" on="0"/>
        <pt x="402" y="817" on="0"/>
        <pt x="402" y="801" on="1"/>
        <pt x="402" y="780" on="0"/>
        <pt x="368" y="750" on="0"/>
        <pt x="349" y="750" on="1"/>
        <pt x="334" y="750" on="0"/>
        <pt x="317" y="770" on="0"/>
      </contour>
      <contour>
        <pt x="474" y="786" on="1"/>
        <pt x="474" y="806" on="0"/>
        <pt x="505" y="839" on="0"/>
        <pt x="525" y="839" on="1"/>
        <pt x="539" y="839" on="0"/>
        <pt x="558" y="817" on="0"/>
        <pt x="558" y="802" on="1"/>
        <pt x="558" y="780" on="0"/>
        <pt x="524" y="750" on="0"/>
        <pt x="506" y="750" on="1"/>
        <pt x="492" y="750" on="0"/>
        <pt x="474" y="770" on="0"/>
      </contour>
    </TTGlyph>
    <TTGlyph name="Agrave" xMin="-50" yMin="0" xMax="595" yMax="848">
      <contour>
        <pt x="595" y="0" on="1"/>
        <pt x="510" y="0" on="1"/>
        <pt x="460" y="222" on="1"/>
        <pt x="165" y="222" on="1"/>
        <pt x="30" y="0" on="1"/>
        <pt x="-50" y="0" on="1"/>
        <pt x="354" y="660" on="1"/>
        <pt x="445" y="660" on="1"/>
      </contour>
      <contour>
        <pt x="207" y="292" on="1"/>
        <pt x="444" y="292" on="1"/>
        <pt x="381" y="576" on="1"/>
      </contour>
      <contour>
        <pt x="517" y="718" on="1"/>
        <pt x="332" y="795" on="1"/>
        <pt x="331" y="797" on="0"/>
        <pt x="331" y="804" on="0"/>
        <pt x="331" y="806" on="1"/>
        <pt x="331" y="823" on="0"/>
        <pt x="354" y="847" on="0"/>
        <pt x="374" y="848" on="1"/>
        <pt x="534" y="748" on="1"/>
        <pt x="535" y="741" on="1"/>
        <pt x="525" y="721" on="1"/>
      </contour>
    </TTGlyph>
    <TTGlyph name="Aring" xMin="-50" yMin="0" xMax="595" yMax="782">
      <contour>
        <pt x="425" y="782" on="1"/>
        <pt x="460" y="782" on="0"/>
        <pt x="496" y="742" on="0"/>
        <pt x="496" y="716" on="1"/>
        <pt x="496" y="692" on="0"/>
        <pt x="468" y="656" on="0"/>
        <pt x="448" y="645" on="1"/>
        <pt x="595" y="0" on="1"/>
        <pt x="510" y="0" on="1"/>
        <pt x="460" y="222" on="1"/>
        <pt x="165" y="222" on="1"/>
        <pt x="30" y="0" on="1"/>
        <pt x="-50" y="0" on="1"/>
        <pt x="345" y="645" on="1"/>
        <pt x="333" y="653" on="0"/>
        <pt x="320" y="679" on="0"/>
        <pt x="320" y="694" on="1"/>
        <pt x="320" y="711" on="0"/>
        <pt x="336" y="743" on="0"/>
        <pt x="365" y="767" on="0"/>
        <pt x="403" y="782" on="0"/>
      </contour>
      <contour>
        <pt x="208" y="292" on="1"/>
        <pt x="444" y="292" on="1"/>
        <pt x="380" y="576" on="1"/>
      </contour>
      <contour>
        <pt x="399" y="654" on="1"/>
        <pt x="421" y="654" on="0"/>
        <pt x="456" y="690" on="0"/>
        <pt x="456" y="712" on="1"/>
        <pt x="456" y="729" on="0"/>
        <pt x="435" y="752" on="0"/>
        <pt x="418" y="752" on="1"/>
        <pt x="392" y="752" on="0"/>
        <pt x="360" y="720" on="0"/>
        <pt x="360" y="697" on="1"/>
        <pt x="360" y="680" on="0"/>
        <pt x="382" y="654" on="0"/>
      </contour>
    </TTGlyph>
    <TTGlyph name="Atilde" xMin="-50" yMin="0" xMax="601" yMax="840">
      <contour>
        <pt x="595" y="0" on="1"/>
        <pt x="510" y="0" on="1"/>
        <pt x="460" y="222" on="1"/>
        <pt x="165" y="222" on="1"/>
        <pt x="30" y="0" on="1"/>
        <pt x="-50" y="0" on="1"/>
        <pt x="354" y="660" on="1"/>
        <pt x="445" y="660" on="1"/>
      </contour>
      <contour>
        <pt x="207" y="292" on="1"/>
        <pt x="444" y="292" on="1"/>
        <pt x="381" y="576" on="1"/>
      </contour>
      <contour>
        <pt x="601" y="832" on="1"/>
        <pt x="595" y="818" on="0"/>
        <pt x="576" y="791" on="0"/>
        <pt x="550" y="769" on="0"/>
        <pt x="517" y="755" on="0"/>
        <pt x="496" y="755" on="1"/>
        <pt x="456" y="755" on="0"/>
        <pt x="376" y="769" on="0"/>
        <pt x="344" y="769" on="1"/>
        <pt x="319" y="769" on="0"/>
        <pt x="297" y="756" on="0"/>
        <pt x="284" y="744" on="1"/>
        <pt x="273" y="752" on="1"/>
        <pt x="280" y="765" on="0"/>
        <pt x="299" y="793" on="0"/>
        <pt x="325" y="814" on="0"/>
        <pt x="359" y="828" on="0"/>
        <pt x="380" y="828" on="1"/>
        <pt x="405" y="828" on="0"/>
        <pt x="441" y="824" on="0"/>
        <pt x="472" y="818" on="0"/>
        <pt x="501" y="814" on="0"/>
        <pt x="520" y="814" on="1"/>
        <pt x="537" y="814" on="0"/>
        <pt x="573" y="822" on="0"/>
        <pt x="591" y="840" on="1"/>
      </contour>
    </TTGlyph>
    <TTGlyph name="B" xMin="42" yMin="-12" xMax="503" yMax="665">
      <contour>
        <pt x="182" y="660" on="1"/>
        <pt x="216" y="662" on="0"/>
        <pt x="301" y="665" on="0"/>
        <pt x="337" y="665" on="1"/>
        <pt x="414" y="665" on="0"/>
        <pt x="503" y="595" on="0"/>
        <pt x="503" y="529" on="1"/>
        <pt x="503" y="477" on="0"/>
        <pt x="453" y="393" on="0"/>
        <pt x="402" y="365" on="1"/>
        <pt x="448" y="348" on="0"/>
        <pt x="499" y="279" on="0"/>
        <pt x="499" y="228" on="1"/>
        <pt x="499" y="182" on="0"/>
        <pt x="460" y="95" on="0"/>
        <pt x="385" y="28" on="0"/>
        <pt x="275" y="-12" on="0"/>
        <pt x="204" y="-12" on="1"/>
        <pt x="155" y="-12" on="0"/>
        <pt x="74" y="-5" on="0"/>
        <pt x="42" y="0" on="1"/>
      </contour>
      <contour>
        <pt x="271" y="325" on="1"/>
        <pt x="249" y="325" on="0"/>
        <pt x="205" y="324" on="0"/>
        <pt x="185" y="323" on="1"/>
        <pt x="129" y="57" on="1"/>
        <pt x="166" y="54" on="0"/>
        <pt x="215" y="54" on="1"/>
        <pt x="312" y="54" on="0"/>
        <pt x="416" y="148" on="0"/>
        <pt x="416" y="227" on="1"/>
        <pt x="416" y="272" on="0"/>
        <pt x="349" y="325" on="0"/>
      </contour>
      <contour>
        <pt x="329" y="599" on="1"/>
        <pt x="307" y="599" on="0"/>
        <pt x="263" y="598" on="0"/>
        <pt x="243" y="597" on="1"/>
        <pt x="198" y="383" on="1"/>
        <pt x="212" y="382" on="0"/>
        <pt x="243" y="382" on="0"/>
        <pt x="259" y="382" on="1"/>
        <pt x="296" y="382" on="0"/>
        <pt x="355" y="403" on="0"/>
        <pt x="397" y="441" on="0"/>
        <pt x="420" y="493" on="0"/>
        <pt x="420" y="525" on="1"/>
        <pt x="420" y="558" on="0"/>
        <pt x="379" y="599" on="0"/>
      </contour>
    </TTGlyph>
    <TTGlyph name="C" xMin="60" yMin="-12" xMax="665" yMax="665">
      <contour>
        <pt x="628" y="550" on="1"/>
        <pt x="601" y="571" on="0"/>
        <pt x="513" y="599" on="0"/>
        <pt x="453" y="599" on="1"/>
        <pt x="361" y="599" on="0"/>
        <pt x="241" y="537" on="0"/>
        <pt x="171" y="437" on="0"/>
        <pt x="143" y="313" on="0"/>
        <pt x="143" y="252" on="1"/>
        <pt x="143" y="155" on="0"/>
        <pt x="239" y="54" on="0"/>
        <pt x="335" y="54" on="1"/>
        <pt x="398" y="54" on="0"/>
        <pt x="511" y="90" on="0"/>
        <pt x="549" y="116" on="1"/>
        <pt x="555" y="49" on="1"/>
        <pt x="510" y="25" on="0"/>
        <pt x="389" y="-12" on="0"/>
        <pt x="318" y="-12" on="1"/>
        <pt x="250" y="-12" on="0"/>
        <pt x="153" y="29" on="0"/>
        <pt x="90" y="100" on="0"/>
        <pt x="60" y="195" on="0"/>
        <pt x="60" y="248" on="1"/>
        <pt x="60" y="329" on="0"/>
        <pt x="116" y="480" on="0"/>
        <pt x="223" y="595" on="0"/>
        <pt x="376" y="665" on="0"/>
        <pt x="473" y="665" on="1"/>
        <pt x="527" y="665" on="0"/>
        <pt x="630" y="642" on="0"/>
        <pt x="665" y="622" on="1"/>
      </contour>
    </TTGlyph>
    <TTGlyph name="Ccedilla" xMin="61" yMin="-203" xMax="666" yMax="665">
      <contour>
        <pt x="182" y="-178" on="1"/>
        <pt x="199" y="-155" on="1"/>
        <pt x="206" y="-155" on="1"/>
        <pt x="217" y="-160" on="0"/>
        <pt x="253" y="-167" on="0"/>
        <pt x="273" y="-167" on="1"/>
        <pt x="299" y="-167" on="0"/>
        <pt x="336" y="-146" on="0"/>
        <pt x="336" y="-116" on="1"/>
        <pt x="336" y="-96" on="0"/>
        <pt x="311" y="-81" on="0"/>
        <pt x="293" y="-81" on="1"/>
        <pt x="281" y="-81" on="0"/>
        <pt x="255" y="-85" on="0"/>
        <pt x="243" y="-88" on="1"/>
        <pt x="237" y="-77" on="1"/>
        <pt x="294" y="-11" on="1"/>
        <pt x="233" y="-7" on="0"/>
        <pt x="145" y="37" on="0"/>
        <pt x="88" y="107" on="0"/>
        <pt x="61" y="197" on="0"/>
        <pt x="61" y="248" on="1"/>
        <pt x="61" y="329" on="0"/>
        <pt x="117" y="480" on="0"/>
        <pt x="224" y="595" on="0"/>
        <pt x="377" y="665" on="0"/>
        <pt x="474" y="665" on="1"/>
        <pt x="528" y="665" on="0"/>
        <pt x="631" y="642" on="0"/>
        <pt x="666" y="622" on="1"/>
        <pt x="629" y="550" on="1"/>
        <pt x="602" y="571" on="0"/>
        <pt x="514" y="599" on="0"/>
        <pt x="454" y="599" on="1"/>
        <pt x="362" y="599" on="0"/>
        <pt x="242" y="537" on="0"/>
        <pt x="172" y="437" on="0"/>
        <pt x="144" y="313" on="0"/>
        <pt x="144" y="252" on="1"/>
        <pt x="144" y="155" on="0"/>
        <pt x="240" y="54" on="0"/>
        <pt x="336" y="54" on="1"/>
        <pt x="399" y="54" on="0"/>
        <pt x="512" y="90" on="0"/>
        <pt x="550" y="116" on="1"/>
        <pt x="556" y="49" on="1"/>
        <pt x="512" y="26" on="0"/>
        <pt x="398" y="-10" on="0"/>
        <pt x="330" y="-12" on="1"/>
        <pt x="298" y="-51" on="1"/>
        <pt x="307" y="-49" on="0"/>
        <pt x="324" y="-47" on="0"/>
        <pt x="331" y="-47" on="1"/>
        <pt x="362" y="-47" on="0"/>
        <pt x="397" y="-80" on="0"/>
        <pt x="397" y="-106" on="1"/>
        <pt x="397" y="-125" on="0"/>
        <pt x="376" y="-160" on="0"/>
        <pt x="341" y="-187" on="0"/>
        <pt x="294" y="-203" on="0"/>
        <pt x="268" y="-203" on="1"/>
        <pt x="244" y="-203" on="0"/>
        <pt x="198" y="-192" on="0"/>
        <pt x="181" y="-184" on="1"/>
      </contour>
    </TTGlyph>
    <TTGlyph name="D" xMin="42" yMin="-12" xMax="670" yMax="665">
      <contour>
        <pt x="182" y="660" on="1"/>
        <pt x="231" y="662" on="0"/>
        <pt x="347" y="665" on="0"/>
        <pt x="401" y="665" on="1"/>
        <pt x="472" y="665" on="0"/>
        <pt x="581" y="625" on="0"/>
        <pt x="614" y="590" on="1"/>
        <pt x="643" y="558" on="0"/>
        <pt x="670" y="458" on="0"/>
        <pt x="670" y="405" on="1"/>
        <pt x="670" y="326" on="0"/>
        <pt x="618" y="176" on="0"/>
        <pt x="516" y="59" on="0"/>
        <pt x="366" y="-12" on="0"/>
        <pt x="268" y="-12" on="1"/>
        <pt x="197" y="-12" on="0"/>
        <pt x="87" y="-5" on="0"/>
        <pt x="42" y="0" on="1"/>
      </contour>
      <contour>
        <pt x="279" y="54" on="1"/>
        <pt x="357" y="54" on="0"/>
        <pt x="473" y="106" on="0"/>
        <pt x="550" y="200" on="0"/>
        <pt x="588" y="330" on="0"/>
        <pt x="588" y="408" on="1"/>
        <pt x="588" y="451" on="0"/>
        <pt x="567" y="521" on="0"/>
        <pt x="520" y="571" on="0"/>
        <pt x="446" y="599" on="0"/>
        <pt x="393" y="599" on="1"/>
        <pt x="353" y="599" on="0"/>
        <pt x="275" y="598" on="0"/>
        <pt x="243" y="596" on="1"/>
        <pt x="130" y="60" on="1"/>
        <pt x="191" y="54" on="0"/>
      </contour>
    </TTGlyph>
    <TTGlyph name="Dcroat" xMin="29" yMin="-12" xMax="675" yMax="666">
      <contour>
        <pt x="29" y="326" on="1"/>
        <pt x="38" y="370" on="1"/>
        <pt x="125" y="370" on="1"/>
        <pt x="187" y="660" on="1"/>
        <pt x="192" y="661" on="1"/>
        <pt x="215" y="664" on="0"/>
        <pt x="268" y="666" on="0"/>
        <pt x="296" y="666" on="1"/>
        <pt x="355" y="666" on="0"/>
        <pt x="452" y="662" on="0"/>
        <pt x="531" y="647" on="0"/>
        <pt x="594" y="616" on="0"/>
        <pt x="619" y="590" on="1"/>
        <pt x="648" y="558" on="0"/>
        <pt x="675" y="458" on="0"/>
        <pt x="675" y="405" on="1"/>
        <pt x="675" y="326" on="0"/>
        <pt x="623" y="176" on="0"/>
        <pt x="521" y="59" on="0"/>
        <pt x="371" y="-12" on="0"/>
        <pt x="273" y="-12" on="1"/>
        <pt x="202" y="-12" on="0"/>
        <pt x="91" y="-5" on="0"/>
        <pt x="47" y="0" on="1"/>
        <pt x="116" y="326" on="1"/>
      </contour>
      <contour>
        <pt x="375" y="370" on="1"/>
        <pt x="366" y="326" on="1"/>
        <pt x="191" y="326" on="1"/>
        <pt x="134" y="60" on="1"/>
        <pt x="197" y="54" on="0"/>
        <pt x="284" y="54" on="1"/>
        <pt x="361" y="54" on="0"/>
        <pt x="477" y="106" on="0"/>
        <pt x="554" y="200" on="0"/>
        <pt x="593" y="330" on="0"/>
        <pt x="593" y="408" on="1"/>
        <pt x="593" y="451" on="0"/>
        <pt x="572" y="521" on="0"/>
        <pt x="525" y="571" on="0"/>
        <pt x="451" y="599" on="0"/>
        <pt x="398" y="599" on="1"/>
        <pt x="358" y="599" on="0"/>
        <pt x="280" y="598" on="0"/>
        <pt x="248" y="596" on="1"/>
        <pt x="200" y="370" on="1"/>
      </contour>
    </TTGlyph>
    <TTGlyph name="E" xMin="42" yMin="0" xMax="544" yMax="660">
      <contour>
        <pt x="424" y="0" on="1"/>
        <pt x="42" y="0" on="1"/>
        <pt x="182" y="660" on="1"/>
        <pt x="544" y="660" on="1"/>
        <pt x="529" y="590" on="1"/>
        <pt x="242" y="590" on="1"/>
        <pt x="199" y="385" on="1"/>
        <pt x="419" y="385" on="1"/>
        <pt x="404" y="315" on="1"/>
        <pt x="184" y="315" on="1"/>
        <pt x="132" y="70" on="1"/>
        <pt x="439" y="70" on="1"/>
      </contour>
    </TTGlyph>
    <TTGlyph name="Eacute" xMin="42" yMin="0" xMax="544" yMax="848">
      <contour>
        <pt x="424" y="0" on="1"/>
        <pt x="42" y="0" on="1"/>
        <pt x="182" y="660" on="1"/>
        <pt x="544" y="660" on="1"/>
        <pt x="529" y="590" on="1"/>
        <pt x="242" y="590" on="1"/>
        <pt x="199" y="385" on="1"/>
        <pt x="419" y="385" on="1"/>
        <pt x="404" y="315" on="1"/>
        <pt x="184" y="315" on="1"/>
        <pt x="132" y="70" on="1"/>
        <pt x="439" y="70" on="1"/>
      </contour>
      <contour>
        <pt x="280" y="721" on="1"/>
        <pt x="279" y="741" on="1"/>
        <pt x="283" y="748" on="1"/>
        <pt x="485" y="848" on="1"/>
        <pt x="514" y="846" on="0"/>
        <pt x="514" y="821" on="1"/>
        <pt x="514" y="811" on="0"/>
        <pt x="508" y="800" on="0"/>
        <pt x="505" y="795" on="1"/>
        <pt x="287" y="718" on="1"/>
      </contour>
    </TTGlyph>
    <TTGlyph name="Ecircumflex" xMin="42" yMin="0" xMax="544" yMax="842">
      <contour>
        <pt x="424" y="0" on="1"/>
        <pt x="42" y="0" on="1"/>
        <pt x="182" y="660" on="1"/>
        <pt x="544" y="660" on="1"/>
        <pt x="529" y="590" on="1"/>
        <pt x="242" y="590" on="1"/>
        <pt x="199" y="385" on="1"/>
        <pt x="419" y="385" on="1"/>
        <pt x="404" y="315" on="1"/>
        <pt x="184" y="315" on="1"/>
        <pt x="132" y="70" on="1"/>
        <pt x="439" y="70" on="1"/>
      </contour>
      <contour>
        <pt x="413" y="842" on="1"/>
        <pt x="502" y="743" on="1"/>
        <pt x="503" y="736" on="1"/>
        <pt x="493" y="716" on="1"/>
        <pt x="486" y="713" on="1"/>
        <pt x="395" y="775" on="1"/>
        <pt x="278" y="713" on="1"/>
        <pt x="271" y="716" on="1"/>
        <pt x="269" y="736" on="1"/>
        <pt x="274" y="743" on="1"/>
        <pt x="405" y="842" on="1"/>
      </contour>
    </TTGlyph>
    <TTGlyph name="Edieresis" xMin="42" yMin="0" xMax="544" yMax="839">
      <contour>
        <pt x="424" y="0" on="1"/>
        <pt x="42" y="0" on="1"/>
        <pt x="182" y="660" on="1"/>
        <pt x="544" y="660" on="1"/>
        <pt x="529" y="590" on="1"/>
        <pt x="242" y="590" on="1"/>
        <pt x="199" y="385" on="1"/>
        <pt x="419" y="385" on="1"/>
        <pt x="404" y="315" on="1"/>
        <pt x="184" y="315" on="1"/>
        <pt x="132" y="70" on="1"/>
        <pt x="439" y="70" on="1"/>
      </contour>
      <contour>
        <pt x="269" y="786" on="1"/>
        <pt x="269" y="806" on="0"/>
        <pt x="300" y="839" on="0"/>
        <pt x="320" y="839" on="1"/>
        <pt x="334" y="839" on="0"/>
        <pt x="354" y="817" on="0"/>
        <pt x="354" y="801" on="1"/>
        <pt x="354" y="780" on="0"/>
        <pt x="320" y="750" on="0"/>
        <pt x="301" y="750" on="1"/>
        <pt x="286" y="750" on="0"/>
        <pt x="269" y="770" on="0"/>
      </contour>
      <contour>
        <pt x="426" y="786" on="1"/>
        <pt x="426" y="806" on="0"/>
        <pt x="457" y="839" on="0"/>
        <pt x="477" y="839" on="1"/>
        <pt x="491" y="839" on="0"/>
        <pt x="511" y="817" on="0"/>
        <pt x="511" y="801" on="1"/>
        <pt x="511" y="780" on="0"/>
        <pt x="477" y="750" on="0"/>
        <pt x="458" y="750" on="1"/>
        <pt x="443" y="750" on="0"/>
        <pt x="426" y="770" on="0"/>
      </contour>
    </TTGlyph>
    <TTGlyph name="Egrave" xMin="42" yMin="0" xMax="544" yMax="848">
      <contour>
        <pt x="424" y="0" on="1"/>
        <pt x="42" y="0" on="1"/>
        <pt x="182" y="660" on="1"/>
        <pt x="544" y="660" on="1"/>
        <pt x="529" y="590" on="1"/>
        <pt x="242" y="590" on="1"/>
        <pt x="199" y="385" on="1"/>
        <pt x="419" y="385" on="1"/>
        <pt x="404" y="315" on="1"/>
        <pt x="184" y="315" on="1"/>
        <pt x="132" y="70" on="1"/>
        <pt x="439" y="70" on="1"/>
      </contour>
      <contour>
        <pt x="469" y="718" on="1"/>
        <pt x="284" y="795" on="1"/>
        <pt x="283" y="797" on="0"/>
        <pt x="283" y="804" on="0"/>
        <pt x="283" y="806" on="1"/>
        <pt x="283" y="823" on="0"/>
        <pt x="306" y="847" on="0"/>
        <pt x="326" y="848" on="1"/>
        <pt x="486" y="748" on="1"/>
        <pt x="488" y="741" on="1"/>
        <pt x="477" y="721" on="1"/>
      </contour>
    </TTGlyph>
    <TTGlyph name="Eth" xMin="29" yMin="-12" xMax="675" yMax="666">
      <contour>
        <pt x="29" y="326" on="1"/>
        <pt x="38" y="370" on="1"/>
        <pt x="125" y="370" on="1"/>
        <pt x="187" y="660" on="1"/>
        <pt x="192" y="661" on="1"/>
        <pt x="215" y="664" on="0"/>
        <pt x="268" y="666" on="0"/>
        <pt x="296" y="666" on="1"/>
        <pt x="355" y="666" on="0"/>
        <pt x="452" y="662" on="0"/>
        <pt x="531" y="647" on="0"/>
        <pt x="594" y="616" on="0"/>
        <pt x="619" y="590" on="1"/>
        <pt x="648" y="558" on="0"/>
        <pt x="675" y="458" on="0"/>
        <pt x="675" y="405" on="1"/>
        <pt x="675" y="326" on="0"/>
        <pt x="623" y="176" on="0"/>
        <pt x="521" y="59" on="0"/>
        <pt x="371" y="-12" on="0"/>
        <pt x="273" y="-12" on="1"/>
        <pt x="202" y="-12" on="0"/>
        <pt x="91" y="-5" on="0"/>
        <pt x="47" y="0" on="1"/>
        <pt x="116" y="326" on="1"/>
      </contour>
      <contour>
        <pt x="375" y="370" on="1"/>
        <pt x="366" y="326" on="1"/>
        <pt x="191" y="326" on="1"/>
        <pt x="134" y="60" on="1"/>
        <pt x="197" y="54" on="0"/>
        <pt x="284" y="54" on="1"/>
        <pt x="361" y="54" on="0"/>
        <pt x="477" y="106" on="0"/>
        <pt x="554" y="200" on="0"/>
        <pt x="593" y="330" on="0"/>
        <pt x="593" y="408" on="1"/>
        <pt x="593" y="451" on="0"/>
        <pt x="572" y="521" on="0"/>
        <pt x="525" y="571" on="0"/>
        <pt x="451" y="599" on="0"/>
        <pt x="398" y="599" on="1"/>
        <pt x="358" y="599" on="0"/>
        <pt x="280" y="598" on="0"/>
        <pt x="248" y="596" on="1"/>
        <pt x="200" y="370" on="1"/>
      </contour>
    </TTGlyph>
    <TTGlyph name="Euro" xMin="35" yMin="-12" xMax="636" yMax="665">
      <contour>
        <pt x="145" y="412" on="1"/>
        <pt x="165" y="466" on="0"/>
        <pt x="228" y="558" on="0"/>
        <pt x="312" y="626" on="0"/>
        <pt x="414" y="665" on="0"/>
        <pt x="474" y="665" on="1"/>
        <pt x="519" y="665" on="0"/>
        <pt x="608" y="642" on="0"/>
        <pt x="636" y="622" on="1"/>
        <pt x="600" y="550" on="1"/>
        <pt x="577" y="571" on="0"/>
        <pt x="505" y="599" on="0"/>
        <pt x="454" y="599" on="1"/>
        <pt x="401" y="599" on="0"/>
        <pt x="323" y="567" on="0"/>
        <pt x="267" y="515" on="0"/>
        <pt x="231" y="448" on="0"/>
        <pt x="220" y="412" on="1"/>
        <pt x="487" y="412" on="1"/>
        <pt x="476" y="360" on="1"/>
        <pt x="207" y="360" on="1"/>
        <pt x="204" y="346" on="0"/>
        <pt x="201" y="319" on="0"/>
        <pt x="200" y="307" on="1"/>
        <pt x="465" y="307" on="1"/>
        <pt x="454" y="255" on="1"/>
        <pt x="197" y="255" on="1"/>
        <pt x="197" y="238" on="1"/>
        <pt x="197" y="148" on="0"/>
        <pt x="267" y="54" on="0"/>
        <pt x="336" y="54" on="1"/>
        <pt x="390" y="54" on="0"/>
        <pt x="487" y="90" on="0"/>
        <pt x="520" y="116" on="1"/>
        <pt x="526" y="49" on="1"/>
        <pt x="485" y="25" on="0"/>
        <pt x="381" y="-12" on="0"/>
        <pt x="319" y="-12" on="1"/>
        <pt x="265" y="-12" on="0"/>
        <pt x="188" y="27" on="0"/>
        <pt x="138" y="95" on="0"/>
        <pt x="114" y="185" on="0"/>
        <pt x="114" y="236" on="1"/>
        <pt x="114" y="255" on="1"/>
        <pt x="35" y="255" on="1"/>
        <pt x="46" y="307" on="1"/>
        <pt x="119" y="307" on="1"/>
        <pt x="122" y="335" on="0"/>
        <pt x="129" y="360" on="1"/>
        <pt x="57" y="360" on="1"/>
        <pt x="68" y="412" on="1"/>
      </contour>
    </TTGlyph>
    <TTGlyph name="F" xMin="42" yMin="0" xMax="539" yMax="660">
      <contour>
        <pt x="393" y="315" on="1"/>
        <pt x="184" y="315" on="1"/>
        <pt x="117" y="0" on="1"/>
        <pt x="42" y="0" on="1"/>
        <pt x="182" y="660" on="1"/>
        <pt x="539" y="660" on="1"/>
        <pt x="524" y="590" on="1"/>
        <pt x="242" y="590" on="1"/>
        <pt x="199" y="385" on="1"/>
        <pt x="408" y="385" on="1"/>
      </contour>
    </TTGlyph>
    <TTGlyph name="G" xMin="60" yMin="-12" xMax="675" yMax="665">
      <contour>
        <pt x="563" y="55" on="1"/>
        <pt x="512" y="25" on="0"/>
        <pt x="389" y="-12" on="0"/>
        <pt x="318" y="-12" on="1"/>
        <pt x="250" y="-12" on="0"/>
        <pt x="153" y="29" on="0"/>
        <pt x="90" y="100" on="0"/>
        <pt x="60" y="195" on="0"/>
        <pt x="60" y="248" on="1"/>
        <pt x="60" y="329" on="0"/>
        <pt x="116" y="480" on="0"/>
        <pt x="223" y="595" on="0"/>
        <pt x="376" y="665" on="0"/>
        <pt x="473" y="665" on="1"/>
        <pt x="531" y="665" on="0"/>
        <pt x="636" y="642" on="0"/>
        <pt x="675" y="622" on="1"/>
        <pt x="638" y="550" on="1"/>
        <pt x="611" y="571" on="0"/>
        <pt x="516" y="599" on="0"/>
        <pt x="453" y="599" on="1"/>
        <pt x="361" y="599" on="0"/>
        <pt x="241" y="537" on="0"/>
        <pt x="171" y="437" on="0"/>
        <pt x="143" y="313" on="0"/>
        <pt x="143" y="252" on="1"/>
        <pt x="143" y="155" on="0"/>
        <pt x="239" y="54" on="0"/>
        <pt x="335" y="54" on="1"/>
        <pt x="379" y="54" on="0"/>
        <pt x="460" y="72" on="0"/>
        <pt x="495" y="86" on="1"/>
        <pt x="534" y="272" on="1"/>
        <pt x="609" y="272" on="1"/>
      </contour>
    </TTGlyph>
    <TTGlyph name="H" xMin="42" yMin="0" xMax="688" yMax="660">
      <contour>
        <pt x="196" y="375" on="1"/>
        <pt x="552" y="375" on="1"/>
        <pt x="613" y="660" on="1"/>
        <pt x="688" y="660" on="1"/>
        <pt x="548" y="0" on="1"/>
        <pt x="473" y="0" on="1"/>
        <pt x="537" y="305" on="1"/>
        <pt x="181" y="305" on="1"/>
        <pt x="117" y="0" on="1"/>
        <pt x="42" y="0" on="1"/>
        <pt x="182" y="660" on="1"/>
        <pt x="257" y="660" on="1"/>
      </contour>
    </TTGlyph>
    <TTGlyph name="I" xMin="42" yMin="0" xMax="257" yMax="660">
      <contour>
        <pt x="117" y="0" on="1"/>
        <pt x="42" y="0" on="1"/>
        <pt x="182" y="660" on="1"/>
        <pt x="257" y="660" on="1"/>
      </contour>
    </TTGlyph>
    <TTGlyph name="IJ" xMin="42" yMin="-156" xMax="532" yMax="660">
      <contour>
        <pt x="117" y="0" on="1"/>
        <pt x="42" y="0" on="1"/>
        <pt x="182" y="660" on="1"/>
        <pt x="257" y="660" on="1"/>
      </contour>
      <contour>
        <pt x="413" y="101" on="1"/>
        <pt x="402" y="48" on="0"/>
        <pt x="361" y="-45" on="0"/>
        <pt x="303" y="-115" on="0"/>
        <pt x="229" y="-156" on="0"/>
        <pt x="184" y="-156" on="1"/>
        <pt x="182" y="-101" on="1"/>
        <pt x="221" y="-101" on="0"/>
        <pt x="275" y="-63" on="0"/>
        <pt x="310" y="-4" on="0"/>
        <pt x="331" y="68" on="0"/>
        <pt x="338" y="102" on="1"/>
        <pt x="457" y="660" on="1"/>
        <pt x="532" y="660" on="1"/>
      </contour>
    </TTGlyph>
    <TTGlyph name="Iacute" xMin="42" yMin="0" xMax="371" yMax="848">
      <contour>
        <pt x="137" y="721" on="1"/>
        <pt x="136" y="741" on="1"/>
        <pt x="140" y="748" on="1"/>
        <pt x="342" y="848" on="1"/>
        <pt x="357" y="847" on="0"/>
        <pt x="371" y="832" on="0"/>
        <pt x="371" y="821" on="1"/>
        <pt x="371" y="811" on="0"/>
        <pt x="365" y="800" on="0"/>
        <pt x="362" y="795" on="1"/>
        <pt x="145" y="718" on="1"/>
      </contour>
      <contour>
        <pt x="117" y="0" on="1"/>
        <pt x="42" y="0" on="1"/>
        <pt x="182" y="660" on="1"/>
        <pt x="257" y="660" on="1"/>
      </contour>
    </TTGlyph>
    <TTGlyph name="Icircumflex" xMin="42" yMin="0" xMax="351" yMax="842">
      <contour>
        <pt x="260" y="842" on="1"/>
        <pt x="350" y="743" on="1"/>
        <pt x="351" y="736" on="1"/>
        <pt x="341" y="716" on="1"/>
        <pt x="333" y="713" on="1"/>
        <pt x="243" y="775" on="1"/>
        <pt x="126" y="713" on="1"/>
        <pt x="118" y="716" on="1"/>
        <pt x="117" y="736" on="1"/>
        <pt x="122" y="743" on="1"/>
        <pt x="253" y="842" on="1"/>
      </contour>
      <contour>
        <pt x="117" y="0" on="1"/>
        <pt x="42" y="0" on="1"/>
        <pt x="182" y="660" on="1"/>
        <pt x="257" y="660" on="1"/>
      </contour>
    </TTGlyph>
    <TTGlyph name="Idieresis" xMin="42" yMin="0" xMax="372" yMax="839">
      <contour>
        <pt x="130" y="786" on="1"/>
        <pt x="130" y="806" on="0"/>
        <pt x="161" y="839" on="0"/>
        <pt x="181" y="839" on="1"/>
        <pt x="195" y="839" on="0"/>
        <pt x="215" y="817" on="0"/>
        <pt x="215" y="801" on="1"/>
        <pt x="215" y="780" on="0"/>
        <pt x="181" y="750" on="0"/>
        <pt x="162" y="750" on="1"/>
        <pt x="148" y="750" on="0"/>
        <pt x="130" y="770" on="0"/>
      </contour>
      <contour>
        <pt x="287" y="786" on="1"/>
        <pt x="287" y="806" on="0"/>
        <pt x="318" y="839" on="0"/>
        <pt x="338" y="839" on="1"/>
        <pt x="352" y="839" on="0"/>
        <pt x="372" y="817" on="0"/>
        <pt x="372" y="801" on="1"/>
        <pt x="372" y="780" on="0"/>
        <pt x="338" y="750" on="0"/>
        <pt x="319" y="750" on="1"/>
        <pt x="304" y="750" on="0"/>
        <pt x="287" y="770" on="0"/>
      </contour>
      <contour>
        <pt x="117" y="0" on="1"/>
        <pt x="42" y="0" on="1"/>
        <pt x="182" y="660" on="1"/>
        <pt x="257" y="660" on="1"/>
      </contour>
    </TTGlyph>
    <TTGlyph name="Igrave" xMin="42" yMin="0" xMax="335" yMax="848">
      <contour>
        <pt x="317" y="718" on="1"/>
        <pt x="131" y="795" on="1"/>
        <pt x="130" y="797" on="0"/>
        <pt x="130" y="804" on="0"/>
        <pt x="130" y="806" on="1"/>
        <pt x="130" y="823" on="0"/>
        <pt x="153" y="847" on="0"/>
        <pt x="173" y="848" on="1"/>
        <pt x="333" y="748" on="1"/>
        <pt x="335" y="741" on="1"/>
        <pt x="324" y="721" on="1"/>
      </contour>
      <contour>
        <pt x="117" y="0" on="1"/>
        <pt x="42" y="0" on="1"/>
        <pt x="182" y="660" on="1"/>
        <pt x="257" y="660" on="1"/>
      </contour>
    </TTGlyph>
    <TTGlyph name="J" xMin="-93" yMin="-156" xMax="257" yMax="660">
      <contour>
        <pt x="138" y="101" on="1"/>
        <pt x="127" y="48" on="0"/>
        <pt x="86" y="-45" on="0"/>
        <pt x="28" y="-115" on="0"/>
        <pt x="-46" y="-156" on="0"/>
        <pt x="-91" y="-156" on="1"/>
        <pt x="-93" y="-101" on="1"/>
        <pt x="-54" y="-101" on="0"/>
        <pt x="0" y="-63" on="0"/>
        <pt x="35" y="-4" on="0"/>
        <pt x="56" y="68" on="0"/>
        <pt x="63" y="102" on="1"/>
        <pt x="182" y="660" on="1"/>
        <pt x="257" y="660" on="1"/>
      </contour>
    </TTGlyph>
    <TTGlyph name="K" xMin="42" yMin="0" xMax="636" yMax="660">
      <contour>
        <pt x="191" y="348" on="1"/>
        <pt x="223" y="367" on="0"/>
        <pt x="276" y="405" on="0"/>
        <pt x="311" y="433" on="1"/>
        <pt x="371" y="481" on="0"/>
        <pt x="496" y="600" on="0"/>
        <pt x="550" y="660" on="1"/>
        <pt x="636" y="660" on="1"/>
        <pt x="574" y="590" on="0"/>
        <pt x="405" y="434" on="0"/>
        <pt x="306" y="353" on="1"/>
        <pt x="537" y="0" on="1"/>
        <pt x="444" y="0" on="1"/>
        <pt x="241" y="306" on="1"/>
        <pt x="172" y="261" on="1"/>
        <pt x="117" y="0" on="1"/>
        <pt x="42" y="0" on="1"/>
        <pt x="182" y="660" on="1"/>
        <pt x="257" y="660" on="1"/>
      </contour>
    </TTGlyph>
    <TTGlyph name="L" xMin="42" yMin="0" xMax="427" yMax="660">
      <contour>
        <pt x="412" y="0" on="1"/>
        <pt x="42" y="0" on="1"/>
        <pt x="182" y="660" on="1"/>
        <pt x="257" y="660" on="1"/>
        <pt x="132" y="70" on="1"/>
        <pt x="427" y="70" on="1"/>
      </contour>
    </TTGlyph>
    <TTGlyph name="M" xMin="42" yMin="0" xMax="827" yMax="660">
      <contour>
        <pt x="387" y="94" on="1"/>
        <pt x="731" y="660" on="1"/>
        <pt x="827" y="660" on="1"/>
        <pt x="687" y="0" on="1"/>
        <pt x="612" y="0" on="1"/>
        <pt x="718" y="499" on="1"/>
        <pt x="410" y="0" on="1"/>
        <pt x="320" y="0" on="1"/>
        <pt x="223" y="500" on="1"/>
        <pt x="117" y="0" on="1"/>
        <pt x="42" y="0" on="1"/>
        <pt x="182" y="660" on="1"/>
        <pt x="283" y="660" on="1"/>
      </contour>
    </TTGlyph>
    <TTGlyph name="N" xMin="42" yMin="0" xMax="688" yMax="660">
      <contour>
        <pt x="231" y="540" on="1"/>
        <pt x="117" y="0" on="1"/>
        <pt x="42" y="0" on="1"/>
        <pt x="182" y="660" on="1"/>
        <pt x="273" y="660" on="1"/>
        <pt x="498" y="119" on="1"/>
        <pt x="613" y="660" on="1"/>
        <pt x="688" y="660" on="1"/>
        <pt x="548" y="0" on="1"/>
        <pt x="457" y="0" on="1"/>
      </contour>
    </TTGlyph>
    <TTGlyph name="Ntilde" xMin="42" yMin="0" xMax="688" yMax="840">
      <contour>
        <pt x="498" y="117" on="1"/>
        <pt x="613" y="660" on="1"/>
        <pt x="688" y="660" on="1"/>
        <pt x="548" y="0" on="1"/>
        <pt x="463" y="0" on="1"/>
        <pt x="232" y="542" on="1"/>
        <pt x="117" y="0" on="1"/>
        <pt x="42" y="0" on="1"/>
        <pt x="182" y="660" on="1"/>
        <pt x="267" y="660" on="1"/>
      </contour>
      <contour>
        <pt x="614" y="832" on="1"/>
        <pt x="608" y="818" on="0"/>
        <pt x="589" y="791" on="0"/>
        <pt x="563" y="769" on="0"/>
        <pt x="530" y="755" on="0"/>
        <pt x="509" y="755" on="1"/>
        <pt x="469" y="755" on="0"/>
        <pt x="389" y="769" on="0"/>
        <pt x="357" y="769" on="1"/>
        <pt x="332" y="769" on="0"/>
        <pt x="310" y="756" on="0"/>
        <pt x="297" y="744" on="1"/>
        <pt x="286" y="752" on="1"/>
        <pt x="293" y="765" on="0"/>
        <pt x="312" y="793" on="0"/>
        <pt x="338" y="814" on="0"/>
        <pt x="372" y="828" on="0"/>
        <pt x="393" y="828" on="1"/>
        <pt x="418" y="828" on="0"/>
        <pt x="454" y="824" on="0"/>
        <pt x="485" y="818" on="0"/>
        <pt x="514" y="814" on="0"/>
        <pt x="533" y="814" on="1"/>
        <pt x="550" y="814" on="0"/>
        <pt x="586" y="822" on="0"/>
        <pt x="604" y="840" on="1"/>
      </contour>
    </TTGlyph>
    <TTGlyph name="O" xMin="60" yMin="-12" xMax="725" yMax="665">
      <contour>
        <pt x="138" y="246" on="1"/>
        <pt x="138" y="156" on="0"/>
        <pt x="241" y="54" on="0"/>
        <pt x="338" y="54" on="1"/>
        <pt x="416" y="54" on="0"/>
        <pt x="533" y="116" on="0"/>
        <pt x="610" y="215" on="0"/>
        <pt x="648" y="341" on="0"/>
        <pt x="648" y="405" on="1"/>
        <pt x="648" y="448" on="0"/>
        <pt x="623" y="519" on="0"/>
        <pt x="572" y="570" on="0"/>
        <pt x="493" y="599" on="0"/>
        <pt x="439" y="599" on="1"/>
        <pt x="359" y="599" on="0"/>
        <pt x="245" y="537" on="0"/>
        <pt x="172" y="437" on="0"/>
        <pt x="138" y="310" on="0"/>
      </contour>
      <contour>
        <pt x="465" y="665" on="1"/>
        <pt x="531" y="665" on="0"/>
        <pt x="628" y="623" on="0"/>
        <pt x="693" y="550" on="0"/>
        <pt x="725" y="453" on="0"/>
        <pt x="725" y="398" on="1"/>
        <pt x="725" y="323" on="0"/>
        <pt x="669" y="177" on="0"/>
        <pt x="562" y="60" on="0"/>
        <pt x="410" y="-12" on="0"/>
        <pt x="314" y="-12" on="1"/>
        <pt x="248" y="-12" on="0"/>
        <pt x="152" y="29" on="0"/>
        <pt x="90" y="100" on="0"/>
        <pt x="60" y="195" on="0"/>
        <pt x="60" y="249" on="1"/>
        <pt x="60" y="331" on="0"/>
        <pt x="118" y="481" on="0"/>
        <pt x="225" y="596" on="0"/>
        <pt x="374" y="665" on="0"/>
      </contour>
    </TTGlyph>
    <TTGlyph name="OE" xMin="60" yMin="-12" xMax="879" yMax="665">
      <contour>
        <pt x="758" y="0" on="1"/>
        <pt x="412" y="0" on="1"/>
        <pt x="367" y="-12" on="0"/>
        <pt x="314" y="-12" on="1"/>
        <pt x="248" y="-12" on="0"/>
        <pt x="152" y="29" on="0"/>
        <pt x="90" y="100" on="0"/>
        <pt x="60" y="195" on="0"/>
        <pt x="60" y="249" on="1"/>
        <pt x="60" y="331" on="0"/>
        <pt x="118" y="481" on="0"/>
        <pt x="225" y="596" on="0"/>
        <pt x="374" y="665" on="0"/>
        <pt x="465" y="665" on="1"/>
        <pt x="484" y="665" on="0"/>
        <pt x="519" y="662" on="0"/>
        <pt x="536" y="660" on="1"/>
        <pt x="879" y="660" on="1"/>
        <pt x="864" y="590" on="1"/>
        <pt x="596" y="590" on="1"/>
        <pt x="552" y="385" on="1"/>
        <pt x="753" y="385" on="1"/>
        <pt x="738" y="315" on="1"/>
        <pt x="537" y="315" on="1"/>
        <pt x="485" y="70" on="1"/>
        <pt x="773" y="70" on="1"/>
      </contour>
      <contour>
        <pt x="330" y="54" on="1"/>
        <pt x="373" y="54" on="0"/>
        <pt x="409" y="63" on="1"/>
        <pt x="521" y="590" on="1"/>
        <pt x="488" y="599" on="0"/>
        <pt x="448" y="599" on="1"/>
        <pt x="362" y="599" on="0"/>
        <pt x="246" y="539" on="0"/>
        <pt x="175" y="442" on="0"/>
        <pt x="144" y="317" on="0"/>
        <pt x="144" y="253" on="1"/>
        <pt x="144" y="156" on="0"/>
        <pt x="238" y="54" on="0"/>
      </contour>
    </TTGlyph>
    <TTGlyph name="Oacute" xMin="60" yMin="-12" xMax="725" yMax="848">
      <contour>
        <pt x="411" y="721" on="1"/>
        <pt x="410" y="741" on="1"/>
        <pt x="414" y="748" on="1"/>
        <pt x="616" y="848" on="1"/>
        <pt x="630" y="847" on="0"/>
        <pt x="644" y="832" on="0"/>
        <pt x="644" y="821" on="1"/>
        <pt x="644" y="811" on="0"/>
        <pt x="636" y="795" on="1"/>
        <pt x="418" y="718" on="1"/>
      </contour>
      <contour>
        <pt x="465" y="665" on="1"/>
        <pt x="531" y="665" on="0"/>
        <pt x="628" y="623" on="0"/>
        <pt x="693" y="550" on="0"/>
        <pt x="725" y="453" on="0"/>
        <pt x="725" y="398" on="1"/>
        <pt x="725" y="323" on="0"/>
        <pt x="669" y="177" on="0"/>
        <pt x="562" y="60" on="0"/>
        <pt x="410" y="-12" on="0"/>
        <pt x="314" y="-12" on="1"/>
        <pt x="248" y="-12" on="0"/>
        <pt x="152" y="29" on="0"/>
        <pt x="90" y="100" on="0"/>
        <pt x="60" y="195" on="0"/>
        <pt x="60" y="249" on="1"/>
        <pt x="60" y="331" on="0"/>
        <pt x="118" y="481" on="0"/>
        <pt x="225" y="596" on="0"/>
        <pt x="374" y="665" on="0"/>
      </contour>
      <contour>
        <pt x="138" y="246" on="1"/>
        <pt x="138" y="156" on="0"/>
        <pt x="241" y="54" on="0"/>
        <pt x="338" y="54" on="1"/>
        <pt x="416" y="54" on="0"/>
        <pt x="533" y="116" on="0"/>
        <pt x="610" y="215" on="0"/>
        <pt x="648" y="341" on="0"/>
        <pt x="648" y="405" on="1"/>
        <pt x="648" y="448" on="0"/>
        <pt x="623" y="519" on="0"/>
        <pt x="572" y="570" on="0"/>
        <pt x="493" y="599" on="0"/>
        <pt x="439" y="599" on="1"/>
        <pt x="359" y="599" on="0"/>
        <pt x="245" y="537" on="0"/>
        <pt x="172" y="437" on="0"/>
        <pt x="138" y="310" on="0"/>
      </contour>
    </TTGlyph>
    <TTGlyph name="Ocircumflex" xMin="60" yMin="-12" xMax="725" yMax="842">
      <contour>
        <pt x="516" y="842" on="1"/>
        <pt x="605" y="743" on="1"/>
        <pt x="607" y="736" on="1"/>
        <pt x="597" y="716" on="1"/>
        <pt x="589" y="713" on="1"/>
        <pt x="498" y="775" on="1"/>
        <pt x="381" y="713" on="1"/>
        <pt x="375" y="716" on="1"/>
        <pt x="373" y="736" on="1"/>
        <pt x="377" y="743" on="1"/>
        <pt x="508" y="842" on="1"/>
      </contour>
      <contour>
        <pt x="465" y="665" on="1"/>
        <pt x="531" y="665" on="0"/>
        <pt x="628" y="623" on="0"/>
        <pt x="693" y="550" on="0"/>
        <pt x="725" y="453" on="0"/>
        <pt x="725" y="398" on="1"/>
        <pt x="725" y="323" on="0"/>
        <pt x="669" y="177" on="0"/>
        <pt x="562" y="60" on="0"/>
        <pt x="410" y="-12" on="0"/>
        <pt x="314" y="-12" on="1"/>
        <pt x="248" y="-12" on="0"/>
        <pt x="152" y="29" on="0"/>
        <pt x="90" y="100" on="0"/>
        <pt x="60" y="195" on="0"/>
        <pt x="60" y="249" on="1"/>
        <pt x="60" y="331" on="0"/>
        <pt x="118" y="481" on="0"/>
        <pt x="225" y="596" on="0"/>
        <pt x="374" y="665" on="0"/>
      </contour>
      <contour>
        <pt x="138" y="246" on="1"/>
        <pt x="138" y="156" on="0"/>
        <pt x="241" y="54" on="0"/>
        <pt x="338" y="54" on="1"/>
        <pt x="416" y="54" on="0"/>
        <pt x="533" y="116" on="0"/>
        <pt x="610" y="215" on="0"/>
        <pt x="648" y="341" on="0"/>
        <pt x="648" y="405" on="1"/>
        <pt x="648" y="448" on="0"/>
        <pt x="623" y="519" on="0"/>
        <pt x="572" y="570" on="0"/>
        <pt x="493" y="599" on="0"/>
        <pt x="439" y="599" on="1"/>
        <pt x="359" y="599" on="0"/>
        <pt x="245" y="537" on="0"/>
        <pt x="172" y="437" on="0"/>
        <pt x="138" y="310" on="0"/>
      </contour>
    </TTGlyph>
    <TTGlyph name="Odieresis" xMin="60" yMin="-12" xMax="725" yMax="839">
      <contour>
        <pt x="372" y="786" on="1"/>
        <pt x="372" y="806" on="0"/>
        <pt x="404" y="839" on="0"/>
        <pt x="424" y="839" on="1"/>
        <pt x="438" y="839" on="0"/>
        <pt x="457" y="817" on="0"/>
        <pt x="457" y="801" on="1"/>
        <pt x="457" y="780" on="0"/>
        <pt x="424" y="750" on="0"/>
        <pt x="405" y="750" on="1"/>
        <pt x="390" y="750" on="0"/>
        <pt x="372" y="770" on="0"/>
      </contour>
      <contour>
        <pt x="529" y="786" on="1"/>
        <pt x="529" y="806" on="0"/>
        <pt x="561" y="839" on="0"/>
        <pt x="581" y="839" on="1"/>
        <pt x="595" y="839" on="0"/>
        <pt x="614" y="817" on="0"/>
        <pt x="614" y="801" on="1"/>
        <pt x="614" y="780" on="0"/>
        <pt x="581" y="750" on="0"/>
        <pt x="562" y="750" on="1"/>
        <pt x="547" y="750" on="0"/>
        <pt x="529" y="770" on="0"/>
      </contour>
      <contour>
        <pt x="465" y="665" on="1"/>
        <pt x="531" y="665" on="0"/>
        <pt x="628" y="623" on="0"/>
        <pt x="693" y="550" on="0"/>
        <pt x="725" y="453" on="0"/>
        <pt x="725" y="398" on="1"/>
        <pt x="725" y="323" on="0"/>
        <pt x="669" y="177" on="0"/>
        <pt x="562" y="60" on="0"/>
        <pt x="410" y="-12" on="0"/>
        <pt x="314" y="-12" on="1"/>
        <pt x="248" y="-12" on="0"/>
        <pt x="152" y="29" on="0"/>
        <pt x="90" y="100" on="0"/>
        <pt x="60" y="195" on="0"/>
        <pt x="60" y="249" on="1"/>
        <pt x="60" y="331" on="0"/>
        <pt x="118" y="481" on="0"/>
        <pt x="225" y="596" on="0"/>
        <pt x="374" y="665" on="0"/>
      </contour>
      <contour>
        <pt x="138" y="246" on="1"/>
        <pt x="138" y="156" on="0"/>
        <pt x="241" y="54" on="0"/>
        <pt x="338" y="54" on="1"/>
        <pt x="416" y="54" on="0"/>
        <pt x="533" y="116" on="0"/>
        <pt x="610" y="215" on="0"/>
        <pt x="648" y="341" on="0"/>
        <pt x="648" y="405" on="1"/>
        <pt x="648" y="448" on="0"/>
        <pt x="623" y="519" on="0"/>
        <pt x="572" y="570" on="0"/>
        <pt x="493" y="599" on="0"/>
        <pt x="439" y="599" on="1"/>
        <pt x="359" y="599" on="0"/>
        <pt x="245" y="537" on="0"/>
        <pt x="172" y="437" on="0"/>
        <pt x="138" y="310" on="0"/>
      </contour>
    </TTGlyph>
    <TTGlyph name="Ograve" xMin="60" yMin="-12" xMax="725" yMax="848">
      <contour>
        <pt x="543" y="718" on="1"/>
        <pt x="358" y="795" on="1"/>
        <pt x="358" y="797" on="0"/>
        <pt x="357" y="804" on="0"/>
        <pt x="357" y="806" on="1"/>
        <pt x="357" y="823" on="0"/>
        <pt x="380" y="847" on="0"/>
        <pt x="401" y="848" on="1"/>
        <pt x="559" y="748" on="1"/>
        <pt x="561" y="741" on="1"/>
        <pt x="552" y="721" on="1"/>
      </contour>
      <contour>
        <pt x="465" y="665" on="1"/>
        <pt x="531" y="665" on="0"/>
        <pt x="628" y="623" on="0"/>
        <pt x="693" y="550" on="0"/>
        <pt x="725" y="453" on="0"/>
        <pt x="725" y="398" on="1"/>
        <pt x="725" y="323" on="0"/>
        <pt x="669" y="177" on="0"/>
        <pt x="562" y="60" on="0"/>
        <pt x="410" y="-12" on="0"/>
        <pt x="314" y="-12" on="1"/>
        <pt x="248" y="-12" on="0"/>
        <pt x="152" y="29" on="0"/>
        <pt x="90" y="100" on="0"/>
        <pt x="60" y="195" on="0"/>
        <pt x="60" y="249" on="1"/>
        <pt x="60" y="331" on="0"/>
        <pt x="118" y="481" on="0"/>
        <pt x="225" y="596" on="0"/>
        <pt x="374" y="665" on="0"/>
      </contour>
      <contour>
        <pt x="138" y="246" on="1"/>
        <pt x="138" y="156" on="0"/>
        <pt x="241" y="54" on="0"/>
        <pt x="338" y="54" on="1"/>
        <pt x="416" y="54" on="0"/>
        <pt x="533" y="116" on="0"/>
        <pt x="610" y="215" on="0"/>
        <pt x="648" y="341" on="0"/>
        <pt x="648" y="405" on="1"/>
        <pt x="648" y="448" on="0"/>
        <pt x="623" y="519" on="0"/>
        <pt x="572" y="570" on="0"/>
        <pt x="493" y="599" on="0"/>
        <pt x="439" y="599" on="1"/>
        <pt x="359" y="599" on="0"/>
        <pt x="245" y="537" on="0"/>
        <pt x="172" y="437" on="0"/>
        <pt x="138" y="310" on="0"/>
      </contour>
    </TTGlyph>
    <TTGlyph name="Oslash" xMin="4" yMin="-35" xMax="763" yMax="687">
      <contour>
        <pt x="97" y="97" on="1"/>
        <pt x="60" y="161" on="0"/>
        <pt x="60" y="249" on="1"/>
        <pt x="60" y="331" on="0"/>
        <pt x="118" y="481" on="0"/>
        <pt x="225" y="596" on="0"/>
        <pt x="374" y="665" on="0"/>
        <pt x="465" y="665" on="1"/>
        <pt x="520" y="665" on="0"/>
        <pt x="605" y="635" on="0"/>
        <pt x="637" y="608" on="1"/>
        <pt x="720" y="687" on="1"/>
        <pt x="763" y="648" on="1"/>
        <pt x="676" y="565" on="1"/>
        <pt x="700" y="530" on="0"/>
        <pt x="724" y="446" on="0"/>
        <pt x="724" y="398" on="1"/>
        <pt x="724" y="323" on="0"/>
        <pt x="668" y="177" on="0"/>
        <pt x="562" y="60" on="0"/>
        <pt x="410" y="-12" on="0"/>
        <pt x="314" y="-12" on="1"/>
        <pt x="254" y="-12" on="0"/>
        <pt x="165" y="21" on="0"/>
        <pt x="134" y="51" on="1"/>
        <pt x="43" y="-35" on="1"/>
        <pt x="4" y="8" on="1"/>
      </contour>
      <contour>
        <pt x="648" y="405" on="1"/>
        <pt x="648" y="467" on="0"/>
        <pt x="621" y="514" on="1"/>
        <pt x="190" y="105" on="1"/>
        <pt x="243" y="54" on="0"/>
        <pt x="338" y="54" on="1"/>
        <pt x="416" y="54" on="0"/>
        <pt x="533" y="116" on="0"/>
        <pt x="610" y="215" on="0"/>
        <pt x="648" y="341" on="0"/>
      </contour>
      <contour>
        <pt x="138" y="246" on="1"/>
        <pt x="138" y="192" on="0"/>
        <pt x="156" y="153" on="1"/>
        <pt x="583" y="557" on="1"/>
        <pt x="557" y="577" on="0"/>
        <pt x="487" y="599" on="0"/>
        <pt x="439" y="599" on="1"/>
        <pt x="359" y="599" on="0"/>
        <pt x="245" y="537" on="0"/>
        <pt x="172" y="437" on="0"/>
        <pt x="138" y="310" on="0"/>
      </contour>
    </TTGlyph>
    <TTGlyph name="Otilde" xMin="60" yMin="-12" xMax="725" yMax="840">
      <contour>
        <pt x="657" y="832" on="1"/>
        <pt x="651" y="818" on="0"/>
        <pt x="633" y="791" on="0"/>
        <pt x="607" y="769" on="0"/>
        <pt x="574" y="755" on="0"/>
        <pt x="553" y="755" on="1"/>
        <pt x="513" y="755" on="0"/>
        <pt x="433" y="769" on="0"/>
        <pt x="401" y="769" on="1"/>
        <pt x="376" y="769" on="0"/>
        <pt x="353" y="756" on="0"/>
        <pt x="341" y="744" on="1"/>
        <pt x="329" y="752" on="1"/>
        <pt x="336" y="765" on="0"/>
        <pt x="356" y="793" on="0"/>
        <pt x="381" y="814" on="0"/>
        <pt x="415" y="828" on="0"/>
        <pt x="436" y="828" on="1"/>
        <pt x="461" y="828" on="0"/>
        <pt x="497" y="824" on="0"/>
        <pt x="528" y="818" on="0"/>
        <pt x="557" y="814" on="0"/>
        <pt x="576" y="814" on="1"/>
        <pt x="593" y="814" on="0"/>
        <pt x="630" y="822" on="0"/>
        <pt x="647" y="840" on="1"/>
      </contour>
      <contour>
        <pt x="465" y="665" on="1"/>
        <pt x="531" y="665" on="0"/>
        <pt x="628" y="623" on="0"/>
        <pt x="693" y="550" on="0"/>
        <pt x="725" y="453" on="0"/>
        <pt x="725" y="398" on="1"/>
        <pt x="725" y="323" on="0"/>
        <pt x="669" y="177" on="0"/>
        <pt x="562" y="60" on="0"/>
        <pt x="410" y="-12" on="0"/>
        <pt x="314" y="-12" on="1"/>
        <pt x="248" y="-12" on="0"/>
        <pt x="152" y="29" on="0"/>
        <pt x="90" y="100" on="0"/>
        <pt x="60" y="195" on="0"/>
        <pt x="60" y="249" on="1"/>
        <pt x="60" y="331" on="0"/>
        <pt x="118" y="481" on="0"/>
        <pt x="225" y="596" on="0"/>
        <pt x="374" y="665" on="0"/>
      </contour>
      <contour>
        <pt x="138" y="246" on="1"/>
        <pt x="138" y="156" on="0"/>
        <pt x="241" y="54" on="0"/>
        <pt x="338" y="54" on="1"/>
        <pt x="416" y="54" on="0"/>
        <pt x="533" y="116" on="0"/>
        <pt x="610" y="215" on="0"/>
        <pt x="648" y="341" on="0"/>
        <pt x="648" y="405" on="1"/>
        <pt x="648" y="448" on="0"/>
        <pt x="623" y="519" on="0"/>
        <pt x="572" y="570" on="0"/>
        <pt x="493" y="599" on="0"/>
        <pt x="439" y="599" on="1"/>
        <pt x="359" y="599" on="0"/>
        <pt x="245" y="537" on="0"/>
        <pt x="172" y="437" on="0"/>
        <pt x="138" y="310" on="0"/>
      </contour>
    </TTGlyph>
    <TTGlyph name="P" xMin="42" yMin="0" xMax="533" yMax="665">
      <contour>
        <pt x="182" y="660" on="1"/>
        <pt x="186" y="660" on="1"/>
        <pt x="219" y="662" on="0"/>
        <pt x="297" y="665" on="0"/>
        <pt x="332" y="665" on="1"/>
        <pt x="426" y="665" on="0"/>
        <pt x="533" y="578" on="0"/>
        <pt x="533" y="497" on="1"/>
        <pt x="533" y="449" on="0"/>
        <pt x="497" y="359" on="0"/>
        <pt x="427" y="290" on="0"/>
        <pt x="323" y="248" on="0"/>
        <pt x="255" y="248" on="1"/>
        <pt x="207" y="248" on="0"/>
        <pt x="170" y="251" on="1"/>
        <pt x="117" y="0" on="1"/>
        <pt x="42" y="0" on="1"/>
      </contour>
      <contour>
        <pt x="324" y="599" on="1"/>
        <pt x="303" y="599" on="0"/>
        <pt x="262" y="598" on="0"/>
        <pt x="243" y="597" on="1"/>
        <pt x="184" y="317" on="1"/>
        <pt x="220" y="314" on="0"/>
        <pt x="266" y="314" on="1"/>
        <pt x="358" y="314" on="0"/>
        <pt x="451" y="413" on="0"/>
        <pt x="451" y="495" on="1"/>
        <pt x="451" y="542" on="0"/>
        <pt x="393" y="599" on="0"/>
      </contour>
    </TTGlyph>
    <TTGlyph name="Q" xMin="61" yMin="-148" xMax="726" yMax="665">
      <contour>
        <pt x="466" y="665" on="1"/>
        <pt x="532" y="665" on="0"/>
        <pt x="629" y="623" on="0"/>
        <pt x="694" y="550" on="0"/>
        <pt x="726" y="453" on="0"/>
        <pt x="726" y="398" on="1"/>
        <pt x="726" y="325" on="0"/>
        <pt x="672" y="182" on="0"/>
        <pt x="572" y="67" on="0"/>
        <pt x="426" y="-7" on="0"/>
        <pt x="335" y="-11" on="1"/>
        <pt x="369" y="-15" on="0"/>
        <pt x="431" y="-40" on="0"/>
        <pt x="494" y="-66" on="0"/>
        <pt x="559" y="-87" on="0"/>
        <pt x="597" y="-87" on="1"/>
        <pt x="636" y="-87" on="0"/>
        <pt x="686" y="-68" on="1"/>
        <pt x="653" y="-132" on="1"/>
        <pt x="633" y="-142" on="0"/>
        <pt x="593" y="-148" on="0"/>
        <pt x="576" y="-148" on="1"/>
        <pt x="534" y="-148" on="0"/>
        <pt x="460" y="-120" on="0"/>
        <pt x="392" y="-87" on="0"/>
        <pt x="327" y="-59" on="0"/>
        <pt x="294" y="-59" on="1"/>
        <pt x="270" y="-59" on="0"/>
        <pt x="198" y="-77" on="0"/>
        <pt x="162" y="-100" on="1"/>
        <pt x="158" y="-53" on="1"/>
        <pt x="190" y="-33" on="0"/>
        <pt x="256" y="-13" on="0"/>
        <pt x="287" y="-11" on="1"/>
        <pt x="228" y="-7" on="0"/>
        <pt x="143" y="38" on="0"/>
        <pt x="88" y="108" on="0"/>
        <pt x="61" y="198" on="0"/>
        <pt x="61" y="249" on="1"/>
        <pt x="61" y="331" on="0"/>
        <pt x="119" y="481" on="0"/>
        <pt x="226" y="596" on="0"/>
        <pt x="375" y="665" on="0"/>
      </contour>
      <contour>
        <pt x="138" y="246" on="1"/>
        <pt x="138" y="156" on="0"/>
        <pt x="241" y="54" on="0"/>
        <pt x="338" y="54" on="1"/>
        <pt x="416" y="54" on="0"/>
        <pt x="533" y="116" on="0"/>
        <pt x="610" y="215" on="0"/>
        <pt x="648" y="341" on="0"/>
        <pt x="648" y="405" on="1"/>
        <pt x="648" y="448" on="0"/>
        <pt x="623" y="519" on="0"/>
        <pt x="572" y="570" on="0"/>
        <pt x="493" y="599" on="0"/>
        <pt x="439" y="599" on="1"/>
        <pt x="359" y="599" on="0"/>
        <pt x="245" y="537" on="0"/>
        <pt x="172" y="437" on="0"/>
        <pt x="138" y="310" on="0"/>
      </contour>
    </TTGlyph>
    <TTGlyph name="R" xMin="42" yMin="0" xMax="537" yMax="665">
      <contour>
        <pt x="182" y="660" on="1"/>
        <pt x="186" y="660" on="1"/>
        <pt x="219" y="662" on="0"/>
        <pt x="297" y="665" on="0"/>
        <pt x="332" y="665" on="1"/>
        <pt x="427" y="665" on="0"/>
        <pt x="537" y="585" on="0"/>
        <pt x="537" y="510" on="1"/>
        <pt x="537" y="474" on="0"/>
        <pt x="513" y="404" on="0"/>
        <pt x="465" y="346" on="0"/>
        <pt x="393" y="302" on="0"/>
        <pt x="346" y="291" on="1"/>
        <pt x="537" y="0" on="1"/>
        <pt x="444" y="0" on="1"/>
        <pt x="257" y="282" on="1"/>
        <pt x="213" y="282" on="0"/>
        <pt x="177" y="285" on="1"/>
        <pt x="117" y="0" on="1"/>
        <pt x="42" y="0" on="1"/>
      </contour>
      <contour>
        <pt x="324" y="599" on="1"/>
        <pt x="303" y="599" on="0"/>
        <pt x="262" y="598" on="0"/>
        <pt x="243" y="597" on="1"/>
        <pt x="191" y="350" on="1"/>
        <pt x="209" y="348" on="0"/>
        <pt x="250" y="348" on="0"/>
        <pt x="273" y="348" on="1"/>
        <pt x="363" y="348" on="0"/>
        <pt x="454" y="436" on="0"/>
        <pt x="454" y="508" on="1"/>
        <pt x="454" y="548" on="0"/>
        <pt x="395" y="599" on="0"/>
      </contour>
    </TTGlyph>
    <TTGlyph name="S" xMin="3" yMin="-12" xMax="545" yMax="665">
      <contour>
        <pt x="187" y="484" on="1"/>
        <pt x="187" y="464" on="0"/>
        <pt x="205" y="436" on="0"/>
        <pt x="240" y="413" on="0"/>
        <pt x="294" y="392" on="0"/>
        <pt x="330" y="379" on="1"/>
        <pt x="360" y="368" on="0"/>
        <pt x="419" y="342" on="0"/>
        <pt x="464" y="303" on="0"/>
        <pt x="492" y="250" on="0"/>
        <pt x="492" y="212" on="1"/>
        <pt x="492" y="152" on="0"/>
        <pt x="443" y="67" on="0"/>
        <pt x="364" y="13" on="0"/>
        <pt x="262" y="-12" on="0"/>
        <pt x="209" y="-12" on="1"/>
        <pt x="144" y="-12" on="0"/>
        <pt x="39" y="20" on="0"/>
        <pt x="3" y="43" on="1"/>
        <pt x="40" y="116" on="1"/>
        <pt x="56" y="103" on="0"/>
        <pt x="89" y="80" on="0"/>
        <pt x="130" y="64" on="0"/>
        <pt x="182" y="54" on="0"/>
        <pt x="217" y="54" on="1"/>
        <pt x="270" y="54" on="0"/>
        <pt x="343" y="74" on="0"/>
        <pt x="389" y="109" on="0"/>
        <pt x="410" y="156" on="0"/>
        <pt x="410" y="182" on="1"/>
        <pt x="410" y="210" on="0"/>
        <pt x="384" y="250" on="0"/>
        <pt x="342" y="280" on="0"/>
        <pt x="290" y="301" on="0"/>
        <pt x="265" y="310" on="1"/>
        <pt x="230" y="322" on="0"/>
        <pt x="173" y="351" on="0"/>
        <pt x="133" y="387" on="0"/>
        <pt x="111" y="434" on="0"/>
        <pt x="111" y="465" on="1"/>
        <pt x="111" y="517" on="0"/>
        <pt x="151" y="593" on="0"/>
        <pt x="220" y="642" on="0"/>
        <pt x="312" y="665" on="0"/>
        <pt x="364" y="665" on="1"/>
        <pt x="418" y="665" on="0"/>
        <pt x="514" y="643" on="0"/>
        <pt x="545" y="627" on="1"/>
        <pt x="508" y="550" on="1"/>
        <pt x="495" y="564" on="0"/>
        <pt x="456" y="583" on="0"/>
        <pt x="412" y="594" on="0"/>
        <pt x="366" y="599" on="0"/>
        <pt x="346" y="599" on="1"/>
        <pt x="273" y="599" on="0"/>
        <pt x="187" y="542" on="0"/>
      </contour>
    </TTGlyph>
    <TTGlyph name="Scaron" xMin="3" yMin="-12" xMax="545" yMax="842">
      <contour>
        <pt x="370" y="713" on="1"/>
        <pt x="280" y="812" on="1"/>
        <pt x="280" y="819" on="1"/>
        <pt x="289" y="839" on="1"/>
        <pt x="298" y="842" on="1"/>
        <pt x="388" y="780" on="1"/>
        <pt x="505" y="842" on="1"/>
        <pt x="512" y="839" on="1"/>
        <pt x="513" y="819" on="1"/>
        <pt x="509" y="812" on="1"/>
        <pt x="377" y="713" on="1"/>
      </contour>
      <contour>
        <pt x="187" y="484" on="1"/>
        <pt x="187" y="464" on="0"/>
        <pt x="205" y="436" on="0"/>
        <pt x="240" y="413" on="0"/>
        <pt x="294" y="392" on="0"/>
        <pt x="330" y="379" on="1"/>
        <pt x="360" y="368" on="0"/>
        <pt x="419" y="342" on="0"/>
        <pt x="464" y="303" on="0"/>
        <pt x="492" y="250" on="0"/>
        <pt x="492" y="212" on="1"/>
        <pt x="492" y="152" on="0"/>
        <pt x="443" y="67" on="0"/>
        <pt x="364" y="13" on="0"/>
        <pt x="262" y="-12" on="0"/>
        <pt x="209" y="-12" on="1"/>
        <pt x="144" y="-12" on="0"/>
        <pt x="39" y="20" on="0"/>
        <pt x="3" y="43" on="1"/>
        <pt x="40" y="116" on="1"/>
        <pt x="56" y="103" on="0"/>
        <pt x="89" y="80" on="0"/>
        <pt x="130" y="64" on="0"/>
        <pt x="182" y="54" on="0"/>
        <pt x="217" y="54" on="1"/>
        <pt x="270" y="54" on="0"/>
        <pt x="343" y="74" on="0"/>
        <pt x="389" y="109" on="0"/>
        <pt x="410" y="156" on="0"/>
        <pt x="410" y="182" on="1"/>
        <pt x="410" y="210" on="0"/>
        <pt x="384" y="250" on="0"/>
        <pt x="342" y="280" on="0"/>
        <pt x="290" y="301" on="0"/>
        <pt x="265" y="310" on="1"/>
        <pt x="230" y="322" on="0"/>
        <pt x="173" y="351" on="0"/>
        <pt x="133" y="387" on="0"/>
        <pt x="111" y="434" on="0"/>
        <pt x="111" y="465" on="1"/>
        <pt x="111" y="517" on="0"/>
        <pt x="151" y="593" on="0"/>
        <pt x="220" y="642" on="0"/>
        <pt x="312" y="665" on="0"/>
        <pt x="364" y="665" on="1"/>
        <pt x="418" y="665" on="0"/>
        <pt x="514" y="643" on="0"/>
        <pt x="545" y="627" on="1"/>
        <pt x="508" y="550" on="1"/>
        <pt x="495" y="564" on="0"/>
        <pt x="456" y="583" on="0"/>
        <pt x="412" y="594" on="0"/>
        <pt x="366" y="599" on="0"/>
        <pt x="346" y="599" on="1"/>
        <pt x="273" y="599" on="0"/>
        <pt x="187" y="542" on="0"/>
      </contour>
    </TTGlyph>
    <TTGlyph name="T" xMin="84" yMin="0" xMax="596" yMax="660">
      <contour>
        <pt x="581" y="590" on="1"/>
        <pt x="370" y="590" on="1"/>
        <pt x="245" y="0" on="1"/>
        <pt x="170" y="0" on="1"/>
        <pt x="295" y="590" on="1"/>
        <pt x="84" y="590" on="1"/>
        <pt x="99" y="660" on="1"/>
        <pt x="596" y="660" on="1"/>
      </contour>
    </TTGlyph>
    <TTGlyph name="Thorn" xMin="42" yMin="0" xMax="497" yMax="660">
      <contour>
        <pt x="225" y="533" on="1"/>
        <pt x="245" y="534" on="0"/>
        <pt x="286" y="535" on="0"/>
        <pt x="299" y="535" on="1"/>
        <pt x="393" y="535" on="0"/>
        <pt x="497" y="453" on="0"/>
        <pt x="497" y="375" on="1"/>
        <pt x="497" y="331" on="0"/>
        <pt x="466" y="246" on="0"/>
        <pt x="399" y="179" on="0"/>
        <pt x="294" y="138" on="0"/>
        <pt x="219" y="138" on="1"/>
        <pt x="205" y="138" on="0"/>
        <pt x="162" y="139" on="0"/>
        <pt x="142" y="141" on="1"/>
        <pt x="112" y="0" on="1"/>
        <pt x="42" y="0" on="1"/>
        <pt x="182" y="660" on="1"/>
        <pt x="252" y="660" on="1"/>
      </contour>
      <contour>
        <pt x="287" y="469" on="1"/>
        <pt x="274" y="469" on="0"/>
        <pt x="230" y="468" on="0"/>
        <pt x="211" y="467" on="1"/>
        <pt x="156" y="208" on="1"/>
        <pt x="175" y="206" on="0"/>
        <pt x="217" y="204" on="0"/>
        <pt x="229" y="204" on="1"/>
        <pt x="327" y="204" on="0"/>
        <pt x="414" y="295" on="0"/>
        <pt x="414" y="374" on="1"/>
        <pt x="414" y="419" on="0"/>
        <pt x="357" y="469" on="0"/>
      </contour>
    </TTGlyph>
    <TTGlyph name="U" xMin="74" yMin="-11" xMax="679" yMax="660">
      <contour>
        <pt x="164" y="256" on="1"/>
        <pt x="155" y="215" on="0"/>
        <pt x="155" y="184" on="1"/>
        <pt x="155" y="115" on="0"/>
        <pt x="231" y="54" on="0"/>
        <pt x="300" y="54" on="1"/>
        <pt x="384" y="54" on="0"/>
        <pt x="500" y="148" on="0"/>
        <pt x="523" y="256" on="1"/>
        <pt x="609" y="660" on="1"/>
        <pt x="679" y="660" on="1"/>
        <pt x="586" y="222" on="1"/>
        <pt x="575" y="173" on="0"/>
        <pt x="527" y="88" on="0"/>
        <pt x="452" y="25" on="0"/>
        <pt x="350" y="-11" on="0"/>
        <pt x="286" y="-11" on="1"/>
        <pt x="228" y="-11" on="0"/>
        <pt x="148" y="14" on="0"/>
        <pt x="97" y="58" on="0"/>
        <pt x="74" y="119" on="0"/>
        <pt x="74" y="155" on="1"/>
        <pt x="74" y="185" on="0"/>
        <pt x="82" y="222" on="1"/>
        <pt x="175" y="660" on="1"/>
        <pt x="250" y="660" on="1"/>
      </contour>
    </TTGlyph>
    <TTGlyph name="Uacute" xMin="74" yMin="-11" xMax="679" yMax="848">
      <contour>
        <pt x="351" y="721" on="1"/>
        <pt x="349" y="741" on="1"/>
        <pt x="354" y="748" on="1"/>
        <pt x="556" y="848" on="1"/>
        <pt x="585" y="846" on="0"/>
        <pt x="585" y="821" on="1"/>
        <pt x="585" y="811" on="0"/>
        <pt x="579" y="800" on="0"/>
        <pt x="576" y="795" on="1"/>
        <pt x="358" y="718" on="1"/>
      </contour>
      <contour>
        <pt x="164" y="256" on="1"/>
        <pt x="155" y="215" on="0"/>
        <pt x="155" y="184" on="1"/>
        <pt x="155" y="115" on="0"/>
        <pt x="231" y="54" on="0"/>
        <pt x="300" y="54" on="1"/>
        <pt x="384" y="54" on="0"/>
        <pt x="500" y="148" on="0"/>
        <pt x="523" y="256" on="1"/>
        <pt x="609" y="660" on="1"/>
        <pt x="679" y="660" on="1"/>
        <pt x="586" y="222" on="1"/>
        <pt x="575" y="173" on="0"/>
        <pt x="527" y="88" on="0"/>
        <pt x="452" y="25" on="0"/>
        <pt x="350" y="-11" on="0"/>
        <pt x="286" y="-11" on="1"/>
        <pt x="228" y="-11" on="0"/>
        <pt x="148" y="14" on="0"/>
        <pt x="97" y="58" on="0"/>
        <pt x="74" y="119" on="0"/>
        <pt x="74" y="155" on="1"/>
        <pt x="74" y="185" on="0"/>
        <pt x="82" y="222" on="1"/>
        <pt x="175" y="660" on="1"/>
        <pt x="250" y="660" on="1"/>
      </contour>
    </TTGlyph>
    <TTGlyph name="Ucircumflex" xMin="74" yMin="-11" xMax="679" yMax="842">
      <contour>
        <pt x="466" y="842" on="1"/>
        <pt x="556" y="743" on="1"/>
        <pt x="556" y="736" on="1"/>
        <pt x="547" y="716" on="1"/>
        <pt x="538" y="713" on="1"/>
        <pt x="448" y="775" on="1"/>
        <pt x="331" y="713" on="1"/>
        <pt x="323" y="716" on="1"/>
        <pt x="323" y="736" on="1"/>
        <pt x="327" y="743" on="1"/>
        <pt x="459" y="842" on="1"/>
      </contour>
      <contour>
        <pt x="164" y="256" on="1"/>
        <pt x="155" y="215" on="0"/>
        <pt x="155" y="184" on="1"/>
        <pt x="155" y="115" on="0"/>
        <pt x="231" y="54" on="0"/>
        <pt x="300" y="54" on="1"/>
        <pt x="384" y="54" on="0"/>
        <pt x="500" y="148" on="0"/>
        <pt x="523" y="256" on="1"/>
        <pt x="609" y="660" on="1"/>
        <pt x="679" y="660" on="1"/>
        <pt x="586" y="222" on="1"/>
        <pt x="575" y="173" on="0"/>
        <pt x="527" y="88" on="0"/>
        <pt x="452" y="25" on="0"/>
        <pt x="350" y="-11" on="0"/>
        <pt x="286" y="-11" on="1"/>
        <pt x="228" y="-11" on="0"/>
        <pt x="148" y="14" on="0"/>
        <pt x="97" y="58" on="0"/>
        <pt x="74" y="119" on="0"/>
        <pt x="74" y="155" on="1"/>
        <pt x="74" y="185" on="0"/>
        <pt x="82" y="222" on="1"/>
        <pt x="175" y="660" on="1"/>
        <pt x="250" y="660" on="1"/>
      </contour>
    </TTGlyph>
    <TTGlyph name="Udieresis" xMin="74" yMin="-11" xMax="679" yMax="839">
      <contour>
        <pt x="346" y="786" on="1"/>
        <pt x="346" y="806" on="0"/>
        <pt x="378" y="839" on="0"/>
        <pt x="398" y="839" on="1"/>
        <pt x="412" y="839" on="0"/>
        <pt x="431" y="817" on="0"/>
        <pt x="431" y="801" on="1"/>
        <pt x="431" y="780" on="0"/>
        <pt x="398" y="750" on="0"/>
        <pt x="379" y="750" on="1"/>
        <pt x="364" y="750" on="0"/>
        <pt x="346" y="770" on="0"/>
      </contour>
      <contour>
        <pt x="503" y="786" on="1"/>
        <pt x="503" y="806" on="0"/>
        <pt x="535" y="839" on="0"/>
        <pt x="555" y="839" on="1"/>
        <pt x="569" y="839" on="0"/>
        <pt x="588" y="817" on="0"/>
        <pt x="588" y="801" on="1"/>
        <pt x="588" y="780" on="0"/>
        <pt x="555" y="750" on="0"/>
        <pt x="536" y="750" on="1"/>
        <pt x="521" y="750" on="0"/>
        <pt x="503" y="770" on="0"/>
      </contour>
      <contour>
        <pt x="164" y="256" on="1"/>
        <pt x="155" y="215" on="0"/>
        <pt x="155" y="184" on="1"/>
        <pt x="155" y="115" on="0"/>
        <pt x="231" y="54" on="0"/>
        <pt x="300" y="54" on="1"/>
        <pt x="384" y="54" on="0"/>
        <pt x="500" y="148" on="0"/>
        <pt x="523" y="256" on="1"/>
        <pt x="609" y="660" on="1"/>
        <pt x="679" y="660" on="1"/>
        <pt x="586" y="222" on="1"/>
        <pt x="575" y="173" on="0"/>
        <pt x="527" y="88" on="0"/>
        <pt x="452" y="25" on="0"/>
        <pt x="350" y="-11" on="0"/>
        <pt x="286" y="-11" on="1"/>
        <pt x="228" y="-11" on="0"/>
        <pt x="148" y="14" on="0"/>
        <pt x="97" y="58" on="0"/>
        <pt x="74" y="119" on="0"/>
        <pt x="74" y="155" on="1"/>
        <pt x="74" y="185" on="0"/>
        <pt x="82" y="222" on="1"/>
        <pt x="175" y="660" on="1"/>
        <pt x="250" y="660" on="1"/>
      </contour>
    </TTGlyph>
    <TTGlyph name="Ugrave" xMin="74" yMin="-11" xMax="679" yMax="848">
      <contour>
        <pt x="521" y="718" on="1"/>
        <pt x="337" y="795" on="1"/>
        <pt x="336" y="797" on="0"/>
        <pt x="336" y="804" on="0"/>
        <pt x="336" y="806" on="1"/>
        <pt x="336" y="823" on="0"/>
        <pt x="359" y="847" on="0"/>
        <pt x="379" y="848" on="1"/>
        <pt x="539" y="748" on="1"/>
        <pt x="539" y="741" on="1"/>
        <pt x="530" y="721" on="1"/>
      </contour>
      <contour>
        <pt x="164" y="256" on="1"/>
        <pt x="155" y="215" on="0"/>
        <pt x="155" y="184" on="1"/>
        <pt x="155" y="115" on="0"/>
        <pt x="231" y="54" on="0"/>
        <pt x="300" y="54" on="1"/>
        <pt x="384" y="54" on="0"/>
        <pt x="500" y="148" on="0"/>
        <pt x="523" y="256" on="1"/>
        <pt x="609" y="660" on="1"/>
        <pt x="679" y="660" on="1"/>
        <pt x="586" y="222" on="1"/>
        <pt x="575" y="173" on="0"/>
        <pt x="527" y="88" on="0"/>
        <pt x="452" y="25" on="0"/>
        <pt x="350" y="-11" on="0"/>
        <pt x="286" y="-11" on="1"/>
        <pt x="228" y="-11" on="0"/>
        <pt x="148" y="14" on="0"/>
        <pt x="97" y="58" on="0"/>
        <pt x="74" y="119" on="0"/>
        <pt x="74" y="155" on="1"/>
        <pt x="74" y="185" on="0"/>
        <pt x="82" y="222" on="1"/>
        <pt x="175" y="660" on="1"/>
        <pt x="250" y="660" on="1"/>
      </contour>
    </TTGlyph>
    <TTGlyph name="V" xMin="73" yMin="0" xMax="718" yMax="660">
      <contour>
        <pt x="73" y="660" on="1"/>
        <pt x="158" y="660" on="1"/>
        <pt x="287" y="84" on="1"/>
        <pt x="638" y="660" on="1"/>
        <pt x="718" y="660" on="1"/>
        <pt x="316" y="0" on="1"/>
        <pt x="221" y="0" on="1"/>
      </contour>
    </TTGlyph>
    <TTGlyph name="W" xMin="79" yMin="0" xMax="1150" yMax="660">
      <contour>
        <pt x="596" y="546" on="1"/>
        <pt x="294" y="0" on="1"/>
        <pt x="199" y="0" on="1"/>
        <pt x="79" y="660" on="1"/>
        <pt x="164" y="660" on="1"/>
        <pt x="266" y="95" on="1"/>
        <pt x="579" y="660" on="1"/>
        <pt x="664" y="660" on="1"/>
        <pt x="750" y="97" on="1"/>
        <pt x="1070" y="660" on="1"/>
        <pt x="1150" y="660" on="1"/>
        <pt x="775" y="0" on="1"/>
        <pt x="680" y="0" on="1"/>
      </contour>
    </TTGlyph>
    <TTGlyph name="X" xMin="-42" yMin="0" xMax="700" yMax="660">
      <contour>
        <pt x="324" y="285" on="1"/>
        <pt x="44" y="0" on="1"/>
        <pt x="-42" y="0" on="1"/>
        <pt x="292" y="341" on="1"/>
        <pt x="113" y="660" on="1"/>
        <pt x="202" y="660" on="1"/>
        <pt x="352" y="393" on="1"/>
        <pt x="614" y="660" on="1"/>
        <pt x="700" y="660" on="1"/>
        <pt x="383" y="337" on="1"/>
        <pt x="573" y="0" on="1"/>
        <pt x="484" y="0" on="1"/>
      </contour>
    </TTGlyph>
    <TTGlyph name="Y" xMin="68" yMin="0" xMax="655" yMax="660">
      <contour>
        <pt x="68" y="660" on="1"/>
        <pt x="157" y="660" on="1"/>
        <pt x="299" y="343" on="1"/>
        <pt x="568" y="660" on="1"/>
        <pt x="655" y="660" on="1"/>
        <pt x="317" y="271" on="1"/>
        <pt x="260" y="0" on="1"/>
        <pt x="185" y="0" on="1"/>
        <pt x="241" y="267" on="1"/>
      </contour>
    </TTGlyph>
    <TTGlyph name="Yacute" xMin="68" yMin="0" xMax="655" yMax="848">
      <contour>
        <pt x="312" y="721" on="1"/>
        <pt x="311" y="741" on="1"/>
        <pt x="316" y="748" on="1"/>
        <pt x="517" y="848" on="1"/>
        <pt x="546" y="846" on="0"/>
        <pt x="546" y="821" on="1"/>
        <pt x="546" y="811" on="0"/>
        <pt x="538" y="795" on="1"/>
        <pt x="319" y="718" on="1"/>
      </contour>
      <contour>
        <pt x="68" y="660" on="1"/>
        <pt x="157" y="660" on="1"/>
        <pt x="299" y="343" on="1"/>
        <pt x="568" y="660" on="1"/>
        <pt x="655" y="660" on="1"/>
        <pt x="317" y="271" on="1"/>
        <pt x="260" y="0" on="1"/>
        <pt x="185" y="0" on="1"/>
        <pt x="241" y="267" on="1"/>
      </contour>
    </TTGlyph>
    <TTGlyph name="Ydieresis" xMin="68" yMin="0" xMax="655" yMax="839">
      <contour>
        <pt x="273" y="786" on="1"/>
        <pt x="273" y="806" on="0"/>
        <pt x="305" y="839" on="0"/>
        <pt x="325" y="839" on="1"/>
        <pt x="339" y="839" on="0"/>
        <pt x="357" y="817" on="0"/>
        <pt x="357" y="802" on="1"/>
        <pt x="357" y="780" on="0"/>
        <pt x="324" y="750" on="0"/>
        <pt x="306" y="750" on="1"/>
        <pt x="291" y="750" on="0"/>
        <pt x="273" y="770" on="0"/>
      </contour>
      <contour>
        <pt x="430" y="785" on="1"/>
        <pt x="430" y="806" on="0"/>
        <pt x="462" y="839" on="0"/>
        <pt x="481" y="839" on="1"/>
        <pt x="495" y="839" on="0"/>
        <pt x="514" y="817" on="0"/>
        <pt x="514" y="801" on="1"/>
        <pt x="514" y="780" on="0"/>
        <pt x="481" y="750" on="0"/>
        <pt x="462" y="750" on="1"/>
        <pt x="448" y="750" on="0"/>
        <pt x="430" y="770" on="0"/>
      </contour>
      <contour>
        <pt x="68" y="660" on="1"/>
        <pt x="157" y="660" on="1"/>
        <pt x="299" y="343" on="1"/>
        <pt x="568" y="660" on="1"/>
        <pt x="655" y="660" on="1"/>
        <pt x="317" y="271" on="1"/>
        <pt x="260" y="0" on="1"/>
        <pt x="185" y="0" on="1"/>
        <pt x="241" y="267" on="1"/>
      </contour>
    </TTGlyph>
    <TTGlyph name="Z" xMin="-15" yMin="0" xMax="578" yMax="660">
      <contour>
        <pt x="453" y="0" on="1"/>
        <pt x="-15" y="0" on="1"/>
        <pt x="0" y="70" on="1"/>
        <pt x="478" y="590" on="1"/>
        <pt x="125" y="590" on="1"/>
        <pt x="140" y="660" on="1"/>
        <pt x="578" y="660" on="1"/>
        <pt x="563" y="590" on="1"/>
        <pt x="85" y="70" on="1"/>
        <pt x="468" y="70" on="1"/>
      </contour>
    </TTGlyph>
    <TTGlyph name="Zcaron" xMin="-15" yMin="0" xMax="578" yMax="842">
      <contour>
        <pt x="364" y="713" on="1"/>
        <pt x="275" y="812" on="1"/>
        <pt x="273" y="819" on="1"/>
        <pt x="283" y="839" on="1"/>
        <pt x="292" y="842" on="1"/>
        <pt x="382" y="780" on="1"/>
        <pt x="499" y="842" on="1"/>
        <pt x="505" y="839" on="1"/>
        <pt x="507" y="819" on="1"/>
        <pt x="503" y="812" on="1"/>
        <pt x="372" y="713" on="1"/>
      </contour>
      <contour>
        <pt x="453" y="0" on="1"/>
        <pt x="-15" y="0" on="1"/>
        <pt x="0" y="70" on="1"/>
        <pt x="478" y="590" on="1"/>
        <pt x="125" y="590" on="1"/>
        <pt x="140" y="660" on="1"/>
        <pt x="578" y="660" on="1"/>
        <pt x="563" y="590" on="1"/>
        <pt x="85" y="70" on="1"/>
        <pt x="468" y="70" on="1"/>
      </contour>
    </TTGlyph>
    <TTGlyph name="a" xMin="32" yMin="-12" xMax="537" yMax="475">
      <contour>
        <pt x="537" y="460" on="1"/>
        <pt x="440" y="0" on="1"/>
        <pt x="385" y="0" on="1"/>
        <pt x="395" y="82" on="1"/>
        <pt x="391" y="82" on="1"/>
        <pt x="359" y="45" on="0"/>
        <pt x="255" y="-12" on="0"/>
        <pt x="191" y="-12" on="1"/>
        <pt x="150" y="-12" on="0"/>
        <pt x="90" y="17" on="0"/>
        <pt x="51" y="67" on="0"/>
        <pt x="32" y="134" on="0"/>
        <pt x="32" y="171" on="1"/>
        <pt x="32" y="228" on="0"/>
        <pt x="69" y="337" on="0"/>
        <pt x="140" y="422" on="0"/>
        <pt x="241" y="475" on="0"/>
        <pt x="305" y="475" on="1"/>
        <pt x="372" y="475" on="0"/>
        <pt x="446" y="417" on="0"/>
        <pt x="450" y="374" on="1"/>
        <pt x="482" y="460" on="1"/>
      </contour>
      <contour>
        <pt x="211" y="47" on="1"/>
        <pt x="259" y="47" on="0"/>
        <pt x="364" y="99" on="0"/>
        <pt x="402" y="148" on="1"/>
        <pt x="433" y="295" on="1"/>
        <pt x="427" y="352" on="0"/>
        <pt x="356" y="416" on="0"/>
        <pt x="303" y="416" on="1"/>
        <pt x="261" y="416" on="0"/>
        <pt x="188" y="378" on="0"/>
        <pt x="136" y="314" on="0"/>
        <pt x="106" y="226" on="0"/>
        <pt x="106" y="177" on="1"/>
        <pt x="106" y="152" on="0"/>
        <pt x="117" y="105" on="0"/>
        <pt x="142" y="69" on="0"/>
        <pt x="182" y="47" on="0"/>
      </contour>
    </TTGlyph>
    <TTGlyph name="aacute" xMin="32" yMin="-12" xMax="537" yMax="680">
      <contour>
        <pt x="299" y="552" on="1"/>
        <pt x="299" y="572" on="1"/>
        <pt x="303" y="579" on="1"/>
        <pt x="504" y="680" on="1"/>
        <pt x="519" y="679" on="0"/>
        <pt x="534" y="663" on="0"/>
        <pt x="534" y="652" on="1"/>
        <pt x="534" y="641" on="0"/>
        <pt x="525" y="626" on="1"/>
        <pt x="307" y="549" on="1"/>
      </contour>
      <contour>
        <pt x="537" y="460" on="1"/>
        <pt x="440" y="0" on="1"/>
        <pt x="385" y="0" on="1"/>
        <pt x="395" y="82" on="1"/>
        <pt x="391" y="82" on="1"/>
        <pt x="359" y="45" on="0"/>
        <pt x="255" y="-12" on="0"/>
        <pt x="191" y="-12" on="1"/>
        <pt x="150" y="-12" on="0"/>
        <pt x="90" y="17" on="0"/>
        <pt x="51" y="67" on="0"/>
        <pt x="32" y="134" on="0"/>
        <pt x="32" y="171" on="1"/>
        <pt x="32" y="228" on="0"/>
        <pt x="69" y="337" on="0"/>
        <pt x="140" y="422" on="0"/>
        <pt x="241" y="475" on="0"/>
        <pt x="305" y="475" on="1"/>
        <pt x="372" y="475" on="0"/>
        <pt x="446" y="417" on="0"/>
        <pt x="450" y="374" on="1"/>
        <pt x="482" y="460" on="1"/>
      </contour>
      <contour>
        <pt x="211" y="47" on="1"/>
        <pt x="259" y="47" on="0"/>
        <pt x="364" y="99" on="0"/>
        <pt x="402" y="148" on="1"/>
        <pt x="433" y="295" on="1"/>
        <pt x="427" y="352" on="0"/>
        <pt x="356" y="416" on="0"/>
        <pt x="303" y="416" on="1"/>
        <pt x="261" y="416" on="0"/>
        <pt x="188" y="378" on="0"/>
        <pt x="136" y="314" on="0"/>
        <pt x="106" y="226" on="0"/>
        <pt x="106" y="177" on="1"/>
        <pt x="106" y="152" on="0"/>
        <pt x="117" y="105" on="0"/>
        <pt x="142" y="69" on="0"/>
        <pt x="182" y="47" on="0"/>
      </contour>
    </TTGlyph>
    <TTGlyph name="acircumflex" xMin="32" yMin="-12" xMax="537" yMax="673">
      <contour>
        <pt x="385" y="673" on="1"/>
        <pt x="474" y="574" on="1"/>
        <pt x="475" y="567" on="1"/>
        <pt x="465" y="548" on="1"/>
        <pt x="458" y="545" on="1"/>
        <pt x="367" y="606" on="1"/>
        <pt x="251" y="545" on="1"/>
        <pt x="243" y="548" on="1"/>
        <pt x="241" y="567" on="1"/>
        <pt x="246" y="574" on="1"/>
        <pt x="377" y="673" on="1"/>
      </contour>
      <contour>
        <pt x="537" y="460" on="1"/>
        <pt x="440" y="0" on="1"/>
        <pt x="385" y="0" on="1"/>
        <pt x="395" y="82" on="1"/>
        <pt x="391" y="82" on="1"/>
        <pt x="359" y="45" on="0"/>
        <pt x="255" y="-12" on="0"/>
        <pt x="191" y="-12" on="1"/>
        <pt x="150" y="-12" on="0"/>
        <pt x="90" y="17" on="0"/>
        <pt x="51" y="67" on="0"/>
        <pt x="32" y="134" on="0"/>
        <pt x="32" y="171" on="1"/>
        <pt x="32" y="228" on="0"/>
        <pt x="69" y="337" on="0"/>
        <pt x="140" y="422" on="0"/>
        <pt x="241" y="475" on="0"/>
        <pt x="305" y="475" on="1"/>
        <pt x="372" y="475" on="0"/>
        <pt x="446" y="417" on="0"/>
        <pt x="450" y="374" on="1"/>
        <pt x="482" y="460" on="1"/>
      </contour>
      <contour>
        <pt x="211" y="47" on="1"/>
        <pt x="259" y="47" on="0"/>
        <pt x="364" y="99" on="0"/>
        <pt x="402" y="148" on="1"/>
        <pt x="433" y="295" on="1"/>
        <pt x="427" y="352" on="0"/>
        <pt x="356" y="416" on="0"/>
        <pt x="303" y="416" on="1"/>
        <pt x="261" y="416" on="0"/>
        <pt x="188" y="378" on="0"/>
        <pt x="136" y="314" on="0"/>
        <pt x="106" y="226" on="0"/>
        <pt x="106" y="177" on="1"/>
        <pt x="106" y="152" on="0"/>
        <pt x="117" y="105" on="0"/>
        <pt x="142" y="69" on="0"/>
        <pt x="182" y="47" on="0"/>
      </contour>
    </TTGlyph>
    <TTGlyph name="acute" xMin="122" yMin="549" xMax="357" yMax="680">
      <contour>
        <pt x="124" y="552" on="1"/>
        <pt x="122" y="572" on="1"/>
        <pt x="126" y="579" on="1"/>
        <pt x="328" y="680" on="1"/>
        <pt x="342" y="679" on="0"/>
        <pt x="357" y="663" on="0"/>
        <pt x="357" y="652" on="1"/>
        <pt x="357" y="639" on="0"/>
        <pt x="348" y="626" on="1"/>
        <pt x="130" y="549" on="1"/>
      </contour>
    </TTGlyph>
    <TTGlyph name="adieresis" xMin="32" yMin="-12" xMax="537" yMax="671">
      <contour>
        <pt x="260" y="618" on="1"/>
        <pt x="260" y="638" on="0"/>
        <pt x="292" y="671" on="0"/>
        <pt x="312" y="671" on="1"/>
        <pt x="326" y="671" on="0"/>
        <pt x="344" y="649" on="0"/>
        <pt x="344" y="634" on="1"/>
        <pt x="344" y="612" on="0"/>
        <pt x="310" y="582" on="0"/>
        <pt x="293" y="582" on="1"/>
        <pt x="278" y="582" on="0"/>
        <pt x="260" y="602" on="0"/>
      </contour>
      <contour>
        <pt x="417" y="617" on="1"/>
        <pt x="417" y="638" on="0"/>
        <pt x="449" y="671" on="0"/>
        <pt x="468" y="671" on="1"/>
        <pt x="482" y="671" on="0"/>
        <pt x="501" y="649" on="0"/>
        <pt x="501" y="633" on="1"/>
        <pt x="501" y="612" on="0"/>
        <pt x="468" y="582" on="0"/>
        <pt x="449" y="582" on="1"/>
        <pt x="435" y="582" on="0"/>
        <pt x="417" y="602" on="0"/>
      </contour>
      <contour>
        <pt x="537" y="460" on="1"/>
        <pt x="440" y="0" on="1"/>
        <pt x="385" y="0" on="1"/>
        <pt x="395" y="82" on="1"/>
        <pt x="391" y="82" on="1"/>
        <pt x="359" y="45" on="0"/>
        <pt x="255" y="-12" on="0"/>
        <pt x="191" y="-12" on="1"/>
        <pt x="150" y="-12" on="0"/>
        <pt x="90" y="17" on="0"/>
        <pt x="51" y="67" on="0"/>
        <pt x="32" y="134" on="0"/>
        <pt x="32" y="171" on="1"/>
        <pt x="32" y="228" on="0"/>
        <pt x="69" y="337" on="0"/>
        <pt x="140" y="422" on="0"/>
        <pt x="241" y="475" on="0"/>
        <pt x="305" y="475" on="1"/>
        <pt x="372" y="475" on="0"/>
        <pt x="446" y="417" on="0"/>
        <pt x="450" y="374" on="1"/>
        <pt x="482" y="460" on="1"/>
      </contour>
      <contour>
        <pt x="211" y="47" on="1"/>
        <pt x="259" y="47" on="0"/>
        <pt x="364" y="99" on="0"/>
        <pt x="402" y="148" on="1"/>
        <pt x="433" y="295" on="1"/>
        <pt x="427" y="352" on="0"/>
        <pt x="356" y="416" on="0"/>
        <pt x="303" y="416" on="1"/>
        <pt x="261" y="416" on="0"/>
        <pt x="188" y="378" on="0"/>
        <pt x="136" y="314" on="0"/>
        <pt x="106" y="226" on="0"/>
        <pt x="106" y="177" on="1"/>
        <pt x="106" y="152" on="0"/>
        <pt x="117" y="105" on="0"/>
        <pt x="142" y="69" on="0"/>
        <pt x="182" y="47" on="0"/>
      </contour>
    </TTGlyph>
    <TTGlyph name="ae" xMin="4" yMin="-12" xMax="783" yMax="475">
      <contour>
        <pt x="433" y="396" on="1"/>
        <pt x="469" y="430" on="0"/>
        <pt x="573" y="475" on="0"/>
        <pt x="630" y="475" on="1"/>
        <pt x="705" y="475" on="0"/>
        <pt x="783" y="406" on="0"/>
        <pt x="783" y="343" on="1"/>
        <pt x="783" y="314" on="0"/>
        <pt x="765" y="257" on="0"/>
        <pt x="756" y="245" on="1"/>
        <pt x="419" y="245" on="1"/>
        <pt x="415" y="227" on="1"/>
        <pt x="409" y="200" on="0"/>
        <pt x="409" y="176" on="1"/>
        <pt x="409" y="119" on="0"/>
        <pt x="472" y="41" on="0"/>
        <pt x="539" y="41" on="1"/>
        <pt x="563" y="41" on="0"/>
        <pt x="611" y="51" on="0"/>
        <pt x="656" y="66" on="0"/>
        <pt x="695" y="85" on="0"/>
        <pt x="711" y="95" on="1"/>
        <pt x="713" y="42" on="1"/>
        <pt x="698" y="34" on="0"/>
        <pt x="656" y="15" on="0"/>
        <pt x="606" y="-1" on="0"/>
        <pt x="549" y="-12" on="0"/>
        <pt x="519" y="-12" on="1"/>
        <pt x="452" y="-12" on="0"/>
        <pt x="368" y="43" on="0"/>
        <pt x="349" y="88" on="1"/>
        <pt x="345" y="88" on="1"/>
        <pt x="293" y="33" on="0"/>
        <pt x="168" y="-12" on="0"/>
        <pt x="111" y="-12" on="1"/>
        <pt x="57" y="-12" on="0"/>
        <pt x="4" y="48" on="0"/>
        <pt x="4" y="93" on="1"/>
        <pt x="4" y="138" on="0"/>
        <pt x="36" y="202" on="0"/>
        <pt x="88" y="247" on="0"/>
        <pt x="154" y="273" on="0"/>
        <pt x="223" y="288" on="0"/>
        <pt x="288" y="292" on="0"/>
        <pt x="314" y="292" on="1"/>
        <pt x="359" y="292" on="1"/>
        <pt x="362" y="304" on="1"/>
        <pt x="364" y="315" on="0"/>
        <pt x="367" y="331" on="0"/>
        <pt x="367" y="339" on="1"/>
        <pt x="367" y="359" on="0"/>
        <pt x="352" y="386" on="0"/>
        <pt x="340" y="396" on="1"/>
        <pt x="325" y="407" on="0"/>
        <pt x="288" y="416" on="0"/>
        <pt x="256" y="416" on="1"/>
        <pt x="214" y="416" on="0"/>
        <pt x="146" y="394" on="0"/>
        <pt x="112" y="376" on="1"/>
        <pt x="109" y="436" on="1"/>
        <pt x="184" y="475" on="0"/>
        <pt x="277" y="475" on="1"/>
        <pt x="314" y="475" on="0"/>
        <pt x="378" y="462" on="0"/>
        <pt x="399" y="446" on="1"/>
        <pt x="410" y="438" on="0"/>
        <pt x="427" y="410" on="0"/>
        <pt x="429" y="396" on="1"/>
      </contour>
      <contour>
        <pt x="145" y="47" on="1"/>
        <pt x="165" y="47" on="0"/>
        <pt x="213" y="60" on="0"/>
        <pt x="262" y="86" on="0"/>
        <pt x="309" y="124" on="0"/>
        <pt x="328" y="148" on="1"/>
        <pt x="348" y="241" on="1"/>
        <pt x="339" y="241" on="1"/>
        <pt x="294" y="241" on="0"/>
        <pt x="202" y="233" on="0"/>
        <pt x="127" y="206" on="0"/>
        <pt x="80" y="153" on="0"/>
        <pt x="80" y="108" on="1"/>
        <pt x="80" y="79" on="0"/>
        <pt x="114" y="47" on="0"/>
      </contour>
      <contour>
        <pt x="615" y="419" on="1"/>
        <pt x="549" y="419" on="0"/>
        <pt x="461" y="350" on="0"/>
        <pt x="437" y="298" on="1"/>
        <pt x="710" y="298" on="1"/>
        <pt x="712" y="303" on="0"/>
        <pt x="718" y="316" on="0"/>
        <pt x="718" y="334" on="1"/>
        <pt x="718" y="376" on="0"/>
        <pt x="658" y="419" on="0"/>
      </contour>
    </TTGlyph>
    <TTGlyph name="agrave" xMin="32" yMin="-12" xMax="537" yMax="680">
      <contour>
        <pt x="425" y="549" on="1"/>
        <pt x="239" y="626" on="1"/>
        <pt x="239" y="649" on="0"/>
        <pt x="258" y="679" on="0"/>
        <pt x="282" y="680" on="1"/>
        <pt x="441" y="579" on="1"/>
        <pt x="443" y="572" on="1"/>
        <pt x="433" y="552" on="1"/>
      </contour>
      <contour>
        <pt x="537" y="460" on="1"/>
        <pt x="440" y="0" on="1"/>
        <pt x="385" y="0" on="1"/>
        <pt x="395" y="82" on="1"/>
        <pt x="391" y="82" on="1"/>
        <pt x="359" y="45" on="0"/>
        <pt x="255" y="-12" on="0"/>
        <pt x="191" y="-12" on="1"/>
        <pt x="150" y="-12" on="0"/>
        <pt x="90" y="17" on="0"/>
        <pt x="51" y="67" on="0"/>
        <pt x="32" y="134" on="0"/>
        <pt x="32" y="171" on="1"/>
        <pt x="32" y="228" on="0"/>
        <pt x="69" y="337" on="0"/>
        <pt x="140" y="422" on="0"/>
        <pt x="241" y="475" on="0"/>
        <pt x="305" y="475" on="1"/>
        <pt x="372" y="475" on="0"/>
        <pt x="446" y="417" on="0"/>
        <pt x="450" y="374" on="1"/>
        <pt x="482" y="460" on="1"/>
      </contour>
      <contour>
        <pt x="211" y="47" on="1"/>
        <pt x="259" y="47" on="0"/>
        <pt x="364" y="99" on="0"/>
        <pt x="402" y="148" on="1"/>
        <pt x="433" y="295" on="1"/>
        <pt x="427" y="352" on="0"/>
        <pt x="356" y="416" on="0"/>
        <pt x="303" y="416" on="1"/>
        <pt x="261" y="416" on="0"/>
        <pt x="188" y="378" on="0"/>
        <pt x="136" y="314" on="0"/>
        <pt x="106" y="226" on="0"/>
        <pt x="106" y="177" on="1"/>
        <pt x="106" y="152" on="0"/>
        <pt x="117" y="105" on="0"/>
        <pt x="142" y="69" on="0"/>
        <pt x="182" y="47" on="0"/>
      </contour>
    </TTGlyph>
    <TTGlyph name="ampersand" xMin="37" yMin="-12" xMax="700" yMax="665">
      <contour>
        <pt x="700" y="427" on="1"/>
        <pt x="687" y="365" on="1"/>
        <pt x="550" y="353" on="1"/>
        <pt x="556" y="335" on="0"/>
        <pt x="562" y="294" on="0"/>
        <pt x="562" y="275" on="1"/>
        <pt x="562" y="231" on="0"/>
        <pt x="529" y="146" on="0"/>
        <pt x="499" y="110" on="1"/>
        <pt x="582" y="0" on="1"/>
        <pt x="498" y="0" on="1"/>
        <pt x="450" y="62" on="1"/>
        <pt x="407" y="28" on="0"/>
        <pt x="297" y="-12" on="0"/>
        <pt x="232" y="-12" on="1"/>
        <pt x="182" y="-12" on="0"/>
        <pt x="109" y="14" on="0"/>
        <pt x="61" y="57" on="0"/>
        <pt x="37" y="114" on="0"/>
        <pt x="37" y="146" on="1"/>
        <pt x="37" y="176" on="0"/>
        <pt x="61" y="242" on="0"/>
        <pt x="107" y="302" on="0"/>
        <pt x="174" y="354" on="0"/>
        <pt x="216" y="371" on="1"/>
        <pt x="182" y="424" on="0"/>
        <pt x="182" y="483" on="1"/>
        <pt x="182" y="527" on="0"/>
        <pt x="213" y="595" on="0"/>
        <pt x="264" y="641" on="0"/>
        <pt x="330" y="665" on="0"/>
        <pt x="366" y="665" on="1"/>
        <pt x="400" y="665" on="0"/>
        <pt x="467" y="642" on="0"/>
        <pt x="496" y="621" on="1"/>
        <pt x="460" y="550" on="1"/>
        <pt x="443" y="572" on="0"/>
        <pt x="384" y="600" on="0"/>
        <pt x="354" y="600" on="1"/>
        <pt x="334" y="600" on="0"/>
        <pt x="297" y="587" on="0"/>
        <pt x="269" y="559" on="0"/>
        <pt x="252" y="516" on="0"/>
        <pt x="252" y="486" on="1"/>
        <pt x="252" y="437" on="0"/>
        <pt x="282" y="398" on="1"/>
        <pt x="461" y="159" on="1"/>
        <pt x="497" y="212" on="0"/>
        <pt x="497" y="271" on="1"/>
        <pt x="497" y="290" on="0"/>
        <pt x="489" y="329" on="0"/>
        <pt x="482" y="347" on="1"/>
        <pt x="431" y="343" on="1"/>
        <pt x="441" y="390" on="1"/>
      </contour>
      <contour>
        <pt x="255" y="54" on="1"/>
        <pt x="303" y="54" on="0"/>
        <pt x="383" y="83" on="0"/>
        <pt x="415" y="109" on="1"/>
        <pt x="250" y="324" on="1"/>
        <pt x="221" y="315" on="0"/>
        <pt x="172" y="283" on="0"/>
        <pt x="136" y="240" on="0"/>
        <pt x="116" y="189" on="0"/>
        <pt x="116" y="162" on="1"/>
        <pt x="116" y="110" on="0"/>
        <pt x="192" y="54" on="0"/>
      </contour>
    </TTGlyph>
    <TTGlyph name="aring" xMin="32" yMin="-12" xMax="537" yMax="683">
      <contour>
        <pt x="397" y="683" on="1"/>
        <pt x="431" y="683" on="0"/>
        <pt x="466" y="644" on="0"/>
        <pt x="466" y="620" on="1"/>
        <pt x="466" y="605" on="0"/>
        <pt x="452" y="576" on="0"/>
        <pt x="426" y="552" on="0"/>
        <pt x="389" y="538" on="0"/>
        <pt x="367" y="538" on="1"/>
        <pt x="331" y="538" on="0"/>
        <pt x="298" y="576" on="0"/>
        <pt x="298" y="599" on="1"/>
        <pt x="298" y="614" on="0"/>
        <pt x="313" y="644" on="0"/>
        <pt x="339" y="668" on="0"/>
        <pt x="376" y="683" on="0"/>
      </contour>
      <contour>
        <pt x="372" y="562" on="1"/>
        <pt x="395" y="562" on="0"/>
        <pt x="427" y="597" on="0"/>
        <pt x="427" y="617" on="1"/>
        <pt x="427" y="633" on="0"/>
        <pt x="409" y="659" on="0"/>
        <pt x="391" y="659" on="1"/>
        <pt x="367" y="659" on="0"/>
        <pt x="336" y="622" on="0"/>
        <pt x="336" y="603" on="1"/>
        <pt x="336" y="587" on="0"/>
        <pt x="355" y="562" on="0"/>
      </contour>
      <contour>
        <pt x="537" y="460" on="1"/>
        <pt x="440" y="0" on="1"/>
        <pt x="385" y="0" on="1"/>
        <pt x="395" y="82" on="1"/>
        <pt x="391" y="82" on="1"/>
        <pt x="359" y="45" on="0"/>
        <pt x="255" y="-12" on="0"/>
        <pt x="191" y="-12" on="1"/>
        <pt x="150" y="-12" on="0"/>
        <pt x="90" y="17" on="0"/>
        <pt x="51" y="67" on="0"/>
        <pt x="32" y="134" on="0"/>
        <pt x="32" y="171" on="1"/>
        <pt x="32" y="228" on="0"/>
        <pt x="69" y="337" on="0"/>
        <pt x="140" y="422" on="0"/>
        <pt x="241" y="475" on="0"/>
        <pt x="305" y="475" on="1"/>
        <pt x="372" y="475" on="0"/>
        <pt x="446" y="417" on="0"/>
        <pt x="450" y="374" on="1"/>
        <pt x="482" y="460" on="1"/>
      </contour>
      <contour>
        <pt x="211" y="47" on="1"/>
        <pt x="259" y="47" on="0"/>
        <pt x="364" y="99" on="0"/>
        <pt x="402" y="148" on="1"/>
        <pt x="433" y="295" on="1"/>
        <pt x="427" y="352" on="0"/>
        <pt x="356" y="416" on="0"/>
        <pt x="303" y="416" on="1"/>
        <pt x="261" y="416" on="0"/>
        <pt x="188" y="378" on="0"/>
        <pt x="136" y="314" on="0"/>
        <pt x="106" y="226" on="0"/>
        <pt x="106" y="177" on="1"/>
        <pt x="106" y="152" on="0"/>
        <pt x="117" y="105" on="0"/>
        <pt x="142" y="69" on="0"/>
        <pt x="182" y="47" on="0"/>
      </contour>
    </TTGlyph>
    <TTGlyph name="asciicircum" xMin="178" yMin="545" xMax="412" yMax="673">
      <contour>
        <pt x="322" y="673" on="1"/>
        <pt x="410" y="574" on="1"/>
        <pt x="412" y="567" on="1"/>
        <pt x="402" y="548" on="1"/>
        <pt x="394" y="545" on="1"/>
        <pt x="303" y="606" on="1"/>
        <pt x="186" y="545" on="1"/>
        <pt x="180" y="548" on="1"/>
        <pt x="178" y="567" on="1"/>
        <pt x="182" y="574" on="1"/>
        <pt x="314" y="673" on="1"/>
      </contour>
    </TTGlyph>
    <TTGlyph name="asciitilde" xMin="59" yMin="195" xMax="424" yMax="296">
      <contour>
        <pt x="424" y="288" on="1"/>
        <pt x="423" y="285" on="0"/>
        <pt x="408" y="260" on="0"/>
        <pt x="381" y="233" on="0"/>
        <pt x="344" y="211" on="0"/>
        <pt x="320" y="211" on="1"/>
        <pt x="309" y="211" on="0"/>
        <pt x="260" y="214" on="0"/>
        <pt x="202" y="217" on="0"/>
        <pt x="147" y="220" on="0"/>
        <pt x="131" y="220" on="1"/>
        <pt x="106" y="220" on="0"/>
        <pt x="83" y="207" on="0"/>
        <pt x="71" y="195" on="1"/>
        <pt x="59" y="202" on="1"/>
        <pt x="60" y="209" on="0"/>
        <pt x="78" y="235" on="0"/>
        <pt x="107" y="261" on="0"/>
        <pt x="145" y="279" on="0"/>
        <pt x="166" y="279" on="1"/>
        <pt x="179" y="279" on="0"/>
        <pt x="221" y="276" on="0"/>
        <pt x="270" y="273" on="0"/>
        <pt x="321" y="270" on="0"/>
        <pt x="343" y="270" on="1"/>
        <pt x="360" y="270" on="0"/>
        <pt x="397" y="278" on="0"/>
        <pt x="414" y="296" on="1"/>
      </contour>
    </TTGlyph>
    <TTGlyph name="asterisk" xMin="103" yMin="374" xMax="443" yMax="702">
      <contour>
        <pt x="297" y="568" on="1"/>
        <pt x="422" y="649" on="1"/>
        <pt x="443" y="591" on="1"/>
        <pt x="308" y="537" on="1"/>
        <pt x="420" y="484" on="1"/>
        <pt x="376" y="427" on="1"/>
        <pt x="284" y="506" on="1"/>
        <pt x="271" y="374" on="1"/>
        <pt x="206" y="374" on="1"/>
        <pt x="248" y="506" on="1"/>
        <pt x="123" y="427" on="1"/>
        <pt x="103" y="484" on="1"/>
        <pt x="237" y="537" on="1"/>
        <pt x="126" y="591" on="1"/>
        <pt x="171" y="649" on="1"/>
        <pt x="261" y="568" on="1"/>
        <pt x="275" y="702" on="1"/>
        <pt x="341" y="702" on="1"/>
      </contour>
    </TTGlyph>
    <TTGlyph name="at" xMin="31" yMin="-101" xMax="693" yMax="548">
      <contour>
        <pt x="458" y="350" on="1"/>
        <pt x="453" y="356" on="0"/>
        <pt x="434" y="356" on="1"/>
        <pt x="396" y="356" on="0"/>
        <pt x="335" y="311" on="0"/>
        <pt x="292" y="248" on="0"/>
        <pt x="269" y="179" on="0"/>
        <pt x="269" y="155" on="1"/>
        <pt x="269" y="116" on="0"/>
        <pt x="291" y="116" on="1"/>
        <pt x="304" y="116" on="0"/>
        <pt x="338" y="137" on="0"/>
        <pt x="371" y="170" on="0"/>
        <pt x="400" y="210" on="0"/>
        <pt x="408" y="229" on="1"/>
      </contour>
      <contour>
        <pt x="516" y="-23" on="1"/>
        <pt x="504" y="-32" on="0"/>
        <pt x="455" y="-59" on="0"/>
        <pt x="390" y="-84" on="0"/>
        <pt x="312" y="-101" on="0"/>
        <pt x="271" y="-101" on="1"/>
        <pt x="219" y="-101" on="0"/>
        <pt x="131" y="-69" on="0"/>
        <pt x="67" y="-9" on="0"/>
        <pt x="31" y="76" on="0"/>
        <pt x="31" y="128" on="1"/>
        <pt x="31" y="167" on="0"/>
        <pt x="57" y="260" on="0"/>
        <pt x="108" y="354" on="0"/>
        <pt x="183" y="441" on="0"/>
        <pt x="280" y="508" on="0"/>
        <pt x="399" y="548" on="0"/>
        <pt x="468" y="548" on="1"/>
        <pt x="528" y="548" on="0"/>
        <pt x="613" y="513" on="0"/>
        <pt x="668" y="456" on="0"/>
        <pt x="693" y="383" on="0"/>
        <pt x="693" y="344" on="1"/>
        <pt x="693" y="293" on="0"/>
        <pt x="652" y="196" on="0"/>
        <pt x="581" y="120" on="0"/>
        <pt x="487" y="74" on="0"/>
        <pt x="435" y="74" on="1"/>
        <pt x="399" y="74" on="0"/>
        <pt x="374" y="97" on="0"/>
        <pt x="374" y="116" on="1"/>
        <pt x="374" y="124" on="0"/>
        <pt x="376" y="139" on="0"/>
        <pt x="378" y="147" on="1"/>
        <pt x="354" y="113" on="0"/>
        <pt x="294" y="73" on="0"/>
        <pt x="268" y="73" on="1"/>
        <pt x="243" y="73" on="0"/>
        <pt x="205" y="118" on="0"/>
        <pt x="205" y="162" on="1"/>
        <pt x="205" y="212" on="0"/>
        <pt x="251" y="296" on="0"/>
        <pt x="321" y="356" on="0"/>
        <pt x="404" y="389" on="0"/>
        <pt x="442" y="389" on="1"/>
        <pt x="466" y="389" on="0"/>
        <pt x="520" y="373" on="0"/>
        <pt x="533" y="356" on="1"/>
        <pt x="505" y="289" on="0"/>
        <pt x="475" y="216" on="0"/>
        <pt x="461" y="182" on="0"/>
        <pt x="458" y="176" on="0"/>
        <pt x="458" y="176" on="1"/>
        <pt x="452" y="162" on="0"/>
        <pt x="446" y="143" on="0"/>
        <pt x="446" y="134" on="1"/>
        <pt x="446" y="115" on="0"/>
        <pt x="470" y="115" on="1"/>
        <pt x="501" y="115" on="0"/>
        <pt x="559" y="156" on="0"/>
        <pt x="604" y="220" on="0"/>
        <pt x="631" y="299" on="0"/>
        <pt x="631" y="337" on="1"/>
        <pt x="631" y="368" on="0"/>
        <pt x="612" y="427" on="0"/>
        <pt x="570" y="473" on="0"/>
        <pt x="504" y="501" on="0"/>
        <pt x="457" y="501" on="1"/>
        <pt x="403" y="501" on="0"/>
        <pt x="306" y="469" on="0"/>
        <pt x="226" y="413" on="0"/>
        <pt x="162" y="339" on="0"/>
        <pt x="117" y="256" on="0"/>
        <pt x="94" y="169" on="0"/>
        <pt x="94" y="128" on="1"/>
        <pt x="94" y="81" on="0"/>
        <pt x="125" y="12" on="0"/>
        <pt x="178" y="-32" on="0"/>
        <pt x="250" y="-53" on="0"/>
        <pt x="291" y="-53" on="1"/>
        <pt x="332" y="-53" on="0"/>
        <pt x="406" y="-36" on="0"/>
        <pt x="467" y="-11" on="0"/>
        <pt x="513" y="17" on="0"/>
        <pt x="526" y="27" on="1"/>
      </contour>
    </TTGlyph>
    <TTGlyph name="atilde" xMin="32" yMin="-12" xMax="546" yMax="676">
      <contour>
        <pt x="546" y="668" on="1"/>
        <pt x="545" y="665" on="0"/>
        <pt x="530" y="640" on="0"/>
        <pt x="503" y="613" on="0"/>
        <pt x="466" y="591" on="0"/>
        <pt x="442" y="591" on="1"/>
        <pt x="431" y="591" on="0"/>
        <pt x="391" y="594" on="0"/>
        <pt x="344" y="597" on="0"/>
        <pt x="298" y="600" on="0"/>
        <pt x="282" y="600" on="1"/>
        <pt x="257" y="600" on="0"/>
        <pt x="235" y="587" on="0"/>
        <pt x="222" y="575" on="1"/>
        <pt x="211" y="583" on="1"/>
        <pt x="212" y="590" on="0"/>
        <pt x="230" y="616" on="0"/>
        <pt x="259" y="641" on="0"/>
        <pt x="297" y="659" on="0"/>
        <pt x="318" y="659" on="1"/>
        <pt x="344" y="659" on="0"/>
        <pt x="421" y="650" on="0"/>
        <pt x="465" y="650" on="1"/>
        <pt x="482" y="650" on="0"/>
        <pt x="519" y="658" on="0"/>
        <pt x="536" y="676" on="1"/>
      </contour>
      <contour>
        <pt x="537" y="460" on="1"/>
        <pt x="440" y="0" on="1"/>
        <pt x="385" y="0" on="1"/>
        <pt x="395" y="82" on="1"/>
        <pt x="391" y="82" on="1"/>
        <pt x="359" y="45" on="0"/>
        <pt x="255" y="-12" on="0"/>
        <pt x="191" y="-12" on="1"/>
        <pt x="150" y="-12" on="0"/>
        <pt x="90" y="17" on="0"/>
        <pt x="51" y="67" on="0"/>
        <pt x="32" y="134" on="0"/>
        <pt x="32" y="171" on="1"/>
        <pt x="32" y="228" on="0"/>
        <pt x="69" y="337" on="0"/>
        <pt x="140" y="422" on="0"/>
        <pt x="241" y="475" on="0"/>
        <pt x="305" y="475" on="1"/>
        <pt x="372" y="475" on="0"/>
        <pt x="446" y="417" on="0"/>
        <pt x="450" y="374" on="1"/>
        <pt x="482" y="460" on="1"/>
      </contour>
      <contour>
        <pt x="211" y="47" on="1"/>
        <pt x="259" y="47" on="0"/>
        <pt x="364" y="99" on="0"/>
        <pt x="402" y="148" on="1"/>
        <pt x="433" y="295" on="1"/>
        <pt x="427" y="352" on="0"/>
        <pt x="356" y="416" on="0"/>
        <pt x="303" y="416" on="1"/>
        <pt x="261" y="416" on="0"/>
        <pt x="188" y="378" on="0"/>
        <pt x="136" y="314" on="0"/>
        <pt x="106" y="226" on="0"/>
        <pt x="106" y="177" on="1"/>
        <pt x="106" y="152" on="0"/>
        <pt x="117" y="105" on="0"/>
        <pt x="142" y="69" on="0"/>
        <pt x="182" y="47" on="0"/>
      </contour>
    </TTGlyph>
    <TTGlyph name="b" xMin="19" yMin="-12" xMax="524" yMax="740">
      <contour>
        <pt x="263" y="-12" on="1"/>
        <pt x="199" y="-12" on="0"/>
        <pt x="120" y="45" on="0"/>
        <pt x="103" y="82" on="1"/>
        <pt x="99" y="82" on="1"/>
        <pt x="74" y="0" on="1"/>
        <pt x="19" y="0" on="1"/>
        <pt x="176" y="740" on="1"/>
        <pt x="246" y="740" on="1"/>
        <pt x="168" y="374" on="1"/>
        <pt x="191" y="417" on="0"/>
        <pt x="291" y="475" on="0"/>
        <pt x="356" y="475" on="1"/>
        <pt x="399" y="475" on="0"/>
        <pt x="463" y="445" on="0"/>
        <pt x="504" y="394" on="0"/>
        <pt x="524" y="325" on="0"/>
        <pt x="524" y="286" on="1"/>
        <pt x="524" y="232" on="0"/>
        <pt x="489" y="125" on="0"/>
        <pt x="422" y="41" on="0"/>
        <pt x="325" y="-12" on="0"/>
      </contour>
      <contour>
        <pt x="268" y="47" on="1"/>
        <pt x="317" y="47" on="0"/>
        <pt x="385" y="92" on="0"/>
        <pt x="429" y="161" on="0"/>
        <pt x="449" y="240" on="0"/>
        <pt x="449" y="275" on="1"/>
        <pt x="449" y="338" on="0"/>
        <pt x="390" y="416" on="0"/>
        <pt x="333" y="416" on="1"/>
        <pt x="280" y="416" on="0"/>
        <pt x="182" y="352" on="0"/>
        <pt x="152" y="295" on="1"/>
        <pt x="120" y="148" on="1"/>
        <pt x="139" y="100" on="0"/>
        <pt x="220" y="47" on="0"/>
      </contour>
    </TTGlyph>
    <TTGlyph name="backslash" xMin="126" yMin="-57" xMax="316" yMax="702">
      <contour>
        <pt x="126" y="702" on="1"/>
        <pt x="199" y="702" on="1"/>
        <pt x="316" y="-57" on="1"/>
        <pt x="243" y="-57" on="1"/>
      </contour>
    </TTGlyph>
    <TTGlyph name="bar" xMin="8" yMin="-114" xMax="257" yMax="768">
      <contour>
        <pt x="70" y="-114" on="1"/>
        <pt x="8" y="-114" on="1"/>
        <pt x="195" y="768" on="1"/>
        <pt x="257" y="768" on="1"/>
      </contour>
    </TTGlyph>
    <TTGlyph name="braceleft" xMin="43" yMin="-106" xMax="342" yMax="760">
      <contour>
        <pt x="340" y="739" on="1"/>
        <pt x="317" y="737" on="0"/>
        <pt x="287" y="719" on="0"/>
        <pt x="268" y="692" on="0"/>
        <pt x="257" y="656" on="0"/>
        <pt x="253" y="637" on="1"/>
        <pt x="225" y="494" on="1"/>
        <pt x="219" y="463" on="0"/>
        <pt x="199" y="408" on="0"/>
        <pt x="168" y="364" on="0"/>
        <pt x="124" y="333" on="0"/>
        <pt x="95" y="327" on="1"/>
        <pt x="133" y="318" on="0"/>
        <pt x="162" y="257" on="0"/>
        <pt x="162" y="217" on="1"/>
        <pt x="162" y="190" on="0"/>
        <pt x="147" y="123" on="0"/>
        <pt x="130" y="56" on="0"/>
        <pt x="115" y="-4" on="0"/>
        <pt x="115" y="-23" on="1"/>
        <pt x="115" y="-46" on="0"/>
        <pt x="136" y="-82" on="0"/>
        <pt x="165" y="-85" on="1"/>
        <pt x="158" y="-106" on="1"/>
        <pt x="126" y="-106" on="0"/>
        <pt x="83" y="-92" on="0"/>
        <pt x="57" y="-68" on="0"/>
        <pt x="47" y="-33" on="0"/>
        <pt x="47" y="-12" on="1"/>
        <pt x="47" y="12" on="0"/>
        <pt x="63" y="78" on="0"/>
        <pt x="81" y="148" on="0"/>
        <pt x="97" y="214" on="0"/>
        <pt x="97" y="237" on="1"/>
        <pt x="97" y="249" on="0"/>
        <pt x="92" y="275" on="0"/>
        <pt x="80" y="297" on="0"/>
        <pt x="59" y="311" on="0"/>
        <pt x="43" y="312" on="1"/>
        <pt x="49" y="342" on="1"/>
        <pt x="76" y="343" on="0"/>
        <pt x="112" y="371" on="0"/>
        <pt x="134" y="411" on="0"/>
        <pt x="145" y="455" on="0"/>
        <pt x="149" y="473" on="1"/>
        <pt x="162" y="534" on="0"/>
        <pt x="178" y="640" on="0"/>
        <pt x="212" y="716" on="0"/>
        <pt x="278" y="760" on="0"/>
        <pt x="342" y="760" on="1"/>
      </contour>
    </TTGlyph>
    <TTGlyph name="braceright" xMin="-37" yMin="-106" xMax="262" yMax="760">
      <contour>
        <pt x="147" y="760" on="1"/>
        <pt x="211" y="760" on="0"/>
        <pt x="258" y="708" on="0"/>
        <pt x="258" y="666" on="1"/>
        <pt x="258" y="642" on="0"/>
        <pt x="243" y="576" on="0"/>
        <pt x="224" y="506" on="0"/>
        <pt x="209" y="441" on="0"/>
        <pt x="209" y="418" on="1"/>
        <pt x="209" y="406" on="0"/>
        <pt x="214" y="380" on="0"/>
        <pt x="226" y="358" on="0"/>
        <pt x="246" y="343" on="0"/>
        <pt x="262" y="342" on="1"/>
        <pt x="256" y="312" on="1"/>
        <pt x="229" y="311" on="0"/>
        <pt x="194" y="284" on="0"/>
        <pt x="172" y="246" on="0"/>
        <pt x="161" y="202" on="0"/>
        <pt x="157" y="184" on="1"/>
        <pt x="144" y="123" on="0"/>
        <pt x="128" y="17" on="0"/>
        <pt x="93" y="-61" on="0"/>
        <pt x="26" y="-106" on="0"/>
        <pt x="-37" y="-106" on="1"/>
        <pt x="-35" y="-85" on="1"/>
        <pt x="-12" y="-83" on="0"/>
        <pt x="18" y="-65" on="0"/>
        <pt x="37" y="-38" on="0"/>
        <pt x="48" y="-3" on="0"/>
        <pt x="52" y="17" on="1"/>
        <pt x="62" y="65" on="0"/>
        <pt x="79" y="166" on="0"/>
        <pt x="111" y="253" on="0"/>
        <pt x="164" y="317" on="0"/>
        <pt x="210" y="327" on="1"/>
        <pt x="173" y="336" on="0"/>
        <pt x="143" y="397" on="0"/>
        <pt x="143" y="437" on="1"/>
        <pt x="143" y="464" on="0"/>
        <pt x="158" y="531" on="0"/>
        <pt x="175" y="598" on="0"/>
        <pt x="190" y="658" on="0"/>
        <pt x="190" y="677" on="1"/>
        <pt x="190" y="700" on="0"/>
        <pt x="170" y="736" on="0"/>
        <pt x="141" y="739" on="1"/>
      </contour>
    </TTGlyph>
    <TTGlyph name="bracketleft" xMin="12" yMin="-95" xMax="351" yMax="749">
      <contour>
        <pt x="172" y="-95" on="1"/>
        <pt x="12" y="-95" on="1"/>
        <pt x="191" y="749" on="1"/>
        <pt x="351" y="749" on="1"/>
        <pt x="342" y="707" on="1"/>
        <pt x="247" y="707" on="1"/>
        <pt x="86" y="-53" on="1"/>
        <pt x="181" y="-53" on="1"/>
      </contour>
    </TTGlyph>
    <TTGlyph name="bracketright" xMin="-43" yMin="-95" xMax="296" yMax="749">
      <contour>
        <pt x="136" y="749" on="1"/>
        <pt x="296" y="749" on="1"/>
        <pt x="117" y="-95" on="1"/>
        <pt x="-43" y="-95" on="1"/>
        <pt x="-34" y="-53" on="1"/>
        <pt x="61" y="-53" on="1"/>
        <pt x="222" y="707" on="1"/>
        <pt x="127" y="707" on="1"/>
      </contour>
    </TTGlyph>
    <TTGlyph name="brokenbar" xMin="9" yMin="-114" xMax="258" yMax="768">
      <contour>
        <pt x="153" y="274" on="1"/>
        <pt x="71" y="-114" on="1"/>
        <pt x="9" y="-114" on="1"/>
        <pt x="91" y="274" on="1"/>
      </contour>
      <contour>
        <pt x="114" y="380" on="1"/>
        <pt x="196" y="768" on="1"/>
        <pt x="258" y="768" on="1"/>
        <pt x="176" y="380" on="1"/>
      </contour>
    </TTGlyph>
    <TTGlyph name="bullet" xMin="89" yMin="176" xMax="228" yMax="312">
      <contour>
        <pt x="89" y="231" on="1"/>
        <pt x="89" y="246" on="0"/>
        <pt x="103" y="276" on="0"/>
        <pt x="127" y="298" on="0"/>
        <pt x="157" y="312" on="0"/>
        <pt x="173" y="312" on="1"/>
        <pt x="196" y="312" on="0"/>
        <pt x="228" y="277" on="0"/>
        <pt x="228" y="253" on="1"/>
        <pt x="228" y="237" on="0"/>
        <pt x="213" y="209" on="0"/>
        <pt x="189" y="188" on="0"/>
        <pt x="159" y="176" on="0"/>
        <pt x="144" y="176" on="1"/>
        <pt x="119" y="176" on="0"/>
        <pt x="89" y="208" on="0"/>
      </contour>
    </TTGlyph>
    <TTGlyph name="c" xMin="34" yMin="-12" xMax="490" yMax="475">
      <contour>
        <pt x="460" y="376" on="1"/>
        <pt x="441" y="393" on="0"/>
        <pt x="361" y="420" on="0"/>
        <pt x="318" y="420" on="1"/>
        <pt x="265" y="420" on="0"/>
        <pt x="187" y="380" on="0"/>
        <pt x="136" y="315" on="0"/>
        <pt x="111" y="235" on="0"/>
        <pt x="111" y="195" on="1"/>
        <pt x="111" y="164" on="0"/>
        <pt x="127" y="109" on="0"/>
        <pt x="160" y="67" on="0"/>
        <pt x="210" y="43" on="0"/>
        <pt x="245" y="43" on="1"/>
        <pt x="285" y="43" on="0"/>
        <pt x="377" y="77" on="0"/>
        <pt x="411" y="103" on="1"/>
        <pt x="411" y="38" on="1"/>
        <pt x="379" y="20" on="0"/>
        <pt x="275" y="-12" on="0"/>
        <pt x="220" y="-12" on="1"/>
        <pt x="172" y="-12" on="0"/>
        <pt x="102" y="18" on="0"/>
        <pt x="56" y="71" on="0"/>
        <pt x="34" y="141" on="0"/>
        <pt x="34" y="180" on="1"/>
        <pt x="34" y="234" on="0"/>
        <pt x="70" y="340" on="0"/>
        <pt x="144" y="423" on="0"/>
        <pt x="256" y="475" on="0"/>
        <pt x="331" y="475" on="1"/>
        <pt x="379" y="475" on="0"/>
        <pt x="466" y="453" on="0"/>
        <pt x="490" y="435" on="1"/>
      </contour>
    </TTGlyph>
    <TTGlyph name="caron" xMin="138" yMin="545" xMax="372" yMax="673">
      <contour>
        <pt x="229" y="545" on="1"/>
        <pt x="140" y="644" on="1"/>
        <pt x="138" y="650" on="1"/>
        <pt x="148" y="670" on="1"/>
        <pt x="156" y="673" on="1"/>
        <pt x="247" y="611" on="1"/>
        <pt x="364" y="673" on="1"/>
        <pt x="370" y="670" on="1"/>
        <pt x="372" y="650" on="1"/>
        <pt x="368" y="644" on="1"/>
        <pt x="237" y="545" on="1"/>
      </contour>
    </TTGlyph>
    <TTGlyph name="ccedilla" xMin="34" yMin="-203" xMax="490" yMax="475">
      <contour>
        <pt x="460" y="376" on="1"/>
        <pt x="441" y="393" on="0"/>
        <pt x="361" y="420" on="0"/>
        <pt x="318" y="420" on="1"/>
        <pt x="265" y="420" on="0"/>
        <pt x="187" y="380" on="0"/>
        <pt x="136" y="315" on="0"/>
        <pt x="111" y="235" on="0"/>
        <pt x="111" y="195" on="1"/>
        <pt x="111" y="164" on="0"/>
        <pt x="127" y="109" on="0"/>
        <pt x="160" y="67" on="0"/>
        <pt x="210" y="43" on="0"/>
        <pt x="245" y="43" on="1"/>
        <pt x="285" y="43" on="0"/>
        <pt x="374" y="74" on="0"/>
        <pt x="408" y="100" on="1"/>
        <pt x="411" y="38" on="1"/>
        <pt x="381" y="21" on="0"/>
        <pt x="284" y="-10" on="0"/>
        <pt x="231" y="-12" on="1"/>
        <pt x="199" y="-51" on="1"/>
        <pt x="208" y="-49" on="0"/>
        <pt x="226" y="-47" on="0"/>
        <pt x="233" y="-47" on="1"/>
        <pt x="263" y="-47" on="0"/>
        <pt x="298" y="-80" on="0"/>
        <pt x="298" y="-106" on="1"/>
        <pt x="298" y="-125" on="0"/>
        <pt x="277" y="-160" on="0"/>
        <pt x="242" y="-187" on="0"/>
        <pt x="195" y="-203" on="0"/>
        <pt x="169" y="-203" on="1"/>
        <pt x="145" y="-203" on="0"/>
        <pt x="99" y="-192" on="0"/>
        <pt x="82" y="-184" on="1"/>
        <pt x="83" y="-178" on="1"/>
        <pt x="101" y="-155" on="1"/>
        <pt x="108" y="-155" on="1"/>
        <pt x="119" y="-160" on="0"/>
        <pt x="154" y="-167" on="0"/>
        <pt x="174" y="-167" on="1"/>
        <pt x="200" y="-167" on="0"/>
        <pt x="237" y="-146" on="0"/>
        <pt x="237" y="-116" on="1"/>
        <pt x="237" y="-96" on="0"/>
        <pt x="212" y="-81" on="0"/>
        <pt x="194" y="-81" on="1"/>
        <pt x="182" y="-81" on="0"/>
        <pt x="156" y="-85" on="0"/>
        <pt x="144" y="-88" on="1"/>
        <pt x="138" y="-77" on="1"/>
        <pt x="195" y="-11" on="1"/>
        <pt x="153" y="-7" on="0"/>
        <pt x="93" y="26" on="0"/>
        <pt x="53" y="77" on="0"/>
        <pt x="34" y="143" on="0"/>
        <pt x="34" y="180" on="1"/>
        <pt x="34" y="234" on="0"/>
        <pt x="70" y="340" on="0"/>
        <pt x="144" y="423" on="0"/>
        <pt x="256" y="475" on="0"/>
        <pt x="331" y="475" on="1"/>
        <pt x="379" y="475" on="0"/>
        <pt x="466" y="453" on="0"/>
        <pt x="490" y="435" on="1"/>
      </contour>
    </TTGlyph>
    <TTGlyph name="cedilla" xMin="-38" yMin="-203" xMax="178" yMax="0">
      <contour>
        <pt x="-38" y="-178" on="1"/>
        <pt x="-20" y="-155" on="1"/>
        <pt x="-13" y="-155" on="1"/>
        <pt x="-2" y="-160" on="0"/>
        <pt x="35" y="-167" on="0"/>
        <pt x="54" y="-167" on="1"/>
        <pt x="79" y="-167" on="0"/>
        <pt x="118" y="-146" on="0"/>
        <pt x="118" y="-116" on="1"/>
        <pt x="118" y="-96" on="0"/>
        <pt x="92" y="-81" on="0"/>
        <pt x="74" y="-81" on="1"/>
        <pt x="62" y="-81" on="0"/>
        <pt x="35" y="-85" on="0"/>
        <pt x="24" y="-88" on="1"/>
        <pt x="18" y="-77" on="1"/>
        <pt x="85" y="0" on="1"/>
        <pt x="119" y="0" on="1"/>
        <pt x="78" y="-51" on="1"/>
        <pt x="97" y="-47" on="0"/>
        <pt x="113" y="-47" on="1"/>
        <pt x="143" y="-47" on="0"/>
        <pt x="178" y="-81" on="0"/>
        <pt x="178" y="-107" on="1"/>
        <pt x="178" y="-126" on="0"/>
        <pt x="157" y="-160" on="0"/>
        <pt x="122" y="-187" on="0"/>
        <pt x="75" y="-203" on="0"/>
        <pt x="49" y="-203" on="1"/>
        <pt x="25" y="-203" on="0"/>
        <pt x="-20" y="-192" on="0"/>
        <pt x="-38" y="-184" on="1"/>
      </contour>
    </TTGlyph>
    <TTGlyph name="cent" xMin="32" yMin="-137" xMax="484" yMax="577">
      <contour>
        <pt x="356" y="443" on="1"/>
        <pt x="395" y="440" on="0"/>
        <pt x="464" y="420" on="0"/>
        <pt x="484" y="405" on="1"/>
        <pt x="454" y="346" on="1"/>
        <pt x="438" y="360" on="0"/>
        <pt x="379" y="382" on="0"/>
        <pt x="344" y="387" on="1"/>
        <pt x="271" y="44" on="1"/>
        <pt x="307" y="49" on="0"/>
        <pt x="382" y="80" on="0"/>
        <pt x="411" y="103" on="1"/>
        <pt x="411" y="38" on="1"/>
        <pt x="385" y="23" on="0"/>
        <pt x="305" y="-5" on="0"/>
        <pt x="260" y="-10" on="1"/>
        <pt x="233" y="-137" on="1"/>
        <pt x="173" y="-137" on="1"/>
        <pt x="199" y="-11" on="1"/>
        <pt x="156" y="-8" on="0"/>
        <pt x="93" y="23" on="0"/>
        <pt x="52" y="72" on="0"/>
        <pt x="32" y="135" on="0"/>
        <pt x="32" y="171" on="1"/>
        <pt x="32" y="219" on="0"/>
        <pt x="64" y="313" on="0"/>
        <pt x="130" y="389" on="0"/>
        <pt x="229" y="439" on="0"/>
        <pt x="297" y="444" on="1"/>
        <pt x="325" y="577" on="1"/>
        <pt x="385" y="577" on="1"/>
      </contour>
      <contour>
        <pt x="109" y="187" on="1"/>
        <pt x="109" y="135" on="0"/>
        <pt x="159" y="56" on="0"/>
        <pt x="212" y="46" on="1"/>
        <pt x="285" y="388" on="1"/>
        <pt x="240" y="383" on="0"/>
        <pt x="173" y="344" on="0"/>
        <pt x="130" y="288" on="0"/>
        <pt x="109" y="221" on="0"/>
      </contour>
    </TTGlyph>
    <TTGlyph name="circumflex" xMin="121" yMin="545" xMax="355" yMax="673">
      <contour>
        <pt x="265" y="673" on="1"/>
        <pt x="353" y="574" on="1"/>
        <pt x="355" y="567" on="1"/>
        <pt x="345" y="548" on="1"/>
        <pt x="337" y="545" on="1"/>
        <pt x="246" y="606" on="1"/>
        <pt x="129" y="545" on="1"/>
        <pt x="123" y="548" on="1"/>
        <pt x="121" y="567" on="1"/>
        <pt x="125" y="574" on="1"/>
        <pt x="257" y="673" on="1"/>
      </contour>
    </TTGlyph>
    <TTGlyph name="colon" xMin="23" yMin="-11" xMax="199" yMax="455">
      <contour>
        <pt x="23" y="27" on="1"/>
        <pt x="23" y="48" on="0"/>
        <pt x="58" y="83" on="0"/>
        <pt x="81" y="83" on="1"/>
        <pt x="98" y="83" on="0"/>
        <pt x="119" y="59" on="0"/>
        <pt x="119" y="42" on="1"/>
        <pt x="119" y="31" on="0"/>
        <pt x="108" y="12" on="0"/>
        <pt x="92" y="-2" on="0"/>
        <pt x="71" y="-11" on="0"/>
        <pt x="61" y="-11" on="1"/>
        <pt x="44" y="-11" on="0"/>
        <pt x="23" y="11" on="0"/>
      </contour>
      <contour>
        <pt x="103" y="400" on="1"/>
        <pt x="103" y="421" on="0"/>
        <pt x="138" y="455" on="0"/>
        <pt x="160" y="455" on="1"/>
        <pt x="177" y="455" on="0"/>
        <pt x="199" y="432" on="0"/>
        <pt x="199" y="415" on="1"/>
        <pt x="199" y="393" on="0"/>
        <pt x="161" y="361" on="0"/>
        <pt x="140" y="361" on="1"/>
        <pt x="123" y="361" on="0"/>
        <pt x="103" y="383" on="0"/>
      </contour>
    </TTGlyph>
    <TTGlyph name="comma" xMin="-6" yMin="-97" xMax="122" yMax="85">
      <contour>
        <pt x="-6" y="-78" on="1"/>
        <pt x="49" y="-5" on="1"/>
        <pt x="24" y="-5" on="1"/>
        <pt x="43" y="85" on="1"/>
        <pt x="122" y="85" on="1"/>
        <pt x="99" y="-20" on="1"/>
        <pt x="10" y="-97" on="1"/>
      </contour>
    </TTGlyph>
    <TTGlyph name="copyright" xMin="71" yMin="52" xMax="691" yMax="654">
      <contour>
        <pt x="444" y="654" on="1"/>
        <pt x="499" y="654" on="0"/>
        <pt x="590" y="615" on="0"/>
        <pt x="655" y="548" on="0"/>
        <pt x="691" y="457" on="0"/>
        <pt x="691" y="405" on="1"/>
        <pt x="691" y="333" on="0"/>
        <pt x="627" y="205" on="0"/>
        <pt x="522" y="108" on="0"/>
        <pt x="385" y="52" on="0"/>
        <pt x="312" y="52" on="1"/>
        <pt x="259" y="52" on="0"/>
        <pt x="170" y="91" on="0"/>
        <pt x="106" y="159" on="0"/>
        <pt x="71" y="251" on="0"/>
        <pt x="71" y="303" on="1"/>
        <pt x="71" y="373" on="0"/>
        <pt x="134" y="501" on="0"/>
        <pt x="239" y="597" on="0"/>
        <pt x="373" y="654" on="0"/>
      </contour>
      <contour>
        <pt x="436" y="613" on="1"/>
        <pt x="374" y="613" on="0"/>
        <pt x="260" y="564" on="0"/>
        <pt x="171" y="480" on="0"/>
        <pt x="118" y="369" on="0"/>
        <pt x="118" y="307" on="1"/>
        <pt x="118" y="262" on="0"/>
        <pt x="147" y="183" on="0"/>
        <pt x="201" y="126" on="0"/>
        <pt x="276" y="93" on="0"/>
        <pt x="321" y="93" on="1"/>
        <pt x="385" y="93" on="0"/>
        <pt x="502" y="142" on="0"/>
        <pt x="591" y="225" on="0"/>
        <pt x="644" y="337" on="0"/>
        <pt x="644" y="400" on="1"/>
        <pt x="644" y="445" on="0"/>
        <pt x="614" y="523" on="0"/>
        <pt x="560" y="580" on="0"/>
        <pt x="483" y="613" on="0"/>
      </contour>
      <contour>
        <pt x="505" y="442" on="1"/>
        <pt x="492" y="454" on="0"/>
        <pt x="435" y="472" on="0"/>
        <pt x="406" y="472" on="1"/>
        <pt x="370" y="472" on="0"/>
        <pt x="320" y="446" on="0"/>
        <pt x="290" y="405" on="0"/>
        <pt x="276" y="355" on="0"/>
        <pt x="276" y="330" on="1"/>
        <pt x="276" y="291" on="0"/>
        <pt x="316" y="237" on="0"/>
        <pt x="360" y="237" on="1"/>
        <pt x="389" y="237" on="0"/>
        <pt x="453" y="260" on="0"/>
        <pt x="477" y="279" on="1"/>
        <pt x="474" y="223" on="1"/>
        <pt x="451" y="210" on="0"/>
        <pt x="378" y="188" on="0"/>
        <pt x="340" y="188" on="1"/>
        <pt x="274" y="188" on="0"/>
        <pt x="213" y="263" on="0"/>
        <pt x="213" y="317" on="1"/>
        <pt x="213" y="354" on="0"/>
        <pt x="236" y="428" on="0"/>
        <pt x="285" y="485" on="0"/>
        <pt x="362" y="521" on="0"/>
        <pt x="416" y="521" on="1"/>
        <pt x="449" y="521" on="0"/>
        <pt x="511" y="506" on="0"/>
        <pt x="528" y="493" on="1"/>
      </contour>
    </TTGlyph>
    <TTGlyph name="currency" xMin="6" yMin="-3" xMax="557" yMax="461">
      <contour>
        <pt x="101" y="107" on="1"/>
        <pt x="90" y="126" on="0"/>
        <pt x="78" y="173" on="0"/>
        <pt x="78" y="196" on="1"/>
        <pt x="78" y="212" on="0"/>
        <pt x="83" y="245" on="0"/>
        <pt x="98" y="283" on="0"/>
        <pt x="128" y="326" on="0"/>
        <pt x="154" y="351" on="1"/>
        <pt x="89" y="431" on="1"/>
        <pt x="125" y="461" on="1"/>
        <pt x="188" y="382" on="1"/>
        <pt x="225" y="405" on="0"/>
        <pt x="288" y="426" on="0"/>
        <pt x="322" y="426" on="1"/>
        <pt x="357" y="426" on="0"/>
        <pt x="411" y="405" on="0"/>
        <pt x="435" y="382" on="1"/>
        <pt x="533" y="460" on="1"/>
        <pt x="557" y="431" on="1"/>
        <pt x="461" y="351" on="1"/>
        <pt x="472" y="330" on="0"/>
        <pt x="483" y="284" on="0"/>
        <pt x="483" y="261" on="1"/>
        <pt x="483" y="223" on="0"/>
        <pt x="452" y="151" on="0"/>
        <pt x="410" y="107" on="1"/>
        <pt x="473" y="27" on="1"/>
        <pt x="436" y="-3" on="1"/>
        <pt x="371" y="76" on="1"/>
        <pt x="338" y="54" on="0"/>
        <pt x="273" y="31" on="0"/>
        <pt x="240" y="31" on="1"/>
        <pt x="208" y="31" on="0"/>
        <pt x="154" y="53" on="0"/>
        <pt x="125" y="76" on="1"/>
        <pt x="29" y="-3" on="1"/>
        <pt x="6" y="27" on="1"/>
      </contour>
      <contour>
        <pt x="313" y="378" on="1"/>
        <pt x="278" y="378" on="0"/>
        <pt x="213" y="350" on="0"/>
        <pt x="161" y="303" on="0"/>
        <pt x="130" y="239" on="0"/>
        <pt x="130" y="203" on="1"/>
        <pt x="130" y="177" on="0"/>
        <pt x="147" y="132" on="0"/>
        <pt x="179" y="99" on="0"/>
        <pt x="223" y="80" on="0"/>
        <pt x="250" y="80" on="1"/>
        <pt x="285" y="80" on="0"/>
        <pt x="350" y="108" on="0"/>
        <pt x="401" y="156" on="0"/>
        <pt x="432" y="219" on="0"/>
        <pt x="432" y="255" on="1"/>
        <pt x="432" y="281" on="0"/>
        <pt x="415" y="326" on="0"/>
        <pt x="384" y="359" on="0"/>
        <pt x="340" y="378" on="0"/>
      </contour>
    </TTGlyph>
    <TTGlyph name="d" xMin="33" yMin="-12" xMax="598" yMax="740">
      <contour>
        <pt x="192" y="-12" on="1"/>
        <pt x="151" y="-12" on="0"/>
        <pt x="91" y="17" on="0"/>
        <pt x="52" y="67" on="0"/>
        <pt x="33" y="134" on="0"/>
        <pt x="33" y="171" on="1"/>
        <pt x="33" y="228" on="0"/>
        <pt x="70" y="337" on="0"/>
        <pt x="141" y="422" on="0"/>
        <pt x="242" y="475" on="0"/>
        <pt x="306" y="475" on="1"/>
        <pt x="373" y="475" on="0"/>
        <pt x="447" y="417" on="0"/>
        <pt x="451" y="374" on="1"/>
        <pt x="528" y="740" on="1"/>
        <pt x="598" y="740" on="1"/>
        <pt x="441" y="0" on="1"/>
        <pt x="386" y="0" on="1"/>
        <pt x="396" y="82" on="1"/>
        <pt x="392" y="82" on="1"/>
        <pt x="360" y="45" on="0"/>
        <pt x="256" y="-12" on="0"/>
      </contour>
      <contour>
        <pt x="212" y="47" on="1"/>
        <pt x="260" y="47" on="0"/>
        <pt x="365" y="99" on="0"/>
        <pt x="403" y="148" on="1"/>
        <pt x="434" y="295" on="1"/>
        <pt x="428" y="352" on="0"/>
        <pt x="357" y="416" on="0"/>
        <pt x="304" y="416" on="1"/>
        <pt x="262" y="416" on="0"/>
        <pt x="189" y="378" on="0"/>
        <pt x="137" y="314" on="0"/>
        <pt x="107" y="226" on="0"/>
        <pt x="107" y="177" on="1"/>
        <pt x="107" y="152" on="0"/>
        <pt x="118" y="105" on="0"/>
        <pt x="143" y="69" on="0"/>
        <pt x="183" y="47" on="0"/>
      </contour>
    </TTGlyph>
    <TTGlyph name="dagger" xMin="69" yMin="109" xMax="479" yMax="692">
      <contour>
        <pt x="154" y="109" on="1"/>
        <pt x="236" y="434" on="1"/>
        <pt x="69" y="422" on="1"/>
        <pt x="85" y="495" on="1"/>
        <pt x="246" y="483" on="1"/>
        <pt x="278" y="692" on="1"/>
        <pt x="368" y="692" on="1"/>
        <pt x="312" y="483" on="1"/>
        <pt x="479" y="495" on="1"/>
        <pt x="463" y="422" on="1"/>
        <pt x="302" y="434" on="1"/>
        <pt x="244" y="109" on="1"/>
      </contour>
    </TTGlyph>
    <TTGlyph name="daggerdbl" xMin="24" yMin="-71" xMax="497" yMax="692">
      <contour>
        <pt x="134" y="-71" on="1"/>
        <pt x="190" y="138" on="1"/>
        <pt x="181" y="138" on="1"/>
        <pt x="24" y="125" on="1"/>
        <pt x="40" y="199" on="1"/>
        <pt x="191" y="186" on="1"/>
        <pt x="201" y="186" on="1"/>
        <pt x="254" y="434" on="1"/>
        <pt x="244" y="434" on="1"/>
        <pt x="87" y="422" on="1"/>
        <pt x="103" y="495" on="1"/>
        <pt x="254" y="483" on="1"/>
        <pt x="264" y="483" on="1"/>
        <pt x="297" y="692" on="1"/>
        <pt x="387" y="692" on="1"/>
        <pt x="330" y="483" on="1"/>
        <pt x="339" y="483" on="1"/>
        <pt x="497" y="495" on="1"/>
        <pt x="481" y="422" on="1"/>
        <pt x="329" y="434" on="1"/>
        <pt x="320" y="434" on="1"/>
        <pt x="267" y="186" on="1"/>
        <pt x="276" y="186" on="1"/>
        <pt x="434" y="199" on="1"/>
        <pt x="418" y="125" on="1"/>
        <pt x="266" y="138" on="1"/>
        <pt x="257" y="138" on="1"/>
        <pt x="224" y="-71" on="1"/>
      </contour>
    </TTGlyph>
    <TTGlyph name="degree" xMin="108" yMin="429" xMax="358" yMax="658">
      <contour>
        <pt x="257" y="658" on="1"/>
        <pt x="309" y="658" on="0"/>
        <pt x="358" y="603" on="0"/>
        <pt x="358" y="563" on="1"/>
        <pt x="358" y="537" on="0"/>
        <pt x="339" y="489" on="0"/>
        <pt x="301" y="452" on="0"/>
        <pt x="245" y="429" on="0"/>
        <pt x="208" y="429" on="1"/>
        <pt x="155" y="429" on="0"/>
        <pt x="108" y="484" on="0"/>
        <pt x="108" y="520" on="1"/>
        <pt x="108" y="547" on="0"/>
        <pt x="129" y="597" on="0"/>
        <pt x="168" y="635" on="0"/>
        <pt x="223" y="658" on="0"/>
      </contour>
      <contour>
        <pt x="216" y="467" on="1"/>
        <pt x="262" y="467" on="0"/>
        <pt x="307" y="520" on="0"/>
        <pt x="307" y="557" on="1"/>
        <pt x="307" y="583" on="0"/>
        <pt x="279" y="617" on="0"/>
        <pt x="247" y="617" on="1"/>
        <pt x="223" y="617" on="0"/>
        <pt x="189" y="602" on="0"/>
        <pt x="166" y="576" on="0"/>
        <pt x="156" y="544" on="0"/>
        <pt x="156" y="527" on="1"/>
        <pt x="156" y="501" on="0"/>
        <pt x="185" y="467" on="0"/>
      </contour>
    </TTGlyph>
    <TTGlyph name="dieresis" xMin="133" yMin="587" xMax="355" yMax="676">
      <contour>
        <pt x="133" y="623" on="1"/>
        <pt x="133" y="643" on="0"/>
        <pt x="165" y="676" on="0"/>
        <pt x="185" y="676" on="1"/>
        <pt x="199" y="676" on="0"/>
        <pt x="218" y="654" on="0"/>
        <pt x="218" y="638" on="1"/>
        <pt x="218" y="617" on="0"/>
        <pt x="185" y="587" on="0"/>
        <pt x="166" y="587" on="1"/>
        <pt x="151" y="587" on="0"/>
        <pt x="133" y="607" on="0"/>
      </contour>
      <contour>
        <pt x="270" y="623" on="1"/>
        <pt x="270" y="643" on="0"/>
        <pt x="302" y="676" on="0"/>
        <pt x="322" y="676" on="1"/>
        <pt x="336" y="676" on="0"/>
        <pt x="355" y="654" on="0"/>
        <pt x="355" y="638" on="1"/>
        <pt x="355" y="617" on="0"/>
        <pt x="322" y="587" on="0"/>
        <pt x="303" y="587" on="1"/>
        <pt x="288" y="587" on="0"/>
        <pt x="270" y="607" on="0"/>
      </contour>
    </TTGlyph>
    <TTGlyph name="divide" xMin="62" yMin="33" xMax="487" yMax="445">
      <contour>
        <pt x="487" y="265" on="1"/>
        <pt x="476" y="213" on="1"/>
        <pt x="62" y="213" on="1"/>
        <pt x="73" y="265" on="1"/>
      </contour>
      <contour>
        <pt x="204" y="72" on="1"/>
        <pt x="204" y="94" on="0"/>
        <pt x="240" y="127" on="0"/>
        <pt x="262" y="127" on="1"/>
        <pt x="278" y="127" on="0"/>
        <pt x="300" y="104" on="0"/>
        <pt x="300" y="87" on="1"/>
        <pt x="300" y="76" on="0"/>
        <pt x="289" y="57" on="0"/>
        <pt x="273" y="42" on="0"/>
        <pt x="252" y="33" on="0"/>
        <pt x="242" y="33" on="1"/>
        <pt x="225" y="33" on="0"/>
        <pt x="204" y="55" on="0"/>
      </contour>
      <contour>
        <pt x="271" y="389" on="1"/>
        <pt x="271" y="410" on="0"/>
        <pt x="307" y="445" on="0"/>
        <pt x="329" y="445" on="1"/>
        <pt x="345" y="445" on="0"/>
        <pt x="367" y="421" on="0"/>
        <pt x="367" y="404" on="1"/>
        <pt x="367" y="393" on="0"/>
        <pt x="356" y="374" on="0"/>
        <pt x="340" y="360" on="0"/>
        <pt x="319" y="351" on="0"/>
        <pt x="309" y="351" on="1"/>
        <pt x="292" y="351" on="0"/>
        <pt x="271" y="373" on="0"/>
      </contour>
    </TTGlyph>
    <TTGlyph name="dollar" xMin="-5" yMin="-96" xMax="527" yMax="750">
      <contour>
        <pt x="383" y="664" on="1"/>
        <pt x="427" y="661" on="0"/>
        <pt x="501" y="641" on="0"/>
        <pt x="527" y="627" on="1"/>
        <pt x="490" y="550" on="1"/>
        <pt x="470" y="572" on="0"/>
        <pt x="403" y="594" on="0"/>
        <pt x="369" y="597" on="1"/>
        <pt x="323" y="378" on="1"/>
        <pt x="351" y="367" on="0"/>
        <pt x="406" y="341" on="0"/>
        <pt x="448" y="303" on="0"/>
        <pt x="474" y="251" on="0"/>
        <pt x="474" y="214" on="1"/>
        <pt x="474" y="159" on="0"/>
        <pt x="435" y="78" on="0"/>
        <pt x="370" y="24" on="0"/>
        <pt x="286" y="-6" on="0"/>
        <pt x="240" y="-10" on="1"/>
        <pt x="222" y="-96" on="1"/>
        <pt x="162" y="-96" on="1"/>
        <pt x="180" y="-11" on="1"/>
        <pt x="122" y="-9" on="0"/>
        <pt x="28" y="22" on="0"/>
        <pt x="-5" y="43" on="1"/>
        <pt x="32" y="116" on="1"/>
        <pt x="47" y="104" on="0"/>
        <pt x="78" y="82" on="0"/>
        <pt x="116" y="65" on="0"/>
        <pt x="163" y="55" on="0"/>
        <pt x="194" y="54" on="1"/>
        <pt x="249" y="313" on="1"/>
        <pt x="216" y="325" on="0"/>
        <pt x="162" y="353" on="0"/>
        <pt x="124" y="389" on="0"/>
        <pt x="103" y="435" on="0"/>
        <pt x="103" y="465" on="1"/>
        <pt x="103" y="513" on="0"/>
        <pt x="137" y="585" on="0"/>
        <pt x="197" y="634" on="0"/>
        <pt x="277" y="661" on="0"/>
        <pt x="323" y="664" on="1"/>
        <pt x="342" y="750" on="1"/>
        <pt x="402" y="750" on="1"/>
      </contour>
      <contour>
        <pt x="392" y="183" on="1"/>
        <pt x="392" y="204" on="0"/>
        <pt x="378" y="236" on="0"/>
        <pt x="354" y="262" on="0"/>
        <pt x="322" y="283" on="0"/>
        <pt x="304" y="291" on="1"/>
        <pt x="254" y="56" on="1"/>
        <pt x="329" y="65" on="0"/>
        <pt x="392" y="136" on="0"/>
      </contour>
      <contour>
        <pt x="179" y="484" on="1"/>
        <pt x="179" y="453" on="0"/>
        <pt x="222" y="417" on="0"/>
        <pt x="267" y="399" on="1"/>
        <pt x="309" y="598" on="1"/>
        <pt x="249" y="593" on="0"/>
        <pt x="179" y="536" on="0"/>
      </contour>
    </TTGlyph>
    <TTGlyph name="dotlessi" xMin="19" yMin="0" xMax="187" yMax="460">
      <contour>
        <pt x="89" y="0" on="1"/>
        <pt x="19" y="0" on="1"/>
        <pt x="117" y="460" on="1"/>
        <pt x="187" y="460" on="1"/>
      </contour>
    </TTGlyph>
    <TTGlyph name="e" xMin="32" yMin="-12" xMax="481" yMax="475">
      <contour>
        <pt x="328" y="475" on="1"/>
        <pt x="403" y="475" on="0"/>
        <pt x="481" y="406" on="0"/>
        <pt x="481" y="343" on="1"/>
        <pt x="481" y="314" on="0"/>
        <pt x="463" y="257" on="0"/>
        <pt x="454" y="245" on="1"/>
        <pt x="114" y="245" on="1"/>
        <pt x="108" y="216" on="0"/>
        <pt x="108" y="188" on="1"/>
        <pt x="108" y="158" on="0"/>
        <pt x="123" y="105" on="0"/>
        <pt x="154" y="65" on="0"/>
        <pt x="203" y="41" on="0"/>
        <pt x="236" y="41" on="1"/>
        <pt x="260" y="41" on="0"/>
        <pt x="309" y="52" on="0"/>
        <pt x="354" y="69" on="0"/>
        <pt x="395" y="89" on="0"/>
        <pt x="411" y="99" on="1"/>
        <pt x="411" y="42" on="1"/>
        <pt x="396" y="34" on="0"/>
        <pt x="354" y="15" on="0"/>
        <pt x="304" y="-1" on="0"/>
        <pt x="247" y="-12" on="0"/>
        <pt x="217" y="-12" on="1"/>
        <pt x="170" y="-12" on="0"/>
        <pt x="101" y="19" on="0"/>
        <pt x="55" y="71" on="0"/>
        <pt x="32" y="141" on="0"/>
        <pt x="32" y="180" on="1"/>
        <pt x="32" y="236" on="0"/>
        <pt x="74" y="342" on="0"/>
        <pt x="152" y="425" on="0"/>
        <pt x="261" y="475" on="0"/>
      </contour>
      <contour>
        <pt x="313" y="419" on="1"/>
        <pt x="244" y="419" on="0"/>
        <pt x="154" y="349" on="0"/>
        <pt x="131" y="298" on="1"/>
        <pt x="408" y="298" on="1"/>
        <pt x="410" y="303" on="0"/>
        <pt x="415" y="316" on="0"/>
        <pt x="415" y="334" on="1"/>
        <pt x="415" y="376" on="0"/>
        <pt x="355" y="419" on="0"/>
      </contour>
    </TTGlyph>
    <TTGlyph name="eacute" xMin="32" yMin="-12" xMax="492" yMax="680">
      <contour>
        <pt x="328" y="475" on="1"/>
        <pt x="403" y="475" on="0"/>
        <pt x="481" y="406" on="0"/>
        <pt x="481" y="343" on="1"/>
        <pt x="481" y="314" on="0"/>
        <pt x="463" y="257" on="0"/>
        <pt x="454" y="245" on="1"/>
        <pt x="114" y="245" on="1"/>
        <pt x="108" y="216" on="0"/>
        <pt x="108" y="188" on="1"/>
        <pt x="108" y="158" on="0"/>
        <pt x="123" y="105" on="0"/>
        <pt x="154" y="65" on="0"/>
        <pt x="203" y="41" on="0"/>
        <pt x="236" y="41" on="1"/>
        <pt x="284" y="41" on="0"/>
        <pt x="377" y="75" on="0"/>
        <pt x="409" y="95" on="1"/>
        <pt x="411" y="42" on="1"/>
        <pt x="396" y="34" on="0"/>
        <pt x="354" y="15" on="0"/>
        <pt x="304" y="-1" on="0"/>
        <pt x="247" y="-12" on="0"/>
        <pt x="217" y="-12" on="1"/>
        <pt x="170" y="-12" on="0"/>
        <pt x="101" y="19" on="0"/>
        <pt x="55" y="71" on="0"/>
        <pt x="32" y="141" on="0"/>
        <pt x="32" y="180" on="1"/>
        <pt x="32" y="236" on="0"/>
        <pt x="74" y="342" on="0"/>
        <pt x="152" y="425" on="0"/>
        <pt x="261" y="475" on="0"/>
      </contour>
      <contour>
        <pt x="313" y="419" on="1"/>
        <pt x="244" y="419" on="0"/>
        <pt x="154" y="349" on="0"/>
        <pt x="131" y="298" on="1"/>
        <pt x="408" y="298" on="1"/>
        <pt x="410" y="303" on="0"/>
        <pt x="415" y="316" on="0"/>
        <pt x="415" y="334" on="1"/>
        <pt x="415" y="376" on="0"/>
        <pt x="355" y="419" on="0"/>
      </contour>
      <contour>
        <pt x="259" y="552" on="1"/>
        <pt x="257" y="572" on="1"/>
        <pt x="262" y="579" on="1"/>
        <pt x="463" y="680" on="1"/>
        <pt x="478" y="679" on="0"/>
        <pt x="492" y="663" on="0"/>
        <pt x="492" y="652" on="1"/>
        <pt x="492" y="643" on="0"/>
        <pt x="487" y="631" on="0"/>
        <pt x="484" y="626" on="1"/>
        <pt x="265" y="549" on="1"/>
      </contour>
    </TTGlyph>
    <TTGlyph name="ecircumflex" xMin="32" yMin="-12" xMax="481" yMax="673">
      <contour>
        <pt x="328" y="475" on="1"/>
        <pt x="403" y="475" on="0"/>
        <pt x="481" y="406" on="0"/>
        <pt x="481" y="343" on="1"/>
        <pt x="481" y="314" on="0"/>
        <pt x="463" y="257" on="0"/>
        <pt x="454" y="245" on="1"/>
        <pt x="114" y="245" on="1"/>
        <pt x="108" y="216" on="0"/>
        <pt x="108" y="188" on="1"/>
        <pt x="108" y="158" on="0"/>
        <pt x="123" y="105" on="0"/>
        <pt x="154" y="65" on="0"/>
        <pt x="203" y="41" on="0"/>
        <pt x="236" y="41" on="1"/>
        <pt x="284" y="41" on="0"/>
        <pt x="377" y="75" on="0"/>
        <pt x="409" y="95" on="1"/>
        <pt x="411" y="42" on="1"/>
        <pt x="396" y="34" on="0"/>
        <pt x="354" y="15" on="0"/>
        <pt x="304" y="-1" on="0"/>
        <pt x="247" y="-12" on="0"/>
        <pt x="217" y="-12" on="1"/>
        <pt x="170" y="-12" on="0"/>
        <pt x="101" y="19" on="0"/>
        <pt x="55" y="71" on="0"/>
        <pt x="32" y="141" on="0"/>
        <pt x="32" y="180" on="1"/>
        <pt x="32" y="236" on="0"/>
        <pt x="74" y="342" on="0"/>
        <pt x="152" y="425" on="0"/>
        <pt x="261" y="475" on="0"/>
      </contour>
      <contour>
        <pt x="313" y="419" on="1"/>
        <pt x="244" y="419" on="0"/>
        <pt x="154" y="349" on="0"/>
        <pt x="131" y="298" on="1"/>
        <pt x="408" y="298" on="1"/>
        <pt x="410" y="303" on="0"/>
        <pt x="415" y="316" on="0"/>
        <pt x="415" y="334" on="1"/>
        <pt x="415" y="376" on="0"/>
        <pt x="355" y="419" on="0"/>
      </contour>
      <contour>
        <pt x="361" y="673" on="1"/>
        <pt x="451" y="574" on="1"/>
        <pt x="451" y="567" on="1"/>
        <pt x="442" y="548" on="1"/>
        <pt x="434" y="545" on="1"/>
        <pt x="344" y="606" on="1"/>
        <pt x="227" y="545" on="1"/>
        <pt x="219" y="548" on="1"/>
        <pt x="218" y="567" on="1"/>
        <pt x="222" y="574" on="1"/>
        <pt x="354" y="673" on="1"/>
      </contour>
    </TTGlyph>
    <TTGlyph name="edieresis" xMin="32" yMin="-12" xMax="481" yMax="671">
      <contour>
        <pt x="328" y="475" on="1"/>
        <pt x="403" y="475" on="0"/>
        <pt x="481" y="406" on="0"/>
        <pt x="481" y="343" on="1"/>
        <pt x="481" y="314" on="0"/>
        <pt x="463" y="257" on="0"/>
        <pt x="454" y="245" on="1"/>
        <pt x="114" y="245" on="1"/>
        <pt x="108" y="216" on="0"/>
        <pt x="108" y="188" on="1"/>
        <pt x="108" y="158" on="0"/>
        <pt x="123" y="105" on="0"/>
        <pt x="154" y="65" on="0"/>
        <pt x="203" y="41" on="0"/>
        <pt x="236" y="41" on="1"/>
        <pt x="284" y="41" on="0"/>
        <pt x="377" y="75" on="0"/>
        <pt x="409" y="95" on="1"/>
        <pt x="411" y="42" on="1"/>
        <pt x="396" y="34" on="0"/>
        <pt x="354" y="15" on="0"/>
        <pt x="304" y="-1" on="0"/>
        <pt x="247" y="-12" on="0"/>
        <pt x="217" y="-12" on="1"/>
        <pt x="170" y="-12" on="0"/>
        <pt x="101" y="19" on="0"/>
        <pt x="55" y="71" on="0"/>
        <pt x="32" y="141" on="0"/>
        <pt x="32" y="180" on="1"/>
        <pt x="32" y="236" on="0"/>
        <pt x="74" y="342" on="0"/>
        <pt x="152" y="425" on="0"/>
        <pt x="261" y="475" on="0"/>
      </contour>
      <contour>
        <pt x="313" y="419" on="1"/>
        <pt x="244" y="419" on="0"/>
        <pt x="154" y="349" on="0"/>
        <pt x="131" y="298" on="1"/>
        <pt x="408" y="298" on="1"/>
        <pt x="410" y="303" on="0"/>
        <pt x="415" y="316" on="0"/>
        <pt x="415" y="334" on="1"/>
        <pt x="415" y="376" on="0"/>
        <pt x="355" y="419" on="0"/>
      </contour>
      <contour>
        <pt x="381" y="618" on="1"/>
        <pt x="381" y="638" on="0"/>
        <pt x="412" y="671" on="0"/>
        <pt x="432" y="671" on="1"/>
        <pt x="446" y="671" on="0"/>
        <pt x="466" y="649" on="0"/>
        <pt x="466" y="633" on="1"/>
        <pt x="466" y="612" on="0"/>
        <pt x="432" y="582" on="0"/>
        <pt x="413" y="582" on="1"/>
        <pt x="399" y="582" on="0"/>
        <pt x="381" y="602" on="0"/>
      </contour>
      <contour>
        <pt x="224" y="618" on="1"/>
        <pt x="224" y="638" on="0"/>
        <pt x="255" y="671" on="0"/>
        <pt x="275" y="671" on="1"/>
        <pt x="289" y="671" on="0"/>
        <pt x="309" y="649" on="0"/>
        <pt x="309" y="633" on="1"/>
        <pt x="309" y="612" on="0"/>
        <pt x="275" y="582" on="0"/>
        <pt x="256" y="582" on="1"/>
        <pt x="242" y="582" on="0"/>
        <pt x="224" y="602" on="0"/>
      </contour>
    </TTGlyph>
    <TTGlyph name="egrave" xMin="32" yMin="-12" xMax="481" yMax="680">
      <contour>
        <pt x="328" y="475" on="1"/>
        <pt x="403" y="475" on="0"/>
        <pt x="481" y="406" on="0"/>
        <pt x="481" y="343" on="1"/>
        <pt x="481" y="314" on="0"/>
        <pt x="463" y="257" on="0"/>
        <pt x="454" y="245" on="1"/>
        <pt x="114" y="245" on="1"/>
        <pt x="108" y="216" on="0"/>
        <pt x="108" y="188" on="1"/>
        <pt x="108" y="158" on="0"/>
        <pt x="123" y="105" on="0"/>
        <pt x="154" y="65" on="0"/>
        <pt x="203" y="41" on="0"/>
        <pt x="236" y="41" on="1"/>
        <pt x="284" y="41" on="0"/>
        <pt x="377" y="75" on="0"/>
        <pt x="409" y="95" on="1"/>
        <pt x="411" y="42" on="1"/>
        <pt x="396" y="34" on="0"/>
        <pt x="354" y="15" on="0"/>
        <pt x="304" y="-1" on="0"/>
        <pt x="247" y="-12" on="0"/>
        <pt x="217" y="-12" on="1"/>
        <pt x="170" y="-12" on="0"/>
        <pt x="101" y="19" on="0"/>
        <pt x="55" y="71" on="0"/>
        <pt x="32" y="141" on="0"/>
        <pt x="32" y="180" on="1"/>
        <pt x="32" y="236" on="0"/>
        <pt x="74" y="342" on="0"/>
        <pt x="152" y="425" on="0"/>
        <pt x="261" y="475" on="0"/>
      </contour>
      <contour>
        <pt x="313" y="419" on="1"/>
        <pt x="244" y="419" on="0"/>
        <pt x="154" y="349" on="0"/>
        <pt x="131" y="298" on="1"/>
        <pt x="408" y="298" on="1"/>
        <pt x="410" y="303" on="0"/>
        <pt x="415" y="316" on="0"/>
        <pt x="415" y="334" on="1"/>
        <pt x="415" y="376" on="0"/>
        <pt x="355" y="419" on="0"/>
      </contour>
      <contour>
        <pt x="402" y="549" on="1"/>
        <pt x="217" y="626" on="1"/>
        <pt x="217" y="649" on="0"/>
        <pt x="236" y="679" on="0"/>
        <pt x="260" y="680" on="1"/>
        <pt x="419" y="579" on="1"/>
        <pt x="420" y="572" on="1"/>
        <pt x="411" y="552" on="1"/>
      </contour>
    </TTGlyph>
    <TTGlyph name="eight" xMin="35" yMin="-12" xMax="522" yMax="665">
      <contour>
        <pt x="399" y="362" on="1"/>
        <pt x="444" y="351" on="0"/>
        <pt x="488" y="280" on="0"/>
        <pt x="488" y="229" on="1"/>
        <pt x="488" y="182" on="0"/>
        <pt x="455" y="95" on="0"/>
        <pt x="387" y="28" on="0"/>
        <pt x="286" y="-12" on="0"/>
        <pt x="218" y="-12" on="1"/>
        <pt x="168" y="-12" on="0"/>
        <pt x="98" y="14" on="0"/>
        <pt x="55" y="57" on="0"/>
        <pt x="35" y="114" on="0"/>
        <pt x="35" y="146" on="1"/>
        <pt x="35" y="225" on="0"/>
        <pt x="124" y="340" on="0"/>
        <pt x="199" y="361" on="1"/>
        <pt x="200" y="365" on="1"/>
        <pt x="173" y="376" on="0"/>
        <pt x="137" y="432" on="0"/>
        <pt x="137" y="474" on="1"/>
        <pt x="137" y="515" on="0"/>
        <pt x="169" y="585" on="0"/>
        <pt x="228" y="636" on="0"/>
        <pt x="311" y="665" on="0"/>
        <pt x="363" y="665" on="1"/>
        <pt x="439" y="665" on="0"/>
        <pt x="522" y="595" on="0"/>
        <pt x="522" y="537" on="1"/>
        <pt x="522" y="506" on="0"/>
        <pt x="502" y="452" on="0"/>
        <pt x="468" y="408" on="0"/>
        <pt x="424" y="375" on="0"/>
        <pt x="400" y="366" on="1"/>
      </contour>
      <contour>
        <pt x="403" y="215" on="1"/>
        <pt x="403" y="237" on="0"/>
        <pt x="391" y="278" on="0"/>
        <pt x="364" y="309" on="0"/>
        <pt x="321" y="328" on="0"/>
        <pt x="291" y="328" on="1"/>
        <pt x="245" y="328" on="0"/>
        <pt x="179" y="295" on="0"/>
        <pt x="136" y="243" on="0"/>
        <pt x="116" y="180" on="0"/>
        <pt x="116" y="150" on="1"/>
        <pt x="116" y="102" on="0"/>
        <pt x="174" y="49" on="0"/>
        <pt x="231" y="49" on="1"/>
        <pt x="313" y="49" on="0"/>
        <pt x="403" y="139" on="0"/>
      </contour>
      <contour>
        <pt x="438" y="525" on="1"/>
        <pt x="438" y="557" on="0"/>
        <pt x="398" y="602" on="0"/>
        <pt x="349" y="602" on="1"/>
        <pt x="312" y="602" on="0"/>
        <pt x="262" y="581" on="0"/>
        <pt x="231" y="545" on="0"/>
        <pt x="217" y="499" on="0"/>
        <pt x="217" y="475" on="1"/>
        <pt x="217" y="437" on="0"/>
        <pt x="260" y="388" on="0"/>
        <pt x="303" y="388" on="1"/>
        <pt x="334" y="388" on="0"/>
        <pt x="384" y="410" on="0"/>
        <pt x="419" y="447" on="0"/>
        <pt x="438" y="497" on="0"/>
      </contour>
    </TTGlyph>
    <TTGlyph name="ellipsis" xMin="22" yMin="-11" xMax="496" yMax="83">
      <contour>
        <pt x="22" y="27" on="1"/>
        <pt x="22" y="48" on="0"/>
        <pt x="58" y="83" on="0"/>
        <pt x="80" y="83" on="1"/>
        <pt x="97" y="83" on="0"/>
        <pt x="118" y="59" on="0"/>
        <pt x="118" y="42" on="1"/>
        <pt x="118" y="31" on="0"/>
        <pt x="107" y="12" on="0"/>
        <pt x="91" y="-2" on="0"/>
        <pt x="70" y="-11" on="0"/>
        <pt x="60" y="-11" on="1"/>
        <pt x="43" y="-11" on="0"/>
        <pt x="22" y="11" on="0"/>
      </contour>
      <contour>
        <pt x="211" y="27" on="1"/>
        <pt x="211" y="48" on="0"/>
        <pt x="248" y="83" on="0"/>
        <pt x="269" y="83" on="1"/>
        <pt x="286" y="83" on="0"/>
        <pt x="307" y="59" on="0"/>
        <pt x="307" y="42" on="1"/>
        <pt x="307" y="31" on="0"/>
        <pt x="296" y="12" on="0"/>
        <pt x="280" y="-2" on="0"/>
        <pt x="259" y="-11" on="0"/>
        <pt x="249" y="-11" on="1"/>
        <pt x="232" y="-11" on="0"/>
        <pt x="211" y="11" on="0"/>
      </contour>
      <contour>
        <pt x="400" y="27" on="1"/>
        <pt x="400" y="48" on="0"/>
        <pt x="437" y="83" on="0"/>
        <pt x="458" y="83" on="1"/>
        <pt x="475" y="83" on="0"/>
        <pt x="496" y="59" on="0"/>
        <pt x="496" y="42" on="1"/>
        <pt x="496" y="31" on="0"/>
        <pt x="485" y="12" on="0"/>
        <pt x="469" y="-2" on="0"/>
        <pt x="448" y="-11" on="0"/>
        <pt x="438" y="-11" on="1"/>
        <pt x="421" y="-11" on="0"/>
        <pt x="400" y="11" on="0"/>
      </contour>
    </TTGlyph>
    <TTGlyph name="emdash" xMin="61" yMin="213" xMax="714" yMax="265">
      <contour>
        <pt x="714" y="265" on="1"/>
        <pt x="703" y="213" on="1"/>
        <pt x="61" y="213" on="1"/>
        <pt x="72" y="265" on="1"/>
      </contour>
    </TTGlyph>
    <TTGlyph name="endash" xMin="61" yMin="213" xMax="486" yMax="265">
      <contour>
        <pt x="486" y="265" on="1"/>
        <pt x="475" y="213" on="1"/>
        <pt x="61" y="213" on="1"/>
        <pt x="72" y="265" on="1"/>
      </contour>
    </TTGlyph>
    <TTGlyph name="equal" xMin="47" yMin="137" xMax="428" yMax="341">
      <contour>
        <pt x="396" y="189" on="1"/>
        <pt x="385" y="137" on="1"/>
        <pt x="47" y="137" on="1"/>
        <pt x="58" y="189" on="1"/>
      </contour>
      <contour>
        <pt x="428" y="341" on="1"/>
        <pt x="417" y="289" on="1"/>
        <pt x="79" y="289" on="1"/>
        <pt x="90" y="341" on="1"/>
      </contour>
    </TTGlyph>
    <TTGlyph name="eth" xMin="34" yMin="-12" xMax="630" yMax="740">
      <contour>
        <pt x="445" y="740" on="1"/>
        <pt x="460" y="723" on="0"/>
        <pt x="485" y="675" on="0"/>
        <pt x="496" y="645" on="1"/>
        <pt x="622" y="677" on="1"/>
        <pt x="630" y="629" on="1"/>
        <pt x="509" y="599" on="1"/>
        <pt x="520" y="557" on="0"/>
        <pt x="530" y="467" on="0"/>
        <pt x="530" y="420" on="1"/>
        <pt x="530" y="379" on="0"/>
        <pt x="520" y="283" on="0"/>
        <pt x="494" y="187" on="0"/>
        <pt x="450" y="98" on="0"/>
        <pt x="381" y="29" on="0"/>
        <pt x="285" y="-12" on="0"/>
        <pt x="220" y="-12" on="1"/>
        <pt x="169" y="-12" on="0"/>
        <pt x="99" y="20" on="0"/>
        <pt x="54" y="73" on="0"/>
        <pt x="34" y="142" on="0"/>
        <pt x="34" y="180" on="1"/>
        <pt x="34" y="234" on="0"/>
        <pt x="70" y="340" on="0"/>
        <pt x="143" y="424" on="0"/>
        <pt x="252" y="475" on="0"/>
        <pt x="325" y="475" on="1"/>
        <pt x="380" y="475" on="0"/>
        <pt x="459" y="438" on="0"/>
        <pt x="470" y="396" on="1"/>
        <pt x="473" y="397" on="1"/>
        <pt x="472" y="457" on="0"/>
        <pt x="463" y="548" on="0"/>
        <pt x="453" y="586" on="1"/>
        <pt x="321" y="554" on="1"/>
        <pt x="314" y="600" on="1"/>
        <pt x="438" y="631" on="1"/>
        <pt x="427" y="660" on="0"/>
        <pt x="394" y="712" on="0"/>
        <pt x="372" y="740" on="1"/>
      </contour>
      <contour>
        <pt x="231" y="41" on="1"/>
        <pt x="281" y="41" on="0"/>
        <pt x="358" y="86" on="0"/>
        <pt x="411" y="156" on="0"/>
        <pt x="438" y="242" on="0"/>
        <pt x="438" y="284" on="1"/>
        <pt x="438" y="351" on="0"/>
        <pt x="369" y="420" on="0"/>
        <pt x="310" y="420" on="1"/>
        <pt x="257" y="420" on="0"/>
        <pt x="182" y="377" on="0"/>
        <pt x="133" y="309" on="0"/>
        <pt x="110" y="227" on="0"/>
        <pt x="110" y="187" on="1"/>
        <pt x="110" y="158" on="0"/>
        <pt x="124" y="105" on="0"/>
        <pt x="153" y="65" on="0"/>
        <pt x="199" y="41" on="0"/>
      </contour>
    </TTGlyph>
    <TTGlyph name="exclam" xMin="31" yMin="-11" xMax="265" yMax="682">
      <contour>
        <pt x="31" y="27" on="1"/>
        <pt x="31" y="48" on="0"/>
        <pt x="68" y="83" on="0"/>
        <pt x="90" y="83" on="1"/>
        <pt x="106" y="83" on="0"/>
        <pt x="127" y="59" on="0"/>
        <pt x="127" y="42" on="1"/>
        <pt x="127" y="31" on="0"/>
        <pt x="116" y="12" on="0"/>
        <pt x="100" y="-2" on="0"/>
        <pt x="80" y="-11" on="0"/>
        <pt x="70" y="-11" on="1"/>
        <pt x="53" y="-11" on="0"/>
        <pt x="31" y="11" on="0"/>
      </contour>
      <contour>
        <pt x="79" y="150" on="1"/>
        <pt x="168" y="682" on="1"/>
        <pt x="265" y="682" on="1"/>
        <pt x="126" y="150" on="1"/>
      </contour>
    </TTGlyph>
    <TTGlyph name="exclamdown" xMin="-32" yMin="-218" xMax="202" yMax="475">
      <contour>
        <pt x="107" y="421" on="1"/>
        <pt x="107" y="443" on="0"/>
        <pt x="142" y="475" on="0"/>
        <pt x="164" y="475" on="1"/>
        <pt x="181" y="475" on="0"/>
        <pt x="202" y="453" on="0"/>
        <pt x="202" y="436" on="1"/>
        <pt x="202" y="425" on="0"/>
        <pt x="191" y="406" on="0"/>
        <pt x="175" y="390" on="0"/>
        <pt x="154" y="381" on="0"/>
        <pt x="144" y="381" on="1"/>
        <pt x="127" y="381" on="0"/>
        <pt x="107" y="405" on="0"/>
      </contour>
      <contour>
        <pt x="152" y="314" on="1"/>
        <pt x="65" y="-218" on="1"/>
        <pt x="-32" y="-218" on="1"/>
        <pt x="105" y="314" on="1"/>
      </contour>
    </TTGlyph>
    <TTGlyph name="f" xMin="-11" yMin="-260" xMax="432" yMax="745">
      <contour>
        <pt x="132" y="413" on="1"/>
        <pt x="55" y="413" on="1"/>
        <pt x="63" y="450" on="1"/>
        <pt x="142" y="459" on="1"/>
        <pt x="154" y="515" on="0"/>
        <pt x="178" y="595" on="0"/>
        <pt x="201" y="650" on="0"/>
        <pt x="223" y="685" on="0"/>
        <pt x="233" y="696" on="1"/>
        <pt x="257" y="724" on="0"/>
        <pt x="318" y="745" on="0"/>
        <pt x="348" y="745" on="1"/>
        <pt x="352" y="745" on="0"/>
        <pt x="372" y="744" on="0"/>
        <pt x="396" y="741" on="0"/>
        <pt x="421" y="734" on="0"/>
        <pt x="432" y="728" on="1"/>
        <pt x="402" y="669" on="1"/>
        <pt x="399" y="669" on="0"/>
        <pt x="379" y="676" on="0"/>
        <pt x="353" y="685" on="0"/>
        <pt x="324" y="693" on="0"/>
        <pt x="312" y="693" on="1"/>
        <pt x="297" y="693" on="0"/>
        <pt x="274" y="676" on="0"/>
        <pt x="254" y="637" on="0"/>
        <pt x="236" y="573" on="0"/>
        <pt x="226" y="526" on="1"/>
        <pt x="212" y="460" on="1"/>
        <pt x="320" y="460" on="1"/>
        <pt x="310" y="413" on="1"/>
        <pt x="202" y="413" on="1"/>
        <pt x="59" y="-260" on="1"/>
        <pt x="-11" y="-260" on="1"/>
      </contour>
    </TTGlyph>
    <TTGlyph name="fi" xMin="-12" yMin="-260" xMax="499" yMax="745">
      <contour>
        <pt x="132" y="413" on="1"/>
        <pt x="55" y="413" on="1"/>
        <pt x="63" y="450" on="1"/>
        <pt x="142" y="459" on="1"/>
        <pt x="162" y="556" on="0"/>
        <pt x="212" y="667" on="0"/>
        <pt x="240" y="696" on="1"/>
        <pt x="270" y="728" on="0"/>
        <pt x="326" y="745" on="0"/>
        <pt x="352" y="745" on="1"/>
        <pt x="402" y="745" on="0"/>
        <pt x="476" y="712" on="0"/>
        <pt x="499" y="695" on="1"/>
        <pt x="452" y="635" on="1"/>
        <pt x="413" y="663" on="0"/>
        <pt x="357" y="693" on="0"/>
        <pt x="328" y="693" on="1"/>
        <pt x="306" y="693" on="0"/>
        <pt x="276" y="674" on="0"/>
        <pt x="254" y="632" on="0"/>
        <pt x="235" y="566" on="0"/>
        <pt x="225" y="520" on="1"/>
        <pt x="212" y="460" on="1"/>
        <pt x="320" y="460" on="1"/>
        <pt x="310" y="413" on="1"/>
        <pt x="202" y="413" on="1"/>
        <pt x="58" y="-260" on="1"/>
        <pt x="-12" y="-260" on="1"/>
      </contour>
      <contour>
        <pt x="389" y="0" on="1"/>
        <pt x="319" y="0" on="1"/>
        <pt x="417" y="460" on="1"/>
        <pt x="487" y="460" on="1"/>
      </contour>
    </TTGlyph>
    <TTGlyph name="five" xMin="1" yMin="-12" xMax="538" yMax="665">
      <contour>
        <pt x="88" y="317" on="1"/>
        <pt x="199" y="665" on="1"/>
        <pt x="538" y="665" on="1"/>
        <pt x="523" y="595" on="1"/>
        <pt x="247" y="595" on="1"/>
        <pt x="176" y="382" on="1"/>
        <pt x="208" y="389" on="0"/>
        <pt x="278" y="398" on="0"/>
        <pt x="307" y="398" on="1"/>
        <pt x="385" y="398" on="0"/>
        <pt x="480" y="319" on="0"/>
        <pt x="480" y="246" on="1"/>
        <pt x="480" y="198" on="0"/>
        <pt x="441" y="105" on="0"/>
        <pt x="365" y="33" on="0"/>
        <pt x="255" y="-12" on="0"/>
        <pt x="183" y="-12" on="1"/>
        <pt x="125" y="-12" on="0"/>
        <pt x="33" y="21" on="0"/>
        <pt x="1" y="50" on="1"/>
        <pt x="37" y="120" on="1"/>
        <pt x="68" y="91" on="0"/>
        <pt x="142" y="54" on="0"/>
        <pt x="198" y="54" on="1"/>
        <pt x="289" y="54" on="0"/>
        <pt x="395" y="148" on="0"/>
        <pt x="395" y="231" on="1"/>
        <pt x="395" y="274" on="0"/>
        <pt x="335" y="327" on="0"/>
        <pt x="261" y="327" on="1"/>
        <pt x="226" y="327" on="0"/>
        <pt x="149" y="315" on="0"/>
        <pt x="114" y="302" on="1"/>
      </contour>
    </TTGlyph>
    <TTGlyph name="fl" xMin="-11" yMin="-260" xMax="552" yMax="745">
      <contour>
        <pt x="132" y="413" on="1"/>
        <pt x="55" y="413" on="1"/>
        <pt x="63" y="450" on="1"/>
        <pt x="142" y="459" on="1"/>
        <pt x="153" y="513" on="0"/>
        <pt x="181" y="591" on="0"/>
        <pt x="210" y="647" on="0"/>
        <pt x="240" y="684" on="0"/>
        <pt x="253" y="696" on="1"/>
        <pt x="284" y="725" on="0"/>
        <pt x="340" y="745" on="0"/>
        <pt x="363" y="745" on="1"/>
        <pt x="373" y="745" on="0"/>
        <pt x="405" y="744" on="0"/>
        <pt x="445" y="739" on="0"/>
        <pt x="490" y="728" on="0"/>
        <pt x="513" y="719" on="1"/>
        <pt x="552" y="740" on="1"/>
        <pt x="395" y="0" on="1"/>
        <pt x="325" y="0" on="1"/>
        <pt x="466" y="665" on="1"/>
        <pt x="441" y="679" on="0"/>
        <pt x="370" y="693" on="0"/>
        <pt x="333" y="693" on="1"/>
        <pt x="317" y="693" on="0"/>
        <pt x="287" y="675" on="0"/>
        <pt x="260" y="635" on="0"/>
        <pt x="235" y="569" on="0"/>
        <pt x="225" y="520" on="1"/>
        <pt x="212" y="460" on="1"/>
        <pt x="320" y="460" on="1"/>
        <pt x="310" y="413" on="1"/>
        <pt x="202" y="413" on="1"/>
        <pt x="59" y="-260" on="1"/>
        <pt x="-11" y="-260" on="1"/>
      </contour>
    </TTGlyph>
    <TTGlyph name="florin" xMin="-74" yMin="-258" xMax="687" yMax="745">
      <contour>
        <pt x="387" y="413" on="1"/>
        <pt x="213" y="-3" on="1"/>
        <pt x="192" y="-54" on="0"/>
        <pt x="131" y="-147" on="0"/>
        <pt x="61" y="-217" on="0"/>
        <pt x="-16" y="-258" on="0"/>
        <pt x="-54" y="-258" on="1"/>
        <pt x="-70" y="-258" on="0"/>
        <pt x="-74" y="-255" on="1"/>
        <pt x="-66" y="-197" on="1"/>
        <pt x="-60" y="-200" on="0"/>
        <pt x="-45" y="-200" on="1"/>
        <pt x="-11" y="-200" on="0"/>
        <pt x="45" y="-163" on="0"/>
        <pt x="91" y="-106" on="0"/>
        <pt x="127" y="-35" on="0"/>
        <pt x="142" y="0" on="1"/>
        <pt x="315" y="413" on="1"/>
        <pt x="248" y="413" on="1"/>
        <pt x="256" y="450" on="1"/>
        <pt x="335" y="460" on="1"/>
        <pt x="373" y="550" on="1"/>
        <pt x="398" y="611" on="0"/>
        <pt x="455" y="687" on="0"/>
        <pt x="513" y="730" on="0"/>
        <pt x="571" y="745" on="0"/>
        <pt x="598" y="745" on="1"/>
        <pt x="603" y="745" on="0"/>
        <pt x="625" y="744" on="0"/>
        <pt x="651" y="741" on="0"/>
        <pt x="678" y="734" on="0"/>
        <pt x="687" y="728" on="1"/>
        <pt x="644" y="665" on="1"/>
        <pt x="636" y="676" on="0"/>
        <pt x="596" y="693" on="0"/>
        <pt x="567" y="693" on="1"/>
        <pt x="548" y="693" on="0"/>
        <pt x="519" y="682" on="0"/>
        <pt x="490" y="646" on="0"/>
        <pt x="457" y="580" on="0"/>
        <pt x="434" y="526" on="1"/>
        <pt x="406" y="460" on="1"/>
        <pt x="513" y="460" on="1"/>
        <pt x="503" y="413" on="1"/>
      </contour>
    </TTGlyph>
    <TTGlyph name="four" xMin="18" yMin="0" xMax="473" yMax="660">
      <contour>
        <pt x="446" y="210" on="1"/>
        <pt x="377" y="210" on="1"/>
        <pt x="332" y="0" on="1"/>
        <pt x="257" y="0" on="1"/>
        <pt x="302" y="210" on="1"/>
        <pt x="18" y="210" on="1"/>
        <pt x="33" y="280" on="1"/>
        <pt x="393" y="660" on="1"/>
        <pt x="473" y="660" on="1"/>
        <pt x="392" y="280" on="1"/>
        <pt x="461" y="280" on="1"/>
      </contour>
      <contour>
        <pt x="317" y="280" on="1"/>
        <pt x="374" y="551" on="1"/>
        <pt x="118" y="280" on="1"/>
      </contour>
    </TTGlyph>
    <TTGlyph name="fourinferior" xMin="7" yMin="0" xMax="256" yMax="366">
      <contour>
        <pt x="238" y="111" on="1"/>
        <pt x="202" y="111" on="1"/>
        <pt x="178" y="0" on="1"/>
        <pt x="133" y="0" on="1"/>
        <pt x="157" y="111" on="1"/>
        <pt x="7" y="111" on="1"/>
        <pt x="16" y="153" on="1"/>
        <pt x="208" y="366" on="1"/>
        <pt x="256" y="366" on="1"/>
        <pt x="211" y="153" on="1"/>
        <pt x="247" y="153" on="1"/>
      </contour>
      <contour>
        <pt x="166" y="153" on="1"/>
        <pt x="199" y="307" on="1"/>
        <pt x="67" y="153" on="1"/>
      </contour>
    </TTGlyph>
    <TTGlyph name="foursuperior" xMin="70" yMin="299" xMax="319" yMax="665">
      <contour>
        <pt x="301" y="410" on="1"/>
        <pt x="265" y="410" on="1"/>
        <pt x="241" y="299" on="1"/>
        <pt x="196" y="299" on="1"/>
        <pt x="220" y="410" on="1"/>
        <pt x="70" y="410" on="1"/>
        <pt x="79" y="452" on="1"/>
        <pt x="271" y="665" on="1"/>
        <pt x="319" y="665" on="1"/>
        <pt x="274" y="452" on="1"/>
        <pt x="310" y="452" on="1"/>
      </contour>
      <contour>
        <pt x="229" y="452" on="1"/>
        <pt x="262" y="606" on="1"/>
        <pt x="130" y="452" on="1"/>
      </contour>
    </TTGlyph>
    <TTGlyph name="fraction" xMin="-67" yMin="-24" xMax="613" yMax="691">
      <contour>
        <pt x="-2" y="-24" on="1"/>
        <pt x="-67" y="-24" on="1"/>
        <pt x="548" y="691" on="1"/>
        <pt x="613" y="691" on="1"/>
      </contour>
    </TTGlyph>
    <TTGlyph name="g" xMin="-14" yMin="-252" xMax="537" yMax="475">
      <contour>
        <pt x="213" y="47" on="1"/>
        <pt x="236" y="47" on="0"/>
        <pt x="286" y="60" on="0"/>
        <pt x="336" y="86" on="0"/>
        <pt x="383" y="124" on="0"/>
        <pt x="402" y="148" on="1"/>
        <pt x="433" y="295" on="1"/>
        <pt x="427" y="352" on="0"/>
        <pt x="356" y="416" on="0"/>
        <pt x="302" y="416" on="1"/>
        <pt x="260" y="416" on="0"/>
        <pt x="188" y="378" on="0"/>
        <pt x="136" y="313" on="0"/>
        <pt x="106" y="228" on="0"/>
        <pt x="106" y="180" on="1"/>
        <pt x="106" y="153" on="0"/>
        <pt x="117" y="105" on="0"/>
        <pt x="142" y="68" on="0"/>
        <pt x="183" y="47" on="0"/>
      </contour>
      <contour>
        <pt x="-2" y="-144" on="1"/>
        <pt x="19" y="-156" on="0"/>
        <pt x="70" y="-176" on="0"/>
        <pt x="123" y="-189" on="0"/>
        <pt x="175" y="-197" on="0"/>
        <pt x="197" y="-197" on="1"/>
        <pt x="272" y="-197" on="0"/>
        <pt x="357" y="-108" on="0"/>
        <pt x="377" y="-7" on="1"/>
        <pt x="395" y="82" on="1"/>
        <pt x="391" y="82" on="1"/>
        <pt x="375" y="64" on="0"/>
        <pt x="332" y="30" on="0"/>
        <pt x="281" y="4" on="0"/>
        <pt x="223" y="-12" on="0"/>
        <pt x="192" y="-12" on="1"/>
        <pt x="150" y="-12" on="0"/>
        <pt x="89" y="17" on="0"/>
        <pt x="50" y="67" on="0"/>
        <pt x="32" y="134" on="0"/>
        <pt x="32" y="172" on="1"/>
        <pt x="32" y="227" on="0"/>
        <pt x="69" y="336" on="0"/>
        <pt x="139" y="422" on="0"/>
        <pt x="240" y="475" on="0"/>
        <pt x="304" y="475" on="1"/>
        <pt x="373" y="475" on="0"/>
        <pt x="446" y="416" on="0"/>
        <pt x="450" y="374" on="1"/>
        <pt x="482" y="460" on="1"/>
        <pt x="537" y="460" on="1"/>
        <pt x="438" y="-6" on="1"/>
        <pt x="423" y="-74" on="0"/>
        <pt x="380" y="-168" on="0"/>
        <pt x="320" y="-226" on="0"/>
        <pt x="239" y="-252" on="0"/>
        <pt x="186" y="-252" on="1"/>
        <pt x="79" y="-252" on="0"/>
        <pt x="-14" y="-198" on="1"/>
      </contour>
    </TTGlyph>
    <TTGlyph name="germandbls" xMin="19" yMin="-12" xMax="496" yMax="736">
      <contour>
        <pt x="89" y="0" on="1"/>
        <pt x="19" y="0" on="1"/>
        <pt x="122" y="486" on="1"/>
        <pt x="134" y="542" on="0"/>
        <pt x="177" y="634" on="0"/>
        <pt x="237" y="700" on="0"/>
        <pt x="314" y="736" on="0"/>
        <pt x="360" y="736" on="1"/>
        <pt x="393" y="736" on="0"/>
        <pt x="443" y="717" on="0"/>
        <pt x="478" y="686" on="0"/>
        <pt x="496" y="644" on="0"/>
        <pt x="496" y="621" on="1"/>
        <pt x="496" y="581" on="0"/>
        <pt x="449" y="515" on="0"/>
        <pt x="393" y="458" on="0"/>
        <pt x="346" y="407" on="0"/>
        <pt x="346" y="381" on="1"/>
        <pt x="346" y="364" on="0"/>
        <pt x="367" y="336" on="0"/>
        <pt x="397" y="309" on="0"/>
        <pt x="434" y="280" on="0"/>
        <pt x="464" y="244" on="0"/>
        <pt x="485" y="198" on="0"/>
        <pt x="485" y="167" on="1"/>
        <pt x="485" y="119" on="0"/>
        <pt x="445" y="51" on="0"/>
        <pt x="388" y="8" on="0"/>
        <pt x="323" y="-12" on="0"/>
        <pt x="298" y="-12" on="1"/>
        <pt x="265" y="-12" on="0"/>
        <pt x="215" y="15" on="0"/>
        <pt x="201" y="32" on="1"/>
        <pt x="236" y="103" on="1"/>
        <pt x="244" y="73" on="0"/>
        <pt x="290" y="40" on="0"/>
        <pt x="317" y="40" on="1"/>
        <pt x="335" y="40" on="0"/>
        <pt x="367" y="55" on="0"/>
        <pt x="393" y="83" on="0"/>
        <pt x="408" y="125" on="0"/>
        <pt x="408" y="152" on="1"/>
        <pt x="408" y="192" on="0"/>
        <pt x="367" y="240" on="0"/>
        <pt x="318" y="280" on="0"/>
        <pt x="277" y="325" on="0"/>
        <pt x="277" y="362" on="1"/>
        <pt x="277" y="391" on="0"/>
        <pt x="298" y="438" on="0"/>
        <pt x="330" y="477" on="0"/>
        <pt x="367" y="513" on="0"/>
        <pt x="399" y="548" on="0"/>
        <pt x="420" y="587" on="0"/>
        <pt x="420" y="610" on="1"/>
        <pt x="420" y="636" on="0"/>
        <pt x="382" y="675" on="0"/>
        <pt x="343" y="675" on="1"/>
        <pt x="307" y="675" on="0"/>
        <pt x="256" y="643" on="0"/>
        <pt x="222" y="591" on="0"/>
        <pt x="200" y="522" on="0"/>
        <pt x="192" y="486" on="1"/>
      </contour>
    </TTGlyph>
    <TTGlyph name="grave" xMin="136" yMin="549" xMax="340" yMax="680">
      <contour>
        <pt x="322" y="549" on="1"/>
        <pt x="137" y="626" on="1"/>
        <pt x="136" y="628" on="0"/>
        <pt x="136" y="635" on="0"/>
        <pt x="136" y="637" on="1"/>
        <pt x="136" y="654" on="0"/>
        <pt x="159" y="679" on="0"/>
        <pt x="179" y="680" on="1"/>
        <pt x="339" y="579" on="1"/>
        <pt x="340" y="572" on="1"/>
        <pt x="330" y="552" on="1"/>
      </contour>
    </TTGlyph>
    <TTGlyph name="greater" xMin="30" yMin="41" xMax="363" yMax="437">
      <contour>
        <pt x="257" y="243" on="1"/>
        <pt x="88" y="374" on="1"/>
        <pt x="120" y="437" on="1"/>
        <pt x="363" y="243" on="1"/>
        <pt x="362" y="238" on="1"/>
        <pt x="34" y="41" on="1"/>
        <pt x="30" y="105" on="1"/>
        <pt x="256" y="238" on="1"/>
      </contour>
    </TTGlyph>
    <TTGlyph name="guillemotleft" xMin="43" yMin="61" xMax="457" yMax="420">
      <contour>
        <pt x="112" y="238" on="1"/>
        <pt x="218" y="61" on="1"/>
        <pt x="138" y="61" on="1"/>
        <pt x="43" y="238" on="1"/>
        <pt x="44" y="243" on="1"/>
        <pt x="216" y="420" on="1"/>
        <pt x="295" y="420" on="1"/>
        <pt x="113" y="243" on="1"/>
      </contour>
      <contour>
        <pt x="274" y="238" on="1"/>
        <pt x="380" y="61" on="1"/>
        <pt x="300" y="61" on="1"/>
        <pt x="205" y="238" on="1"/>
        <pt x="206" y="243" on="1"/>
        <pt x="378" y="420" on="1"/>
        <pt x="457" y="420" on="1"/>
        <pt x="275" y="243" on="1"/>
      </contour>
    </TTGlyph>
    <TTGlyph name="guillemotright" xMin="10" yMin="61" xMax="424" yMax="420">
      <contour>
        <pt x="355" y="243" on="1"/>
        <pt x="248" y="420" on="1"/>
        <pt x="327" y="420" on="1"/>
        <pt x="424" y="243" on="1"/>
        <pt x="423" y="238" on="1"/>
        <pt x="252" y="61" on="1"/>
        <pt x="172" y="61" on="1"/>
        <pt x="354" y="238" on="1"/>
      </contour>
      <contour>
        <pt x="193" y="243" on="1"/>
        <pt x="86" y="420" on="1"/>
        <pt x="165" y="420" on="1"/>
        <pt x="262" y="243" on="1"/>
        <pt x="261" y="238" on="1"/>
        <pt x="90" y="61" on="1"/>
        <pt x="10" y="61" on="1"/>
        <pt x="192" y="238" on="1"/>
      </contour>
    </TTGlyph>
    <TTGlyph name="guilsinglleft" xMin="43" yMin="61" xMax="295" yMax="420">
      <contour>
        <pt x="112" y="238" on="1"/>
        <pt x="218" y="61" on="1"/>
        <pt x="138" y="61" on="1"/>
        <pt x="43" y="238" on="1"/>
        <pt x="44" y="243" on="1"/>
        <pt x="216" y="420" on="1"/>
        <pt x="295" y="420" on="1"/>
        <pt x="113" y="243" on="1"/>
      </contour>
    </TTGlyph>
    <TTGlyph name="guilsinglright" xMin="10" yMin="61" xMax="262" yMax="420">
      <contour>
        <pt x="193" y="243" on="1"/>
        <pt x="86" y="420" on="1"/>
        <pt x="165" y="420" on="1"/>
        <pt x="262" y="243" on="1"/>
        <pt x="261" y="238" on="1"/>
        <pt x="90" y="61" on="1"/>
        <pt x="10" y="61" on="1"/>
        <pt x="192" y="238" on="1"/>
      </contour>
    </TTGlyph>
    <TTGlyph name="h" xMin="19" yMin="0" xMax="485" yMax="740">
      <contour>
        <pt x="342" y="0" on="1"/>
        <pt x="407" y="304" on="1"/>
        <pt x="411" y="323" on="0"/>
        <pt x="411" y="342" on="1"/>
        <pt x="411" y="382" on="0"/>
        <pt x="369" y="416" on="0"/>
        <pt x="334" y="416" on="1"/>
        <pt x="309" y="416" on="0"/>
        <pt x="257" y="400" on="0"/>
        <pt x="209" y="369" on="0"/>
        <pt x="167" y="324" on="0"/>
        <pt x="152" y="295" on="1"/>
        <pt x="89" y="0" on="1"/>
        <pt x="19" y="0" on="1"/>
        <pt x="176" y="740" on="1"/>
        <pt x="246" y="740" on="1"/>
        <pt x="168" y="374" on="1"/>
        <pt x="190" y="416" on="0"/>
        <pt x="290" y="475" on="0"/>
        <pt x="357" y="475" on="1"/>
        <pt x="384" y="475" on="0"/>
        <pt x="431" y="463" on="0"/>
        <pt x="465" y="437" on="0"/>
        <pt x="485" y="395" on="0"/>
        <pt x="485" y="364" on="1"/>
        <pt x="485" y="341" on="0"/>
        <pt x="479" y="313" on="1"/>
        <pt x="412" y="0" on="1"/>
      </contour>
    </TTGlyph>
    <TTGlyph name="hyphen" xMin="61" yMin="213" xMax="410" yMax="265">
      <contour>
        <pt x="410" y="265" on="1"/>
        <pt x="399" y="213" on="1"/>
        <pt x="61" y="213" on="1"/>
        <pt x="72" y="265" on="1"/>
      </contour>
    </TTGlyph>
    <TTGlyph name="i" xMin="19" yMin="0" xMax="240" yMax="680">
      <contour>
        <pt x="89" y="0" on="1"/>
        <pt x="19" y="0" on="1"/>
        <pt x="117" y="460" on="1"/>
        <pt x="187" y="460" on="1"/>
      </contour>
      <contour>
        <pt x="136" y="619" on="1"/>
        <pt x="136" y="631" on="0"/>
        <pt x="147" y="653" on="0"/>
        <pt x="164" y="670" on="0"/>
        <pt x="187" y="680" on="0"/>
        <pt x="199" y="680" on="1"/>
        <pt x="217" y="680" on="0"/>
        <pt x="240" y="653" on="0"/>
        <pt x="240" y="636" on="1"/>
        <pt x="240" y="612" on="0"/>
        <pt x="200" y="578" on="0"/>
        <pt x="177" y="578" on="1"/>
        <pt x="159" y="578" on="0"/>
        <pt x="136" y="602" on="0"/>
      </contour>
    </TTGlyph>
    <TTGlyph name="iacute" xMin="19" yMin="0" xMax="313" yMax="680">
      <contour>
        <pt x="79" y="552" on="1"/>
        <pt x="78" y="572" on="1"/>
        <pt x="82" y="579" on="1"/>
        <pt x="284" y="680" on="1"/>
        <pt x="298" y="679" on="0"/>
        <pt x="313" y="663" on="0"/>
        <pt x="313" y="652" on="1"/>
        <pt x="313" y="641" on="0"/>
        <pt x="304" y="626" on="1"/>
        <pt x="86" y="549" on="1"/>
      </contour>
      <contour>
        <pt x="89" y="0" on="1"/>
        <pt x="19" y="0" on="1"/>
        <pt x="117" y="460" on="1"/>
        <pt x="187" y="460" on="1"/>
      </contour>
    </TTGlyph>
    <TTGlyph name="icircumflex" xMin="19" yMin="0" xMax="289" yMax="673">
      <contour>
        <pt x="198" y="673" on="1"/>
        <pt x="287" y="574" on="1"/>
        <pt x="289" y="567" on="1"/>
        <pt x="278" y="548" on="1"/>
        <pt x="271" y="545" on="1"/>
        <pt x="180" y="606" on="1"/>
        <pt x="64" y="545" on="1"/>
        <pt x="56" y="548" on="1"/>
        <pt x="55" y="567" on="1"/>
        <pt x="59" y="574" on="1"/>
        <pt x="190" y="673" on="1"/>
      </contour>
      <contour>
        <pt x="89" y="0" on="1"/>
        <pt x="19" y="0" on="1"/>
        <pt x="117" y="460" on="1"/>
        <pt x="187" y="460" on="1"/>
      </contour>
    </TTGlyph>
    <TTGlyph name="idieresis" xMin="19" yMin="0" xMax="307" yMax="671">
      <contour>
        <pt x="65" y="618" on="1"/>
        <pt x="65" y="638" on="0"/>
        <pt x="97" y="671" on="0"/>
        <pt x="117" y="671" on="1"/>
        <pt x="131" y="671" on="0"/>
        <pt x="150" y="649" on="0"/>
        <pt x="150" y="633" on="1"/>
        <pt x="150" y="612" on="0"/>
        <pt x="117" y="582" on="0"/>
        <pt x="98" y="582" on="1"/>
        <pt x="83" y="582" on="0"/>
        <pt x="65" y="602" on="0"/>
      </contour>
      <contour>
        <pt x="222" y="618" on="1"/>
        <pt x="222" y="638" on="0"/>
        <pt x="254" y="671" on="0"/>
        <pt x="274" y="671" on="1"/>
        <pt x="288" y="671" on="0"/>
        <pt x="307" y="649" on="0"/>
        <pt x="307" y="633" on="1"/>
        <pt x="307" y="612" on="0"/>
        <pt x="274" y="582" on="0"/>
        <pt x="255" y="582" on="1"/>
        <pt x="240" y="582" on="0"/>
        <pt x="222" y="602" on="0"/>
      </contour>
      <contour>
        <pt x="89" y="0" on="1"/>
        <pt x="19" y="0" on="1"/>
        <pt x="117" y="460" on="1"/>
        <pt x="187" y="460" on="1"/>
      </contour>
    </TTGlyph>
    <TTGlyph name="igrave" xMin="19" yMin="0" xMax="248" yMax="680">
      <contour>
        <pt x="229" y="549" on="1"/>
        <pt x="44" y="626" on="1"/>
        <pt x="43" y="628" on="0"/>
        <pt x="43" y="635" on="0"/>
        <pt x="43" y="637" on="1"/>
        <pt x="43" y="654" on="0"/>
        <pt x="66" y="679" on="0"/>
        <pt x="87" y="680" on="1"/>
        <pt x="246" y="579" on="1"/>
        <pt x="248" y="572" on="1"/>
        <pt x="237" y="552" on="1"/>
      </contour>
      <contour>
        <pt x="89" y="0" on="1"/>
        <pt x="19" y="0" on="1"/>
        <pt x="117" y="460" on="1"/>
        <pt x="187" y="460" on="1"/>
      </contour>
    </TTGlyph>
    <TTGlyph name="ij" xMin="19" yMin="-258" xMax="468" yMax="680">
      <contour>
        <pt x="89" y="0" on="1"/>
        <pt x="19" y="0" on="1"/>
        <pt x="117" y="460" on="1"/>
        <pt x="187" y="460" on="1"/>
      </contour>
      <contour>
        <pt x="136" y="619" on="1"/>
        <pt x="136" y="631" on="0"/>
        <pt x="147" y="653" on="0"/>
        <pt x="164" y="670" on="0"/>
        <pt x="187" y="680" on="0"/>
        <pt x="199" y="680" on="1"/>
        <pt x="217" y="680" on="0"/>
        <pt x="240" y="653" on="0"/>
        <pt x="240" y="636" on="1"/>
        <pt x="240" y="612" on="0"/>
        <pt x="200" y="578" on="0"/>
        <pt x="177" y="578" on="1"/>
        <pt x="159" y="578" on="0"/>
        <pt x="136" y="602" on="0"/>
      </contour>
      <contour>
        <pt x="316" y="-3" on="1"/>
        <pt x="305" y="-54" on="0"/>
        <pt x="266" y="-147" on="0"/>
        <pt x="213" y="-217" on="0"/>
        <pt x="147" y="-258" on="0"/>
        <pt x="109" y="-258" on="1"/>
        <pt x="102" y="-258" on="0"/>
        <pt x="90" y="-257" on="0"/>
        <pt x="88" y="-255" on="1"/>
        <pt x="84" y="-197" on="1"/>
        <pt x="90" y="-200" on="0"/>
        <pt x="105" y="-200" on="1"/>
        <pt x="139" y="-200" on="0"/>
        <pt x="187" y="-161" on="0"/>
        <pt x="219" y="-103" on="0"/>
        <pt x="239" y="-33" on="0"/>
        <pt x="246" y="-2" on="1"/>
        <pt x="344" y="460" on="1"/>
        <pt x="414" y="460" on="1"/>
      </contour>
      <contour>
        <pt x="364" y="619" on="1"/>
        <pt x="364" y="642" on="0"/>
        <pt x="402" y="680" on="0"/>
        <pt x="426" y="680" on="1"/>
        <pt x="444" y="680" on="0"/>
        <pt x="468" y="653" on="0"/>
        <pt x="468" y="636" on="1"/>
        <pt x="468" y="612" on="0"/>
        <pt x="428" y="578" on="0"/>
        <pt x="405" y="578" on="1"/>
        <pt x="387" y="578" on="0"/>
        <pt x="364" y="602" on="0"/>
      </contour>
    </TTGlyph>
    <TTGlyph name="j" xMin="-143" yMin="-258" xMax="241" yMax="680">
      <contour>
        <pt x="89" y="-3" on="1"/>
        <pt x="78" y="-54" on="0"/>
        <pt x="39" y="-147" on="0"/>
        <pt x="-14" y="-217" on="0"/>
        <pt x="-80" y="-258" on="0"/>
        <pt x="-118" y="-258" on="1"/>
        <pt x="-125" y="-258" on="0"/>
        <pt x="-137" y="-257" on="0"/>
        <pt x="-139" y="-255" on="1"/>
        <pt x="-143" y="-197" on="1"/>
        <pt x="-137" y="-200" on="0"/>
        <pt x="-122" y="-200" on="1"/>
        <pt x="-88" y="-200" on="0"/>
        <pt x="-40" y="-161" on="0"/>
        <pt x="-8" y="-103" on="0"/>
        <pt x="12" y="-33" on="0"/>
        <pt x="19" y="-2" on="1"/>
        <pt x="117" y="460" on="1"/>
        <pt x="187" y="460" on="1"/>
      </contour>
      <contour>
        <pt x="137" y="619" on="1"/>
        <pt x="137" y="642" on="0"/>
        <pt x="175" y="680" on="0"/>
        <pt x="199" y="680" on="1"/>
        <pt x="217" y="680" on="0"/>
        <pt x="241" y="653" on="0"/>
        <pt x="241" y="636" on="1"/>
        <pt x="241" y="612" on="0"/>
        <pt x="201" y="578" on="0"/>
        <pt x="178" y="578" on="1"/>
        <pt x="160" y="578" on="0"/>
        <pt x="137" y="602" on="0"/>
      </contour>
    </TTGlyph>
    <TTGlyph name="k" xMin="19" yMin="0" xMax="469" yMax="740">
      <contour>
        <pt x="270" y="298" on="1"/>
        <pt x="403" y="0" on="1"/>
        <pt x="323" y="0" on="1"/>
        <pt x="211" y="250" on="1"/>
        <pt x="127" y="181" on="1"/>
        <pt x="89" y="0" on="1"/>
        <pt x="19" y="0" on="1"/>
        <pt x="176" y="740" on="1"/>
        <pt x="246" y="740" on="1"/>
        <pt x="145" y="265" on="1"/>
        <pt x="389" y="460" on="1"/>
        <pt x="469" y="460" on="1"/>
      </contour>
    </TTGlyph>
    <TTGlyph name="kgreenlandic" xMin="19" yMin="0" xMax="469" yMax="460">
      <contour>
        <pt x="270" y="298" on="1"/>
        <pt x="403" y="0" on="1"/>
        <pt x="323" y="0" on="1"/>
        <pt x="211" y="250" on="1"/>
        <pt x="127" y="181" on="1"/>
        <pt x="89" y="0" on="1"/>
        <pt x="19" y="0" on="1"/>
        <pt x="117" y="460" on="1"/>
        <pt x="187" y="460" on="1"/>
        <pt x="145" y="265" on="1"/>
        <pt x="389" y="460" on="1"/>
        <pt x="469" y="460" on="1"/>
      </contour>
    </TTGlyph>
    <TTGlyph name="l" xMin="25" yMin="0" xMax="252" yMax="740">
      <contour>
        <pt x="95" y="0" on="1"/>
        <pt x="25" y="0" on="1"/>
        <pt x="182" y="740" on="1"/>
        <pt x="252" y="740" on="1"/>
      </contour>
    </TTGlyph>
    <TTGlyph name="less" xMin="33" yMin="41" xMax="365" yMax="437">
      <contour>
        <pt x="139" y="238" on="1"/>
        <pt x="309" y="105" on="1"/>
        <pt x="277" y="41" on="1"/>
        <pt x="33" y="238" on="1"/>
        <pt x="34" y="243" on="1"/>
        <pt x="360" y="437" on="1"/>
        <pt x="365" y="374" on="1"/>
        <pt x="140" y="243" on="1"/>
      </contour>
    </TTGlyph>
    <TTGlyph name="logicalnot" xMin="79" yMin="117" xMax="570" yMax="341">
      <contour>
        <pt x="570" y="341" on="1"/>
        <pt x="522" y="117" on="1"/>
        <pt x="469" y="117" on="1"/>
        <pt x="506" y="289" on="1"/>
        <pt x="79" y="289" on="1"/>
        <pt x="90" y="341" on="1"/>
      </contour>
    </TTGlyph>
    <TTGlyph name="m" xMin="19" yMin="0" xMax="800" yMax="475">
      <contour>
        <pt x="338" y="0" on="1"/>
        <pt x="403" y="304" on="1"/>
        <pt x="407" y="323" on="0"/>
        <pt x="407" y="341" on="1"/>
        <pt x="407" y="382" on="0"/>
        <pt x="363" y="416" on="0"/>
        <pt x="328" y="416" on="1"/>
        <pt x="277" y="416" on="0"/>
        <pt x="182" y="353" on="0"/>
        <pt x="152" y="295" on="1"/>
        <pt x="89" y="0" on="1"/>
        <pt x="19" y="0" on="1"/>
        <pt x="117" y="460" on="1"/>
        <pt x="172" y="460" on="1"/>
        <pt x="161" y="374" on="1"/>
        <pt x="165" y="374" on="1"/>
        <pt x="187" y="416" on="0"/>
        <pt x="283" y="475" on="0"/>
        <pt x="349" y="475" on="1"/>
        <pt x="409" y="475" on="0"/>
        <pt x="478" y="422" on="0"/>
        <pt x="479" y="374" on="1"/>
        <pt x="508" y="414" on="0"/>
        <pt x="603" y="475" on="0"/>
        <pt x="671" y="475" on="1"/>
        <pt x="697" y="475" on="0"/>
        <pt x="744" y="463" on="0"/>
        <pt x="779" y="436" on="0"/>
        <pt x="800" y="393" on="0"/>
        <pt x="800" y="362" on="1"/>
        <pt x="800" y="340" on="0"/>
        <pt x="794" y="313" on="1"/>
        <pt x="727" y="0" on="1"/>
        <pt x="657" y="0" on="1"/>
        <pt x="722" y="304" on="1"/>
        <pt x="726" y="323" on="0"/>
        <pt x="726" y="341" on="1"/>
        <pt x="726" y="382" on="0"/>
        <pt x="682" y="416" on="0"/>
        <pt x="647" y="416" on="1"/>
        <pt x="596" y="416" on="0"/>
        <pt x="501" y="353" on="0"/>
        <pt x="471" y="295" on="1"/>
        <pt x="408" y="0" on="1"/>
      </contour>
    </TTGlyph>
    <TTGlyph name="minus" xMin="63" yMin="213" xMax="488" yMax="265">
      <contour>
        <pt x="488" y="265" on="1"/>
        <pt x="477" y="213" on="1"/>
        <pt x="63" y="213" on="1"/>
        <pt x="74" y="265" on="1"/>
      </contour>
    </TTGlyph>
    <TTGlyph name="mu" xMin="-42" yMin="-140" xMax="548" yMax="460">
      <contour>
        <pt x="226" y="460" on="1"/>
        <pt x="161" y="156" on="1"/>
        <pt x="157" y="140" on="0"/>
        <pt x="157" y="121" on="1"/>
        <pt x="157" y="89" on="0"/>
        <pt x="191" y="47" on="0"/>
        <pt x="234" y="47" on="1"/>
        <pt x="285" y="47" on="0"/>
        <pt x="385" y="107" on="0"/>
        <pt x="416" y="165" on="1"/>
        <pt x="478" y="460" on="1"/>
        <pt x="548" y="460" on="1"/>
        <pt x="451" y="0" on="1"/>
        <pt x="396" y="0" on="1"/>
        <pt x="406" y="86" on="1"/>
        <pt x="402" y="86" on="1"/>
        <pt x="380" y="44" on="0"/>
        <pt x="278" y="-12" on="0"/>
        <pt x="211" y="-12" on="1"/>
        <pt x="179" y="-12" on="0"/>
        <pt x="125" y="4" on="0"/>
        <pt x="108" y="23" on="1"/>
        <pt x="102" y="10" on="1"/>
        <pt x="85" y="-28" on="0"/>
        <pt x="42" y="-102" on="0"/>
        <pt x="16" y="-140" on="1"/>
        <pt x="-42" y="-111" on="1"/>
        <pt x="-17" y="-77" on="0"/>
        <pt x="24" y="-16" on="0"/>
        <pt x="57" y="46" on="0"/>
        <pt x="81" y="110" on="0"/>
        <pt x="89" y="147" on="1"/>
        <pt x="156" y="460" on="1"/>
      </contour>
    </TTGlyph>
    <TTGlyph name="multiply" xMin="37" yMin="80" xMax="404" yMax="397">
      <contour>
        <pt x="212" y="202" on="1"/>
        <pt x="66" y="81" on="1"/>
        <pt x="37" y="118" on="1"/>
        <pt x="183" y="239" on="1"/>
        <pt x="88" y="359" on="1"/>
        <pt x="133" y="396" on="1"/>
        <pt x="228" y="276" on="1"/>
        <pt x="375" y="397" on="1"/>
        <pt x="404" y="360" on="1"/>
        <pt x="257" y="239" on="1"/>
        <pt x="353" y="117" on="1"/>
        <pt x="308" y="80" on="1"/>
      </contour>
    </TTGlyph>
    <TTGlyph name="n" xMin="19" yMin="0" xMax="485" yMax="475">
      <contour>
        <pt x="342" y="0" on="1"/>
        <pt x="407" y="304" on="1"/>
        <pt x="411" y="323" on="0"/>
        <pt x="411" y="342" on="1"/>
        <pt x="411" y="381" on="0"/>
        <pt x="369" y="416" on="0"/>
        <pt x="334" y="416" on="1"/>
        <pt x="309" y="416" on="0"/>
        <pt x="257" y="400" on="0"/>
        <pt x="209" y="369" on="0"/>
        <pt x="167" y="324" on="0"/>
        <pt x="152" y="295" on="1"/>
        <pt x="89" y="0" on="1"/>
        <pt x="19" y="0" on="1"/>
        <pt x="117" y="460" on="1"/>
        <pt x="172" y="460" on="1"/>
        <pt x="161" y="374" on="1"/>
        <pt x="165" y="374" on="1"/>
        <pt x="187" y="416" on="0"/>
        <pt x="290" y="475" on="0"/>
        <pt x="357" y="475" on="1"/>
        <pt x="384" y="475" on="0"/>
        <pt x="431" y="463" on="0"/>
        <pt x="465" y="437" on="0"/>
        <pt x="485" y="395" on="0"/>
        <pt x="485" y="364" on="1"/>
        <pt x="485" y="341" on="0"/>
        <pt x="479" y="313" on="1"/>
        <pt x="412" y="0" on="1"/>
      </contour>
    </TTGlyph>
    <TTGlyph name="nine" xMin="34" yMin="-12" xMax="523" yMax="664">
      <contour>
        <pt x="427" y="325" on="1"/>
        <pt x="411" y="303" on="0"/>
        <pt x="369" y="275" on="0"/>
        <pt x="321" y="258" on="0"/>
        <pt x="272" y="251" on="0"/>
        <pt x="248" y="251" on="1"/>
        <pt x="199" y="251" on="0"/>
        <pt x="136" y="282" on="0"/>
        <pt x="99" y="329" on="0"/>
        <pt x="85" y="385" on="0"/>
        <pt x="85" y="410" on="1"/>
        <pt x="85" y="451" on="0"/>
        <pt x="117" y="541" on="0"/>
        <pt x="182" y="616" on="0"/>
        <pt x="280" y="664" on="0"/>
        <pt x="347" y="664" on="1"/>
        <pt x="441" y="664" on="0"/>
        <pt x="523" y="551" on="0"/>
        <pt x="523" y="457" on="1"/>
        <pt x="523" y="422" on="0"/>
        <pt x="511" y="324" on="0"/>
        <pt x="481" y="220" on="0"/>
        <pt x="431" y="118" on="0"/>
        <pt x="355" y="38" on="0"/>
        <pt x="251" y="-12" on="0"/>
        <pt x="182" y="-12" on="1"/>
        <pt x="166" y="-12" on="0"/>
        <pt x="125" y="-8" on="0"/>
        <pt x="83" y="3" on="0"/>
        <pt x="46" y="22" on="0"/>
        <pt x="34" y="36" on="1"/>
        <pt x="65" y="102" on="1"/>
        <pt x="93" y="74" on="0"/>
        <pt x="165" y="53" on="0"/>
        <pt x="195" y="53" on="1"/>
        <pt x="247" y="53" on="0"/>
        <pt x="325" y="96" on="0"/>
        <pt x="381" y="165" on="0"/>
        <pt x="416" y="252" on="0"/>
        <pt x="425" y="295" on="1"/>
        <pt x="427" y="303" on="0"/>
        <pt x="429" y="316" on="0"/>
        <pt x="430" y="324" on="1"/>
      </contour>
      <contour>
        <pt x="335" y="603" on="1"/>
        <pt x="297" y="603" on="0"/>
        <pt x="234" y="570" on="0"/>
        <pt x="189" y="516" on="0"/>
        <pt x="164" y="445" on="0"/>
        <pt x="164" y="408" on="1"/>
        <pt x="164" y="367" on="0"/>
        <pt x="209" y="312" on="0"/>
        <pt x="266" y="312" on="1"/>
        <pt x="312" y="312" on="0"/>
        <pt x="379" y="342" on="0"/>
        <pt x="424" y="392" on="0"/>
        <pt x="446" y="457" on="0"/>
        <pt x="446" y="492" on="1"/>
        <pt x="446" y="543" on="0"/>
        <pt x="390" y="603" on="0"/>
      </contour>
    </TTGlyph>
    <TTGlyph name="ntilde" xMin="19" yMin="0" xMax="513" yMax="671">
      <contour>
        <pt x="513" y="663" on="1"/>
        <pt x="507" y="649" on="0"/>
        <pt x="488" y="622" on="0"/>
        <pt x="463" y="600" on="0"/>
        <pt x="430" y="586" on="0"/>
        <pt x="409" y="586" on="1"/>
        <pt x="369" y="586" on="0"/>
        <pt x="289" y="600" on="0"/>
        <pt x="257" y="600" on="1"/>
        <pt x="232" y="600" on="0"/>
        <pt x="209" y="587" on="0"/>
        <pt x="196" y="575" on="1"/>
        <pt x="185" y="583" on="1"/>
        <pt x="192" y="596" on="0"/>
        <pt x="212" y="624" on="0"/>
        <pt x="237" y="645" on="0"/>
        <pt x="271" y="659" on="0"/>
        <pt x="292" y="659" on="1"/>
        <pt x="317" y="659" on="0"/>
        <pt x="353" y="655" on="0"/>
        <pt x="384" y="649" on="0"/>
        <pt x="413" y="645" on="0"/>
        <pt x="432" y="645" on="1"/>
        <pt x="449" y="645" on="0"/>
        <pt x="486" y="653" on="0"/>
        <pt x="503" y="671" on="1"/>
      </contour>
      <contour>
        <pt x="342" y="0" on="1"/>
        <pt x="407" y="304" on="1"/>
        <pt x="411" y="323" on="0"/>
        <pt x="411" y="342" on="1"/>
        <pt x="411" y="382" on="0"/>
        <pt x="369" y="416" on="0"/>
        <pt x="334" y="416" on="1"/>
        <pt x="309" y="416" on="0"/>
        <pt x="257" y="400" on="0"/>
        <pt x="209" y="369" on="0"/>
        <pt x="167" y="324" on="0"/>
        <pt x="152" y="295" on="1"/>
        <pt x="89" y="0" on="1"/>
        <pt x="19" y="0" on="1"/>
        <pt x="117" y="460" on="1"/>
        <pt x="172" y="460" on="1"/>
        <pt x="161" y="374" on="1"/>
        <pt x="165" y="374" on="1"/>
        <pt x="187" y="416" on="0"/>
        <pt x="290" y="475" on="0"/>
        <pt x="357" y="475" on="1"/>
        <pt x="384" y="475" on="0"/>
        <pt x="431" y="463" on="0"/>
        <pt x="465" y="437" on="0"/>
        <pt x="485" y="395" on="0"/>
        <pt x="485" y="364" on="1"/>
        <pt x="485" y="341" on="0"/>
        <pt x="479" y="313" on="1"/>
        <pt x="412" y="0" on="1"/>
      </contour>
    </TTGlyph>
    <TTGlyph name="numbersign" xMin="28" yMin="0" xMax="615" yMax="654">
      <contour>
        <pt x="493" y="446" on="1"/>
        <pt x="615" y="446" on="1"/>
        <pt x="594" y="394" on="1"/>
        <pt x="471" y="394" on="1"/>
        <pt x="421" y="275" on="1"/>
        <pt x="548" y="275" on="1"/>
        <pt x="527" y="222" on="1"/>
        <pt x="398" y="222" on="1"/>
        <pt x="304" y="0" on="1"/>
        <pt x="240" y="0" on="1"/>
        <pt x="334" y="222" on="1"/>
        <pt x="208" y="222" on="1"/>
        <pt x="114" y="0" on="1"/>
        <pt x="50" y="0" on="1"/>
        <pt x="144" y="222" on="1"/>
        <pt x="28" y="222" on="1"/>
        <pt x="49" y="275" on="1"/>
        <pt x="167" y="275" on="1"/>
        <pt x="217" y="394" on="1"/>
        <pt x="95" y="394" on="1"/>
        <pt x="116" y="446" on="1"/>
        <pt x="239" y="446" on="1"/>
        <pt x="328" y="654" on="1"/>
        <pt x="392" y="654" on="1"/>
        <pt x="303" y="446" on="1"/>
        <pt x="429" y="446" on="1"/>
        <pt x="518" y="654" on="1"/>
        <pt x="582" y="654" on="1"/>
      </contour>
      <contour>
        <pt x="231" y="275" on="1"/>
        <pt x="357" y="275" on="1"/>
        <pt x="407" y="394" on="1"/>
        <pt x="281" y="394" on="1"/>
      </contour>
    </TTGlyph>
    <TTGlyph name="o" xMin="33" yMin="-12" xMax="512" yMax="475">
      <contour>
        <pt x="324" y="475" on="1"/>
        <pt x="374" y="475" on="0"/>
        <pt x="445" y="444" on="0"/>
        <pt x="491" y="391" on="0"/>
        <pt x="512" y="322" on="0"/>
        <pt x="512" y="283" on="1"/>
        <pt x="512" y="227" on="0"/>
        <pt x="476" y="121" on="0"/>
        <pt x="404" y="39" on="0"/>
        <pt x="296" y="-12" on="0"/>
        <pt x="224" y="-12" on="1"/>
        <pt x="174" y="-12" on="0"/>
        <pt x="101" y="18" on="0"/>
        <pt x="55" y="71" on="0"/>
        <pt x="33" y="140" on="0"/>
        <pt x="33" y="179" on="1"/>
        <pt x="33" y="234" on="0"/>
        <pt x="71" y="340" on="0"/>
        <pt x="144" y="424" on="0"/>
        <pt x="253" y="475" on="0"/>
      </contour>
      <contour>
        <pt x="235" y="41" on="1"/>
        <pt x="285" y="41" on="0"/>
        <pt x="360" y="82" on="0"/>
        <pt x="411" y="148" on="0"/>
        <pt x="436" y="231" on="0"/>
        <pt x="436" y="273" on="1"/>
        <pt x="436" y="303" on="0"/>
        <pt x="422" y="356" on="0"/>
        <pt x="391" y="396" on="0"/>
        <pt x="343" y="419" on="0"/>
        <pt x="309" y="419" on="1"/>
        <pt x="259" y="419" on="0"/>
        <pt x="183" y="378" on="0"/>
        <pt x="133" y="312" on="0"/>
        <pt x="108" y="229" on="0"/>
        <pt x="108" y="187" on="1"/>
        <pt x="108" y="158" on="0"/>
        <pt x="122" y="105" on="0"/>
        <pt x="153" y="65" on="0"/>
        <pt x="201" y="41" on="0"/>
      </contour>
    </TTGlyph>
</ttFont>
